<svg xmlns="http://www.w3.org/2000/svg" xmlns:xlink="http://www.w3.org/1999/xlink" width="300" zoomAndPan="magnify" viewBox="0 0 224.87999 56.249996" height="75" preserveAspectRatio="xMidYMid meet" version="1.0"><defs><g/><clipPath id="c8ae112389"><path d="M 164 6.617188 L 167 6.617188 L 167 9 L 164 9 Z M 164 6.617188 " clip-rule="nonzero"/></clipPath><clipPath id="2712f1b352"><path d="M 156.507812 14 L 159 14 L 159 17 L 156.507812 17 Z M 156.507812 14 " clip-rule="nonzero"/></clipPath><clipPath id="9ff569d85e"><path d="M 164 22 L 167 22 L 167 24.167969 L 164 24.167969 Z M 164 22 " clip-rule="nonzero"/></clipPath><clipPath id="9934b07e84"><path d="M 172 14 L 174.054688 14 L 174.054688 17 L 172 17 Z M 172 14 " clip-rule="nonzero"/></clipPath><clipPath id="0d4f21df2d"><path d="M 34.59375 17.8125 L 59.164062 17.8125 L 59.164062 42.382812 L 34.59375 42.382812 Z M 34.59375 17.8125 " clip-rule="nonzero"/></clipPath></defs><g fill="#000000" fill-opacity="1"><g transform="translate(8.880125, 38.567063)"><g><path d="M 7.09375 -19.640625 L 7.09375 -11.203125 L 19.078125 -11.203125 L 19.078125 -19.640625 L 22.109375 -19.640625 L 22.109375 0 L 19.078125 0 L 19.078125 -8.28125 L 7.09375 -8.28125 L 7.09375 0 L 4.0625 0 L 4.0625 -19.640625 Z M 7.09375 -19.640625 "/></g></g><g transform="translate(35.061628, 38.567063)"><g><path d="M 20.0625 -7.375 C 20.0625 -5.882812 19.679688 -4.5625 18.921875 -3.40625 C 18.171875 -2.257812 17.140625 -1.359375 15.828125 -0.703125 C 14.515625 -0.046875 13.007812 0.28125 11.3125 0.28125 C 9.601562 0.28125 8.085938 -0.046875 6.765625 -0.703125 C 5.453125 -1.359375 4.414062 -2.257812 3.65625 -3.40625 C 2.90625 -4.5625 2.53125 -5.882812 2.53125 -7.375 C 2.53125 -8.875 2.90625 -10.195312 3.65625 -11.34375 C 4.414062 -12.5 5.453125 -13.40625 6.765625 -14.0625 C 8.085938 -14.71875 9.601562 -15.046875 11.3125 -15.046875 C 13.007812 -15.046875 14.515625 -14.71875 15.828125 -14.0625 C 17.140625 -13.40625 18.171875 -12.5 18.921875 -11.34375 C 19.679688 -10.195312 20.0625 -8.875 20.0625 -7.375 Z M 17.125 -7.375 C 17.132812 -8.375 16.882812 -9.25 16.375 -10 C 15.863281 -10.757812 15.164062 -11.347656 14.28125 -11.765625 C 13.40625 -12.191406 12.414062 -12.40625 11.3125 -12.40625 C 10.226562 -12.40625 9.234375 -12.191406 8.328125 -11.765625 C 7.429688 -11.347656 6.722656 -10.757812 6.203125 -10 C 5.691406 -9.25 5.445312 -8.375 5.46875 -7.375 C 5.445312 -6.40625 5.691406 -5.539062 6.203125 -4.78125 C 6.722656 -4.019531 7.429688 -3.425781 8.328125 -3 C 9.234375 -2.570312 10.226562 -2.359375 11.3125 -2.359375 C 12.414062 -2.359375 13.410156 -2.570312 14.296875 -3 C 15.179688 -3.425781 15.875 -4.019531 16.375 -4.78125 C 16.882812 -5.539062 17.132812 -6.40625 17.125 -7.375 Z M 17.125 -7.375 "/></g></g><g transform="translate(57.651242, 38.567063)"><g><path d="M 12.765625 -14.984375 C 14.035156 -14.984375 15.113281 -14.71875 16 -14.1875 C 16.894531 -13.65625 17.519531 -12.875 17.875 -11.84375 C 18.226562 -12.289062 18.710938 -12.753906 19.328125 -13.234375 C 19.953125 -13.722656 20.664062 -14.132812 21.46875 -14.46875 C 22.269531 -14.8125 23.140625 -14.984375 24.078125 -14.984375 C 25.535156 -14.984375 26.679688 -14.695312 27.515625 -14.125 C 28.347656 -13.5625 28.9375 -12.800781 29.28125 -11.84375 C 29.625 -10.882812 29.796875 -9.828125 29.796875 -8.671875 L 29.796875 0 L 26.890625 0 L 26.890625 -8.359375 C 26.890625 -9.535156 26.625 -10.488281 26.09375 -11.21875 C 25.570312 -11.945312 24.675781 -12.3125 23.40625 -12.3125 C 22.425781 -12.3125 21.550781 -12.109375 20.78125 -11.703125 C 20.019531 -11.304688 19.421875 -10.769531 18.984375 -10.09375 C 18.546875 -9.425781 18.328125 -8.679688 18.328125 -7.859375 L 18.328125 0 L 15.40625 0 L 15.40625 -8.421875 C 15.40625 -9.554688 15.101562 -10.488281 14.5 -11.21875 C 13.90625 -11.945312 12.925781 -12.3125 11.5625 -12.3125 C 10.664062 -12.3125 9.863281 -12.101562 9.15625 -11.6875 C 8.457031 -11.269531 7.910156 -10.742188 7.515625 -10.109375 C 7.128906 -9.484375 6.9375 -8.863281 6.9375 -8.25 L 6.9375 0 L 4.015625 0 L 4.015625 -14.734375 L 6.9375 -14.734375 L 6.9375 -12.34375 C 7.488281 -13.019531 8.269531 -13.628906 9.28125 -14.171875 C 10.289062 -14.710938 11.453125 -14.984375 12.765625 -14.984375 Z M 12.765625 -14.984375 "/></g></g></g><g fill="#000000" fill-opacity="1"><g transform="translate(91.409385, 38.567063)"><g><path d="M 18.4375 -1.9375 L 18.40625 -1.9375 C 17.914062 -1.5625 17.300781 -1.203125 16.5625 -0.859375 C 15.832031 -0.515625 15.019531 -0.238281 14.125 -0.03125 C 13.238281 0.175781 12.335938 0.28125 11.421875 0.28125 C 9.628906 0.28125 8.050781 -0.0390625 6.6875 -0.6875 C 5.332031 -1.332031 4.273438 -2.21875 3.515625 -3.34375 C 2.765625 -4.476562 2.390625 -5.769531 2.390625 -7.21875 C 2.390625 -8.863281 2.789062 -10.269531 3.59375 -11.4375 C 4.394531 -12.601562 5.457031 -13.5 6.78125 -14.125 C 8.113281 -14.75 9.578125 -15.0625 11.171875 -15.0625 C 12.628906 -15.0625 13.957031 -14.757812 15.15625 -14.15625 C 16.351562 -13.550781 17.304688 -12.710938 18.015625 -11.640625 C 18.722656 -10.578125 19.078125 -9.332031 19.078125 -7.90625 L 19.046875 -6.515625 L 5.328125 -6.515625 C 5.554688 -5.242188 6.257812 -4.238281 7.4375 -3.5 C 8.613281 -2.757812 10.082031 -2.390625 11.84375 -2.390625 C 13.15625 -2.390625 14.222656 -2.582031 15.046875 -2.96875 C 15.878906 -3.363281 16.5625 -3.738281 17.09375 -4.09375 Z M 11.171875 -12.40625 C 9.734375 -12.40625 8.484375 -12.132812 7.421875 -11.59375 C 6.367188 -11.050781 5.691406 -10.125 5.390625 -8.8125 L 16.140625 -8.8125 L 16.140625 -9.171875 C 16.066406 -9.804688 15.785156 -10.367188 15.296875 -10.859375 C 14.804688 -11.347656 14.195312 -11.726562 13.46875 -12 C 12.738281 -12.269531 11.972656 -12.40625 11.171875 -12.40625 Z M 11.171875 -12.40625 "/></g></g></g><g fill="#000000" fill-opacity="1"><g transform="translate(113.269393, 38.567063)"><g><path d="M 4.609375 -6 C 5.578125 -4.863281 6.585938 -3.984375 7.640625 -3.359375 C 8.703125 -2.742188 10 -2.4375 11.53125 -2.4375 C 12.351562 -2.4375 13.144531 -2.546875 13.90625 -2.765625 C 14.664062 -2.984375 15.289062 -3.3125 15.78125 -3.75 C 16.28125 -4.1875 16.53125 -4.734375 16.53125 -5.390625 C 16.53125 -6.328125 16.03125 -7 15.03125 -7.40625 C 14.039062 -7.820312 12.648438 -8.160156 10.859375 -8.421875 C 8.648438 -8.753906 6.890625 -9.375 5.578125 -10.28125 C 4.273438 -11.1875 3.625 -12.507812 3.625 -14.25 C 3.625 -15.4375 3.972656 -16.445312 4.671875 -17.28125 C 5.367188 -18.125 6.316406 -18.773438 7.515625 -19.234375 C 8.710938 -19.691406 10.035156 -19.921875 11.484375 -19.921875 C 13.273438 -19.921875 14.820312 -19.617188 16.125 -19.015625 C 17.4375 -18.421875 18.46875 -17.570312 19.21875 -16.46875 L 17.140625 -14.3125 C 16.523438 -15.175781 15.726562 -15.875 14.75 -16.40625 C 13.78125 -16.9375 12.660156 -17.203125 11.390625 -17.203125 C 10.078125 -17.203125 8.984375 -16.960938 8.109375 -16.484375 C 7.234375 -16.003906 6.796875 -15.335938 6.796875 -14.484375 C 6.796875 -13.472656 7.265625 -12.753906 8.203125 -12.328125 C 9.148438 -11.910156 10.390625 -11.582031 11.921875 -11.34375 C 12.929688 -11.1875 13.898438 -10.988281 14.828125 -10.75 C 15.753906 -10.507812 16.582031 -10.1875 17.3125 -9.78125 C 18.039062 -9.375 18.617188 -8.863281 19.046875 -8.25 C 19.484375 -7.632812 19.703125 -6.867188 19.703125 -5.953125 C 19.703125 -4.691406 19.363281 -3.59375 18.6875 -2.65625 C 18.007812 -1.726562 17.050781 -1.003906 15.8125 -0.484375 C 14.570312 0.0234375 13.097656 0.28125 11.390625 0.28125 C 9.578125 0.28125 7.941406 -0.015625 6.484375 -0.609375 C 5.023438 -1.210938 3.742188 -2.1875 2.640625 -3.53125 Z M 4.609375 -6 "/></g></g></g><g fill="#000000" fill-opacity="1"><g transform="translate(135.662569, 38.567063)"><g><path d="M 13 -15.046875 C 14.414062 -15.046875 15.5625 -14.765625 16.4375 -14.203125 C 17.320312 -13.640625 17.96875 -12.882812 18.375 -11.9375 C 18.789062 -11 19 -9.957031 19 -8.8125 L 19 0 L 16.109375 0 L 16.109375 -8.46875 C 16.109375 -9.632812 15.75 -10.585938 15.03125 -11.328125 C 14.3125 -12.078125 13.3125 -12.445312 12.03125 -12.4375 C 11.113281 -12.4375 10.289062 -12.21875 9.5625 -11.78125 C 8.832031 -11.351562 8.257812 -10.828125 7.84375 -10.203125 C 7.4375 -9.578125 7.234375 -8.945312 7.234375 -8.3125 L 7.234375 0 L 4.34375 0 L 4.34375 -20.765625 L 7.234375 -20.765625 L 7.234375 -12.3125 C 7.816406 -13.039062 8.617188 -13.675781 9.640625 -14.21875 C 10.660156 -14.769531 11.78125 -15.046875 13 -15.046875 Z M 13 -15.046875 "/></g></g></g><g fill="#000000" fill-opacity="1"><g transform="translate(158.953722, 38.567063)"><g><path d="M 5.984375 -17.9375 C 5.328125 -17.9375 4.835938 -18.101562 4.515625 -18.4375 C 4.203125 -18.769531 4.046875 -19.207031 4.046875 -19.75 C 4.046875 -20.21875 4.203125 -20.640625 4.515625 -21.015625 C 4.835938 -21.390625 5.328125 -21.578125 5.984375 -21.578125 C 6.640625 -21.578125 7.125 -21.40625 7.4375 -21.0625 C 7.757812 -20.726562 7.921875 -20.289062 7.921875 -19.75 C 7.921875 -19.28125 7.757812 -18.859375 7.4375 -18.484375 C 7.125 -18.117188 6.640625 -17.9375 5.984375 -17.9375 Z M 7.4375 0 L 4.546875 0 L 4.546875 -14.734375 L 7.4375 -14.734375 Z M 7.4375 0 "/></g></g></g><g fill="#000000" fill-opacity="1"><g transform="translate(170.851863, 38.567063)"><g><path d="M 12.859375 -15.046875 C 14.296875 -15.046875 15.46875 -14.765625 16.375 -14.203125 C 17.28125 -13.640625 17.941406 -12.882812 18.359375 -11.9375 C 18.785156 -11 19 -9.957031 19 -8.8125 L 19 0 L 16.109375 0 L 16.109375 -8.46875 C 16.109375 -9.613281 15.75 -10.5625 15.03125 -11.3125 C 14.3125 -12.0625 13.3125 -12.414062 12.03125 -12.375 C 11.113281 -12.375 10.289062 -12.164062 9.5625 -11.75 C 8.832031 -11.34375 8.257812 -10.828125 7.84375 -10.203125 C 7.4375 -9.578125 7.234375 -8.945312 7.234375 -8.3125 L 7.234375 0 L 4.34375 0 L 4.34375 -14.734375 L 7.234375 -14.734375 L 7.234375 -12.171875 C 7.835938 -12.941406 8.613281 -13.613281 9.5625 -14.1875 C 10.519531 -14.757812 11.617188 -15.046875 12.859375 -15.046875 Z M 12.859375 -15.046875 "/></g></g></g><g fill="#000000" fill-opacity="1"><g transform="translate(194.143008, 38.567063)"><g><path d="M 18.4375 -1.9375 L 18.40625 -1.9375 C 17.914062 -1.5625 17.300781 -1.203125 16.5625 -0.859375 C 15.832031 -0.515625 15.019531 -0.238281 14.125 -0.03125 C 13.238281 0.175781 12.335938 0.28125 11.421875 0.28125 C 9.628906 0.28125 8.050781 -0.0390625 6.6875 -0.6875 C 5.332031 -1.332031 4.273438 -2.21875 3.515625 -3.34375 C 2.765625 -4.476562 2.390625 -5.769531 2.390625 -7.21875 C 2.390625 -8.863281 2.789062 -10.269531 3.59375 -11.4375 C 4.394531 -12.601562 5.457031 -13.5 6.78125 -14.125 C 8.113281 -14.75 9.578125 -15.0625 11.171875 -15.0625 C 12.628906 -15.0625 13.957031 -14.757812 15.15625 -14.15625 C 16.351562 -13.550781 17.304688 -12.710938 18.015625 -11.640625 C 18.722656 -10.578125 19.078125 -9.332031 19.078125 -7.90625 L 19.046875 -6.515625 L 5.328125 -6.515625 C 5.554688 -5.242188 6.257812 -4.238281 7.4375 -3.5 C 8.613281 -2.757812 10.082031 -2.390625 11.84375 -2.390625 C 13.15625 -2.390625 14.222656 -2.582031 15.046875 -2.96875 C 15.878906 -3.363281 16.5625 -3.738281 17.09375 -4.09375 Z M 11.171875 -12.40625 C 9.734375 -12.40625 8.484375 -12.132812 7.421875 -11.59375 C 6.367188 -11.050781 5.691406 -10.125 5.390625 -8.8125 L 16.140625 -8.8125 L 16.140625 -9.171875 C 16.066406 -9.804688 15.785156 -10.367188 15.296875 -10.859375 C 14.804688 -11.347656 14.195312 -11.726562 13.46875 -12 C 12.738281 -12.269531 11.972656 -12.40625 11.171875 -12.40625 Z M 11.171875 -12.40625 "/></g></g></g><path fill="#ffde59" d="M 171.257812 15.394531 C 171.257812 15.785156 171.21875 16.171875 171.140625 16.558594 C 171.066406 16.941406 170.953125 17.316406 170.800781 17.679688 C 170.652344 18.042969 170.46875 18.386719 170.25 18.710938 C 170.03125 19.039062 169.785156 19.339844 169.507812 19.617188 C 169.230469 19.894531 168.925781 20.140625 168.601562 20.359375 C 168.273438 20.578125 167.929688 20.761719 167.566406 20.914062 C 167.207031 21.0625 166.832031 21.175781 166.445312 21.253906 C 166.0625 21.328125 165.675781 21.367188 165.28125 21.367188 C 164.890625 21.367188 164.5 21.328125 164.117188 21.253906 C 163.730469 21.175781 163.359375 21.0625 162.996094 20.914062 C 162.632812 20.761719 162.289062 20.578125 161.960938 20.359375 C 161.636719 20.140625 161.335938 19.894531 161.058594 19.617188 C 160.78125 19.339844 160.53125 19.039062 160.3125 18.710938 C 160.097656 18.386719 159.910156 18.042969 159.761719 17.679688 C 159.613281 17.316406 159.5 16.941406 159.421875 16.558594 C 159.34375 16.171875 159.308594 15.785156 159.308594 15.394531 C 159.308594 15 159.34375 14.613281 159.421875 14.226562 C 159.5 13.84375 159.613281 13.46875 159.761719 13.105469 C 159.910156 12.742188 160.097656 12.398438 160.3125 12.074219 C 160.53125 11.746094 160.78125 11.445312 161.058594 11.167969 C 161.335938 10.890625 161.636719 10.644531 161.960938 10.425781 C 162.289062 10.207031 162.632812 10.023438 162.996094 9.871094 C 163.359375 9.722656 163.730469 9.609375 164.117188 9.53125 C 164.5 9.457031 164.890625 9.417969 165.28125 9.417969 C 165.675781 9.417969 166.0625 9.457031 166.445312 9.53125 C 166.832031 9.609375 167.207031 9.722656 167.566406 9.871094 C 167.929688 10.023438 168.273438 10.207031 168.601562 10.425781 C 168.925781 10.644531 169.230469 10.890625 169.507812 11.167969 C 169.785156 11.445312 170.03125 11.746094 170.25 12.074219 C 170.46875 12.398438 170.652344 12.742188 170.800781 13.105469 C 170.953125 13.46875 171.066406 13.84375 171.140625 14.226562 C 171.21875 14.613281 171.257812 15 171.257812 15.394531 Z M 171.257812 15.394531 " fill-opacity="1" fill-rule="nonzero"/><g clip-path="url(#c8ae112389)"><path fill="#ffde59" d="M 164.101562 8.660156 L 165.28125 6.617188 L 166.460938 8.660156 Z M 164.101562 8.660156 " fill-opacity="1" fill-rule="nonzero"/></g><path fill="#ffde59" d="M 160.894531 10.152344 L 160.894531 7.792969 L 162.9375 8.972656 Z M 160.894531 10.152344 " fill-opacity="1" fill-rule="nonzero"/><path fill="#ffde59" d="M 158.863281 13.046875 L 157.683594 11.003906 L 160.042969 11.003906 Z M 158.863281 13.046875 " fill-opacity="1" fill-rule="nonzero"/><g clip-path="url(#2712f1b352)"><path fill="#ffde59" d="M 158.550781 16.574219 L 156.507812 15.394531 L 158.550781 14.214844 Z M 158.550781 16.574219 " fill-opacity="1" fill-rule="nonzero"/></g><path fill="#ffde59" d="M 160.042969 19.78125 L 157.683594 19.78125 L 158.863281 17.738281 Z M 160.042969 19.78125 " fill-opacity="1" fill-rule="nonzero"/><path fill="#ffde59" d="M 162.9375 21.8125 L 160.894531 22.992188 L 160.894531 20.632812 Z M 162.9375 21.8125 " fill-opacity="1" fill-rule="nonzero"/><g clip-path="url(#9ff569d85e)"><path fill="#ffde59" d="M 166.460938 22.125 L 165.28125 24.167969 L 164.101562 22.125 Z M 166.460938 22.125 " fill-opacity="1" fill-rule="nonzero"/></g><path fill="#ffde59" d="M 169.667969 20.632812 L 169.667969 22.992188 L 167.625 21.8125 Z M 169.667969 20.632812 " fill-opacity="1" fill-rule="nonzero"/><path fill="#ffde59" d="M 171.703125 17.738281 L 172.882812 19.78125 L 170.523438 19.78125 Z M 171.703125 17.738281 " fill-opacity="1" fill-rule="nonzero"/><g clip-path="url(#9934b07e84)"><path fill="#ffde59" d="M 172.015625 14.214844 L 174.058594 15.394531 L 172.015625 16.574219 Z M 172.015625 14.214844 " fill-opacity="1" fill-rule="nonzero"/></g><path fill="#ffde59" d="M 170.523438 11.003906 L 172.882812 11.003906 L 171.703125 13.046875 Z M 170.523438 11.003906 " fill-opacity="1" fill-rule="nonzero"/><path fill="#ffde59" d="M 167.625 8.972656 L 169.667969 7.792969 L 169.667969 10.152344 Z M 167.625 8.972656 " fill-opacity="1" fill-rule="nonzero"/><g clip-path="url(#0d4f21df2d)"><path fill="#32afcc" d="M 58.703125 33.441406 C 58.152344 35.398438 57.105469 37.246094 55.566406 38.785156 C 54.023438 40.328125 52.175781 41.371094 50.21875 41.925781 C 46.078125 43.089844 41.449219 42.042969 38.191406 38.785156 C 33.515625 34.113281 33.398438 26.609375 37.832031 21.789062 C 37.949219 21.660156 38.066406 21.535156 38.191406 21.414062 C 38.316406 21.289062 38.441406 21.167969 38.566406 21.050781 C 43.386719 16.617188 50.890625 16.738281 55.566406 21.414062 C 58.824219 24.671875 59.867188 29.300781 58.703125 33.441406 " fill-opacity="1" fill-rule="nonzero"/></g><path fill="#5ad4ff" d="M 58.703125 33.441406 C 58.152344 35.398438 57.105469 37.246094 55.566406 38.785156 C 54.023438 40.328125 52.175781 41.371094 50.21875 41.925781 L 43.351562 33.03125 L 49.8125 26.570312 L 58.703125 33.441406 " fill-opacity="1" fill-rule="nonzero"/><path fill="#ffffff" d="M 42.742188 25.226562 L 42.003906 25.964844 L 37.832031 21.789062 C 37.949219 21.660156 38.066406 21.535156 38.191406 21.414062 C 38.316406 21.289062 38.441406 21.167969 38.566406 21.050781 L 42.742188 25.226562 " fill-opacity="1" fill-rule="nonzero"/><path fill="#ffffff" d="M 47.640625 24.402344 L 49.8125 26.570312 L 43.351562 33.03125 L 41.179688 30.863281 L 47.640625 24.402344 " fill-opacity="1" fill-rule="nonzero"/><path fill="#ffffff" d="M 41.203125 25.765625 L 42.542969 24.425781 L 45.082031 26.960938 L 43.742188 28.300781 L 41.203125 25.765625 " fill-opacity="1" fill-rule="nonzero"/><path fill="#ffffff" d="M 54.625 35.449219 L 53.945312 34.410156 L 52.71875 34.601562 L 53.761719 33.921875 L 53.570312 32.695312 L 54.246094 33.738281 L 55.472656 33.542969 L 54.433594 34.222656 L 54.625 35.449219 " fill-opacity="1" fill-rule="nonzero"/><path fill="#ffffff" d="M 48.746094 34.871094 L 47.792969 34.746094 L 47.285156 35.5625 L 47.414062 34.609375 L 46.597656 34.101562 L 47.550781 34.230469 L 48.058594 33.414062 L 47.929688 34.367188 L 48.746094 34.871094 " fill-opacity="1" fill-rule="nonzero"/><path fill="#ffffff" d="M 50.847656 29.375 L 50.277344 29.300781 L 49.976562 29.789062 L 50.050781 29.21875 L 49.566406 28.917969 L 50.132812 28.992188 L 50.4375 28.507812 L 50.359375 29.074219 L 50.847656 29.375 " fill-opacity="1" fill-rule="nonzero"/><path fill="#ffffff" d="M 51.539062 39.40625 L 50.972656 39.328125 L 50.671875 39.816406 L 50.746094 39.25 L 50.261719 38.945312 L 50.828125 39.023438 L 51.128906 38.535156 L 51.054688 39.101562 L 51.539062 39.40625 " fill-opacity="1" fill-rule="nonzero"/><g fill="#000000" fill-opacity="1"><g transform="translate(63.144351, 47.296909)"><g><path d="M 2.75 -4.875 C 3.101562 -4.875 3.453125 -4.800781 3.796875 -4.65625 C 4.148438 -4.507812 4.453125 -4.3125 4.703125 -4.0625 L 3.984375 -3.21875 C 3.828125 -3.414062 3.640625 -3.566406 3.421875 -3.671875 C 3.203125 -3.785156 2.984375 -3.84375 2.765625 -3.84375 C 2.390625 -3.84375 2.070312 -3.707031 1.8125 -3.4375 C 1.550781 -3.164062 1.421875 -2.832031 1.421875 -2.4375 C 1.421875 -2.039062 1.550781 -1.703125 1.8125 -1.421875 C 2.070312 -1.148438 2.390625 -1.015625 2.765625 -1.015625 C 2.972656 -1.015625 3.1875 -1.066406 3.40625 -1.171875 C 3.625 -1.273438 3.816406 -1.414062 3.984375 -1.59375 L 4.703125 -0.828125 C 4.441406 -0.554688 4.128906 -0.335938 3.765625 -0.171875 C 3.410156 -0.015625 3.054688 0.0625 2.703125 0.0625 C 1.972656 0.0625 1.367188 -0.175781 0.890625 -0.65625 C 0.410156 -1.132812 0.171875 -1.726562 0.171875 -2.4375 C 0.171875 -3.125 0.414062 -3.703125 0.90625 -4.171875 C 1.394531 -4.640625 2.007812 -4.875 2.75 -4.875 Z M 2.75 -4.875 "/></g></g></g><g fill="#000000" fill-opacity="1"><g transform="translate(67.927711, 47.296909)"><g><path d="M 2.203125 -3.765625 C 2.804688 -3.765625 3.296875 -3.585938 3.671875 -3.234375 C 4.046875 -2.890625 4.234375 -2.429688 4.234375 -1.859375 C 4.234375 -1.296875 4.046875 -0.835938 3.671875 -0.484375 C 3.296875 -0.128906 2.804688 0.046875 2.203125 0.046875 C 1.585938 0.046875 1.09375 -0.128906 0.71875 -0.484375 C 0.351562 -0.835938 0.171875 -1.296875 0.171875 -1.859375 C 0.171875 -2.429688 0.351562 -2.890625 0.71875 -3.234375 C 1.09375 -3.585938 1.585938 -3.765625 2.203125 -3.765625 Z M 2.203125 -2.8125 C 1.953125 -2.8125 1.75 -2.722656 1.59375 -2.546875 C 1.445312 -2.367188 1.375 -2.132812 1.375 -1.84375 C 1.375 -1.5625 1.445312 -1.332031 1.59375 -1.15625 C 1.75 -0.976562 1.953125 -0.890625 2.203125 -0.890625 C 2.441406 -0.890625 2.640625 -0.976562 2.796875 -1.15625 C 2.953125 -1.332031 3.03125 -1.5625 3.03125 -1.84375 C 3.03125 -2.132812 2.953125 -2.367188 2.796875 -2.546875 C 2.640625 -2.722656 2.441406 -2.8125 2.203125 -2.8125 Z M 2.203125 -2.8125 "/></g></g></g><g fill="#000000" fill-opacity="1"><g transform="translate(72.330886, 47.296909)"><g><path d="M 5.453125 -3.78125 C 5.859375 -3.78125 6.179688 -3.648438 6.421875 -3.390625 C 6.660156 -3.128906 6.78125 -2.78125 6.78125 -2.34375 L 6.78125 0 L 5.59375 0 L 5.59375 -2.015625 C 5.59375 -2.234375 5.535156 -2.40625 5.421875 -2.53125 C 5.304688 -2.664062 5.148438 -2.734375 4.953125 -2.734375 C 4.734375 -2.722656 4.554688 -2.632812 4.421875 -2.46875 C 4.296875 -2.3125 4.234375 -2.101562 4.234375 -1.84375 L 4.234375 0 L 3.03125 0 L 3.03125 -2.015625 C 3.03125 -2.234375 2.972656 -2.40625 2.859375 -2.53125 C 2.753906 -2.664062 2.601562 -2.734375 2.40625 -2.734375 C 2.175781 -2.722656 1.992188 -2.632812 1.859375 -2.46875 C 1.734375 -2.300781 1.671875 -2.09375 1.671875 -1.84375 L 1.671875 0 L 0.46875 0 L 0.46875 -3.71875 L 1.671875 -3.71875 L 1.671875 -3.109375 C 1.921875 -3.546875 2.328125 -3.769531 2.890625 -3.78125 C 3.191406 -3.78125 3.453125 -3.703125 3.671875 -3.546875 C 3.890625 -3.398438 4.046875 -3.195312 4.140625 -2.9375 C 4.378906 -3.488281 4.816406 -3.769531 5.453125 -3.78125 Z M 5.453125 -3.78125 "/></g></g></g><g fill="#000000" fill-opacity="1"><g transform="translate(79.499013, 47.296909)"><g><path d="M 5.453125 -3.78125 C 5.859375 -3.78125 6.179688 -3.648438 6.421875 -3.390625 C 6.660156 -3.128906 6.78125 -2.78125 6.78125 -2.34375 L 6.78125 0 L 5.59375 0 L 5.59375 -2.015625 C 5.59375 -2.234375 5.535156 -2.40625 5.421875 -2.53125 C 5.304688 -2.664062 5.148438 -2.734375 4.953125 -2.734375 C 4.734375 -2.722656 4.554688 -2.632812 4.421875 -2.46875 C 4.296875 -2.3125 4.234375 -2.101562 4.234375 -1.84375 L 4.234375 0 L 3.03125 0 L 3.03125 -2.015625 C 3.03125 -2.234375 2.972656 -2.40625 2.859375 -2.53125 C 2.753906 -2.664062 2.601562 -2.734375 2.40625 -2.734375 C 2.175781 -2.722656 1.992188 -2.632812 1.859375 -2.46875 C 1.734375 -2.300781 1.671875 -2.09375 1.671875 -1.84375 L 1.671875 0 L 0.46875 0 L 0.46875 -3.71875 L 1.671875 -3.71875 L 1.671875 -3.109375 C 1.921875 -3.546875 2.328125 -3.769531 2.890625 -3.78125 C 3.191406 -3.78125 3.453125 -3.703125 3.671875 -3.546875 C 3.890625 -3.398438 4.046875 -3.195312 4.140625 -2.9375 C 4.378906 -3.488281 4.816406 -3.769531 5.453125 -3.78125 Z M 5.453125 -3.78125 "/></g></g></g><g fill="#000000" fill-opacity="1"><g transform="translate(86.667139, 47.296909)"><g><path d="M 2.109375 -3.765625 C 2.753906 -3.765625 3.238281 -3.566406 3.5625 -3.171875 C 3.882812 -2.773438 4.023438 -2.234375 3.984375 -1.546875 L 1.375 -1.546875 C 1.425781 -1.316406 1.523438 -1.140625 1.671875 -1.015625 C 1.828125 -0.898438 2.019531 -0.84375 2.25 -0.84375 C 2.582031 -0.84375 2.878906 -0.972656 3.140625 -1.234375 L 3.765625 -0.609375 C 3.359375 -0.171875 2.816406 0.046875 2.140625 0.046875 C 1.535156 0.046875 1.054688 -0.125 0.703125 -0.46875 C 0.347656 -0.820312 0.171875 -1.28125 0.171875 -1.84375 C 0.171875 -2.425781 0.347656 -2.890625 0.703125 -3.234375 C 1.054688 -3.585938 1.523438 -3.765625 2.109375 -3.765625 Z M 1.34375 -2.1875 L 2.84375 -2.1875 C 2.84375 -2.40625 2.773438 -2.582031 2.640625 -2.71875 C 2.503906 -2.863281 2.332031 -2.9375 2.125 -2.9375 C 1.914062 -2.9375 1.742188 -2.867188 1.609375 -2.734375 C 1.472656 -2.597656 1.382812 -2.414062 1.34375 -2.1875 Z M 1.34375 -2.1875 "/></g></g></g><g fill="#000000" fill-opacity="1"><g transform="translate(90.828382, 47.296909)"><g><path d="M 1.671875 -3.71875 L 1.671875 -3.09375 C 1.929688 -3.539062 2.332031 -3.769531 2.875 -3.78125 L 2.875 -2.703125 C 2.539062 -2.734375 2.265625 -2.675781 2.046875 -2.53125 C 1.828125 -2.382812 1.703125 -2.175781 1.671875 -1.90625 L 1.671875 0 L 0.46875 0 L 0.46875 -3.71875 Z M 1.671875 -3.71875 "/></g></g></g><g fill="#000000" fill-opacity="1"><g transform="translate(93.779965, 47.296909)"><g><path d="M 2.09375 -3.765625 C 2.46875 -3.765625 2.796875 -3.691406 3.078125 -3.546875 C 3.367188 -3.398438 3.59375 -3.191406 3.75 -2.921875 L 2.90625 -2.40625 C 2.71875 -2.664062 2.460938 -2.796875 2.140625 -2.796875 C 1.910156 -2.796875 1.722656 -2.707031 1.578125 -2.53125 C 1.441406 -2.363281 1.375 -2.140625 1.375 -1.859375 C 1.375 -1.566406 1.441406 -1.332031 1.578125 -1.15625 C 1.722656 -0.988281 1.910156 -0.90625 2.140625 -0.90625 C 2.492188 -0.90625 2.75 -1.046875 2.90625 -1.328125 L 3.78125 -0.828125 C 3.625 -0.546875 3.398438 -0.328125 3.109375 -0.171875 C 2.816406 -0.0234375 2.472656 0.046875 2.078125 0.046875 C 1.503906 0.046875 1.039062 -0.125 0.6875 -0.46875 C 0.34375 -0.820312 0.171875 -1.28125 0.171875 -1.84375 C 0.171875 -2.414062 0.347656 -2.878906 0.703125 -3.234375 C 1.054688 -3.585938 1.519531 -3.765625 2.09375 -3.765625 Z M 2.09375 -3.765625 "/></g></g></g><g fill="#000000" fill-opacity="1"><g transform="translate(97.664714, 47.296909)"><g><path d="M 0.625 -5.234375 C 0.738281 -5.359375 0.890625 -5.421875 1.078125 -5.421875 C 1.265625 -5.421875 1.414062 -5.359375 1.53125 -5.234375 C 1.644531 -5.117188 1.703125 -4.96875 1.703125 -4.78125 C 1.703125 -4.601562 1.644531 -4.453125 1.53125 -4.328125 C 1.414062 -4.210938 1.265625 -4.15625 1.078125 -4.15625 C 0.890625 -4.15625 0.738281 -4.210938 0.625 -4.328125 C 0.507812 -4.453125 0.453125 -4.601562 0.453125 -4.78125 C 0.453125 -4.96875 0.507812 -5.117188 0.625 -5.234375 Z M 1.671875 0 L 0.46875 0 L 0.46875 -3.71875 L 1.671875 -3.71875 Z M 1.671875 0 "/></g></g></g><g fill="#000000" fill-opacity="1"><g transform="translate(99.814458, 47.296909)"><g><path d="M 2.140625 -3.78125 C 2.660156 -3.78125 3.0625 -3.660156 3.34375 -3.421875 C 3.625 -3.179688 3.765625 -2.851562 3.765625 -2.4375 L 3.765625 0 L 2.609375 0 L 2.609375 -0.421875 C 2.359375 -0.0976562 1.976562 0.0625 1.46875 0.0625 C 1.070312 0.0625 0.757812 -0.046875 0.53125 -0.265625 C 0.300781 -0.484375 0.1875 -0.765625 0.1875 -1.109375 C 0.1875 -1.460938 0.304688 -1.738281 0.546875 -1.9375 C 0.796875 -2.132812 1.148438 -2.234375 1.609375 -2.234375 L 2.59375 -2.234375 L 2.59375 -2.296875 C 2.59375 -2.472656 2.53125 -2.613281 2.40625 -2.71875 C 2.289062 -2.820312 2.113281 -2.875 1.875 -2.875 C 1.539062 -2.875 1.171875 -2.769531 0.765625 -2.5625 L 0.421875 -3.359375 C 1.023438 -3.640625 1.597656 -3.78125 2.140625 -3.78125 Z M 1.828125 -0.75 C 2.015625 -0.75 2.179688 -0.796875 2.328125 -0.890625 C 2.472656 -0.984375 2.5625 -1.109375 2.59375 -1.265625 L 2.59375 -1.59375 L 1.84375 -1.59375 C 1.488281 -1.59375 1.3125 -1.457031 1.3125 -1.1875 C 1.3125 -1.050781 1.351562 -0.941406 1.4375 -0.859375 C 1.53125 -0.785156 1.660156 -0.75 1.828125 -0.75 Z M 1.828125 -0.75 "/></g></g></g><g fill="#000000" fill-opacity="1"><g transform="translate(103.961879, 47.296909)"><g><path d="M 1.703125 0 L 0.515625 0 L 0.515625 -5.125 L 1.703125 -5.125 Z M 1.703125 0 "/></g></g></g><g fill="#000000" fill-opacity="1"><g transform="translate(106.180748, 47.296909)"><g/></g></g><g fill="#000000" fill-opacity="1"><g transform="translate(107.784416, 47.296909)"><g><path d="M 3.296875 -1.875 L 2.140625 -1.875 L 2.140625 -0.71875 L 1.375 -0.71875 L 1.375 -1.875 L 0.234375 -1.875 L 0.234375 -2.625 L 1.375 -2.625 L 1.375 -3.796875 L 2.140625 -3.796875 L 2.140625 -2.625 L 3.296875 -2.625 Z M 3.296875 -1.875 "/></g></g></g><g fill="#000000" fill-opacity="1"><g transform="translate(111.309726, 47.296909)"><g/></g></g><g fill="#000000" fill-opacity="1"><g transform="translate(112.913394, 47.296909)"><g><path d="M 3.390625 0 L 2.671875 -1.359375 L 1.71875 -1.359375 L 1.71875 0 L 0.484375 0 L 0.484375 -4.828125 L 2.640625 -4.828125 C 3.285156 -4.828125 3.78125 -4.679688 4.125 -4.390625 C 4.476562 -4.097656 4.65625 -3.6875 4.65625 -3.15625 C 4.65625 -2.40625 4.363281 -1.882812 3.78125 -1.59375 L 4.796875 0 Z M 1.71875 -2.328125 L 2.640625 -2.328125 C 2.910156 -2.328125 3.117188 -2.394531 3.265625 -2.53125 C 3.410156 -2.664062 3.484375 -2.859375 3.484375 -3.109375 C 3.484375 -3.359375 3.410156 -3.546875 3.265625 -3.671875 C 3.117188 -3.804688 2.910156 -3.875 2.640625 -3.875 L 1.71875 -3.875 Z M 1.71875 -2.328125 "/></g></g></g><g fill="#000000" fill-opacity="1"><g transform="translate(117.917947, 47.296909)"><g><path d="M 2.109375 -3.765625 C 2.753906 -3.765625 3.238281 -3.566406 3.5625 -3.171875 C 3.882812 -2.773438 4.023438 -2.234375 3.984375 -1.546875 L 1.375 -1.546875 C 1.425781 -1.316406 1.523438 -1.140625 1.671875 -1.015625 C 1.828125 -0.898438 2.019531 -0.84375 2.25 -0.84375 C 2.582031 -0.84375 2.878906 -0.972656 3.140625 -1.234375 L 3.765625 -0.609375 C 3.359375 -0.171875 2.816406 0.046875 2.140625 0.046875 C 1.535156 0.046875 1.054688 -0.125 0.703125 -0.46875 C 0.347656 -0.820312 0.171875 -1.28125 0.171875 -1.84375 C 0.171875 -2.425781 0.347656 -2.890625 0.703125 -3.234375 C 1.054688 -3.585938 1.523438 -3.765625 2.109375 -3.765625 Z M 1.34375 -2.1875 L 2.84375 -2.1875 C 2.84375 -2.40625 2.773438 -2.582031 2.640625 -2.71875 C 2.503906 -2.863281 2.332031 -2.9375 2.125 -2.9375 C 1.914062 -2.9375 1.742188 -2.867188 1.609375 -2.734375 C 1.472656 -2.597656 1.382812 -2.414062 1.34375 -2.1875 Z M 1.34375 -2.1875 "/></g></g></g><g fill="#000000" fill-opacity="1"><g transform="translate(122.07919, 47.296909)"><g><path d="M 1.8125 -3.78125 C 2.351562 -3.78125 2.863281 -3.640625 3.34375 -3.359375 L 2.9375 -2.578125 C 2.476562 -2.828125 2.085938 -2.953125 1.765625 -2.953125 C 1.515625 -2.953125 1.390625 -2.867188 1.390625 -2.703125 C 1.390625 -2.609375 1.457031 -2.53125 1.59375 -2.46875 C 1.726562 -2.40625 1.890625 -2.347656 2.078125 -2.296875 C 2.273438 -2.242188 2.46875 -2.179688 2.65625 -2.109375 C 2.851562 -2.035156 3.015625 -1.914062 3.140625 -1.75 C 3.273438 -1.582031 3.34375 -1.378906 3.34375 -1.140625 C 3.34375 -0.765625 3.195312 -0.472656 2.90625 -0.265625 C 2.625 -0.0546875 2.25 0.046875 1.78125 0.046875 C 1.125 0.046875 0.566406 -0.125 0.109375 -0.46875 L 0.484375 -1.234375 C 0.921875 -0.929688 1.363281 -0.78125 1.8125 -0.78125 C 2.082031 -0.78125 2.21875 -0.863281 2.21875 -1.03125 C 2.21875 -1.125 2.148438 -1.203125 2.015625 -1.265625 C 1.890625 -1.335938 1.726562 -1.394531 1.53125 -1.4375 C 1.34375 -1.488281 1.15625 -1.550781 0.96875 -1.625 C 0.78125 -1.707031 0.617188 -1.828125 0.484375 -1.984375 C 0.359375 -2.148438 0.296875 -2.351562 0.296875 -2.59375 C 0.296875 -2.96875 0.4375 -3.257812 0.71875 -3.46875 C 1 -3.675781 1.363281 -3.78125 1.8125 -3.78125 Z M 1.8125 -3.78125 "/></g></g></g><g fill="#000000" fill-opacity="1"><g transform="translate(125.625232, 47.296909)"><g><path d="M 0.625 -5.234375 C 0.738281 -5.359375 0.890625 -5.421875 1.078125 -5.421875 C 1.265625 -5.421875 1.414062 -5.359375 1.53125 -5.234375 C 1.644531 -5.117188 1.703125 -4.96875 1.703125 -4.78125 C 1.703125 -4.601562 1.644531 -4.453125 1.53125 -4.328125 C 1.414062 -4.210938 1.265625 -4.15625 1.078125 -4.15625 C 0.890625 -4.15625 0.738281 -4.210938 0.625 -4.328125 C 0.507812 -4.453125 0.453125 -4.601562 0.453125 -4.78125 C 0.453125 -4.96875 0.507812 -5.117188 0.625 -5.234375 Z M 1.671875 0 L 0.46875 0 L 0.46875 -3.71875 L 1.671875 -3.71875 Z M 1.671875 0 "/></g></g></g><g fill="#000000" fill-opacity="1"><g transform="translate(127.774977, 47.296909)"><g><path d="M 4.234375 -5.125 L 4.234375 0 L 3.03125 0 L 3.03125 -0.484375 C 2.757812 -0.128906 2.382812 0.046875 1.90625 0.046875 C 1.382812 0.046875 0.960938 -0.128906 0.640625 -0.484375 C 0.328125 -0.835938 0.171875 -1.300781 0.171875 -1.875 C 0.171875 -2.445312 0.328125 -2.90625 0.640625 -3.25 C 0.953125 -3.59375 1.367188 -3.765625 1.890625 -3.765625 C 2.378906 -3.765625 2.757812 -3.585938 3.03125 -3.234375 L 3.03125 -5.125 Z M 1.59375 -1.140625 C 1.75 -0.960938 1.953125 -0.875 2.203125 -0.875 C 2.453125 -0.875 2.648438 -0.960938 2.796875 -1.140625 C 2.953125 -1.328125 3.03125 -1.5625 3.03125 -1.84375 C 3.03125 -2.132812 2.953125 -2.367188 2.796875 -2.546875 C 2.648438 -2.722656 2.453125 -2.8125 2.203125 -2.8125 C 1.953125 -2.8125 1.75 -2.722656 1.59375 -2.546875 C 1.445312 -2.367188 1.375 -2.132812 1.375 -1.84375 C 1.375 -1.5625 1.445312 -1.328125 1.59375 -1.140625 Z M 1.59375 -1.140625 "/></g></g></g><g fill="#000000" fill-opacity="1"><g transform="translate(132.516858, 47.296909)"><g><path d="M 2.109375 -3.765625 C 2.753906 -3.765625 3.238281 -3.566406 3.5625 -3.171875 C 3.882812 -2.773438 4.023438 -2.234375 3.984375 -1.546875 L 1.375 -1.546875 C 1.425781 -1.316406 1.523438 -1.140625 1.671875 -1.015625 C 1.828125 -0.898438 2.019531 -0.84375 2.25 -0.84375 C 2.582031 -0.84375 2.878906 -0.972656 3.140625 -1.234375 L 3.765625 -0.609375 C 3.359375 -0.171875 2.816406 0.046875 2.140625 0.046875 C 1.535156 0.046875 1.054688 -0.125 0.703125 -0.46875 C 0.347656 -0.820312 0.171875 -1.28125 0.171875 -1.84375 C 0.171875 -2.425781 0.347656 -2.890625 0.703125 -3.234375 C 1.054688 -3.585938 1.523438 -3.765625 2.109375 -3.765625 Z M 1.34375 -2.1875 L 2.84375 -2.1875 C 2.84375 -2.40625 2.773438 -2.582031 2.640625 -2.71875 C 2.503906 -2.863281 2.332031 -2.9375 2.125 -2.9375 C 1.914062 -2.9375 1.742188 -2.867188 1.609375 -2.734375 C 1.472656 -2.597656 1.382812 -2.414062 1.34375 -2.1875 Z M 1.34375 -2.1875 "/></g></g></g><g fill="#000000" fill-opacity="1"><g transform="translate(136.678101, 47.296909)"><g><path d="M 2.921875 -3.78125 C 3.328125 -3.78125 3.65625 -3.648438 3.90625 -3.390625 C 4.15625 -3.128906 4.28125 -2.78125 4.28125 -2.34375 L 4.28125 0 L 3.09375 0 L 3.09375 -2.015625 C 3.09375 -2.234375 3.03125 -2.40625 2.90625 -2.53125 C 2.789062 -2.65625 2.632812 -2.71875 2.4375 -2.71875 C 2.21875 -2.71875 2.039062 -2.648438 1.90625 -2.515625 C 1.769531 -2.378906 1.691406 -2.195312 1.671875 -1.96875 L 1.671875 0 L 0.46875 0 L 0.46875 -3.71875 L 1.671875 -3.71875 L 1.671875 -3.109375 C 1.929688 -3.546875 2.347656 -3.769531 2.921875 -3.78125 Z M 2.921875 -3.78125 "/></g></g></g><g fill="#000000" fill-opacity="1"><g transform="translate(141.330126, 47.296909)"><g><path d="M 2.640625 -1.03125 L 2.875 -0.203125 C 2.582031 -0.0234375 2.253906 0.0625 1.890625 0.0625 C 1.515625 0.0625 1.210938 -0.0390625 0.984375 -0.25 C 0.765625 -0.457031 0.65625 -0.75 0.65625 -1.125 L 0.65625 -2.765625 L 0.125 -2.765625 L 0.125 -3.546875 L 0.65625 -3.546875 L 0.65625 -4.578125 L 1.84375 -4.578125 L 1.84375 -3.5625 L 2.8125 -3.5625 L 2.8125 -2.765625 L 1.84375 -2.765625 L 1.84375 -1.3125 C 1.84375 -1.164062 1.867188 -1.054688 1.921875 -0.984375 C 1.984375 -0.921875 2.070312 -0.894531 2.1875 -0.90625 C 2.289062 -0.90625 2.441406 -0.945312 2.640625 -1.03125 Z M 2.640625 -1.03125 "/></g></g></g><g fill="#000000" fill-opacity="1"><g transform="translate(144.337003, 47.296909)"><g><path d="M 0.625 -5.234375 C 0.738281 -5.359375 0.890625 -5.421875 1.078125 -5.421875 C 1.265625 -5.421875 1.414062 -5.359375 1.53125 -5.234375 C 1.644531 -5.117188 1.703125 -4.96875 1.703125 -4.78125 C 1.703125 -4.601562 1.644531 -4.453125 1.53125 -4.328125 C 1.414062 -4.210938 1.265625 -4.15625 1.078125 -4.15625 C 0.890625 -4.15625 0.738281 -4.210938 0.625 -4.328125 C 0.507812 -4.453125 0.453125 -4.601562 0.453125 -4.78125 C 0.453125 -4.96875 0.507812 -5.117188 0.625 -5.234375 Z M 1.671875 0 L 0.46875 0 L 0.46875 -3.71875 L 1.671875 -3.71875 Z M 1.671875 0 "/></g></g></g><g fill="#000000" fill-opacity="1"><g transform="translate(146.486748, 47.296909)"><g><path d="M 2.140625 -3.78125 C 2.660156 -3.78125 3.0625 -3.660156 3.34375 -3.421875 C 3.625 -3.179688 3.765625 -2.851562 3.765625 -2.4375 L 3.765625 0 L 2.609375 0 L 2.609375 -0.421875 C 2.359375 -0.0976562 1.976562 0.0625 1.46875 0.0625 C 1.070312 0.0625 0.757812 -0.046875 0.53125 -0.265625 C 0.300781 -0.484375 0.1875 -0.765625 0.1875 -1.109375 C 0.1875 -1.460938 0.304688 -1.738281 0.546875 -1.9375 C 0.796875 -2.132812 1.148438 -2.234375 1.609375 -2.234375 L 2.59375 -2.234375 L 2.59375 -2.296875 C 2.59375 -2.472656 2.53125 -2.613281 2.40625 -2.71875 C 2.289062 -2.820312 2.113281 -2.875 1.875 -2.875 C 1.539062 -2.875 1.171875 -2.769531 0.765625 -2.5625 L 0.421875 -3.359375 C 1.023438 -3.640625 1.597656 -3.78125 2.140625 -3.78125 Z M 1.828125 -0.75 C 2.015625 -0.75 2.179688 -0.796875 2.328125 -0.890625 C 2.472656 -0.984375 2.5625 -1.109375 2.59375 -1.265625 L 2.59375 -1.59375 L 1.84375 -1.59375 C 1.488281 -1.59375 1.3125 -1.457031 1.3125 -1.1875 C 1.3125 -1.050781 1.351562 -0.941406 1.4375 -0.859375 C 1.53125 -0.785156 1.660156 -0.75 1.828125 -0.75 Z M 1.828125 -0.75 "/></g></g></g><g fill="#000000" fill-opacity="1"><g transform="translate(150.634168, 47.296909)"><g><path d="M 1.703125 0 L 0.515625 0 L 0.515625 -5.125 L 1.703125 -5.125 Z M 1.703125 0 "/></g></g></g><g fill="#000000" fill-opacity="1"><g transform="translate(152.853037, 47.296909)"><g/></g></g><g fill="#000000" fill-opacity="1"><g transform="translate(154.456705, 47.296909)"><g><path d="M 4.265625 -3.875 L 1.71875 -3.875 L 1.71875 -2.90625 L 4.015625 -2.90625 L 4.015625 -1.9375 L 1.71875 -1.9375 L 1.71875 -0.96875 L 4.34375 -0.96875 L 4.34375 0 L 0.484375 0 L 0.484375 -4.828125 L 4.265625 -4.828125 Z M 4.265625 -3.875 "/></g></g></g><g fill="#000000" fill-opacity="1"><g transform="translate(159.115641, 47.296909)"><g><path d="M 2.09375 -2.65625 L 2.765625 -3.71875 L 4.0625 -3.71875 L 2.890625 -1.90625 L 4.15625 0 L 2.78125 0 L 2.09375 -1.171875 L 1.34375 0 L 0.03125 0 L 1.296875 -1.90625 L 0.109375 -3.71875 L 1.484375 -3.71875 Z M 2.09375 -2.65625 "/></g></g></g><g fill="#000000" fill-opacity="1"><g transform="translate(163.304534, 47.296909)"><g><path d="M 2.640625 -1.03125 L 2.875 -0.203125 C 2.582031 -0.0234375 2.253906 0.0625 1.890625 0.0625 C 1.515625 0.0625 1.210938 -0.0390625 0.984375 -0.25 C 0.765625 -0.457031 0.65625 -0.75 0.65625 -1.125 L 0.65625 -2.765625 L 0.125 -2.765625 L 0.125 -3.546875 L 0.65625 -3.546875 L 0.65625 -4.578125 L 1.84375 -4.578125 L 1.84375 -3.5625 L 2.8125 -3.5625 L 2.8125 -2.765625 L 1.84375 -2.765625 L 1.84375 -1.3125 C 1.84375 -1.164062 1.867188 -1.054688 1.921875 -0.984375 C 1.984375 -0.921875 2.070312 -0.894531 2.1875 -0.90625 C 2.289062 -0.90625 2.441406 -0.945312 2.640625 -1.03125 Z M 2.640625 -1.03125 "/></g></g></g><g fill="#000000" fill-opacity="1"><g transform="translate(166.311411, 47.296909)"><g><path d="M 2.109375 -3.765625 C 2.753906 -3.765625 3.238281 -3.566406 3.5625 -3.171875 C 3.882812 -2.773438 4.023438 -2.234375 3.984375 -1.546875 L 1.375 -1.546875 C 1.425781 -1.316406 1.523438 -1.140625 1.671875 -1.015625 C 1.828125 -0.898438 2.019531 -0.84375 2.25 -0.84375 C 2.582031 -0.84375 2.878906 -0.972656 3.140625 -1.234375 L 3.765625 -0.609375 C 3.359375 -0.171875 2.816406 0.046875 2.140625 0.046875 C 1.535156 0.046875 1.054688 -0.125 0.703125 -0.46875 C 0.347656 -0.820312 0.171875 -1.28125 0.171875 -1.84375 C 0.171875 -2.425781 0.347656 -2.890625 0.703125 -3.234375 C 1.054688 -3.585938 1.523438 -3.765625 2.109375 -3.765625 Z M 1.34375 -2.1875 L 2.84375 -2.1875 C 2.84375 -2.40625 2.773438 -2.582031 2.640625 -2.71875 C 2.503906 -2.863281 2.332031 -2.9375 2.125 -2.9375 C 1.914062 -2.9375 1.742188 -2.867188 1.609375 -2.734375 C 1.472656 -2.597656 1.382812 -2.414062 1.34375 -2.1875 Z M 1.34375 -2.1875 "/></g></g></g><g fill="#000000" fill-opacity="1"><g transform="translate(170.472654, 47.296909)"><g><path d="M 1.671875 -3.71875 L 1.671875 -3.09375 C 1.929688 -3.539062 2.332031 -3.769531 2.875 -3.78125 L 2.875 -2.703125 C 2.539062 -2.734375 2.265625 -2.675781 2.046875 -2.53125 C 1.828125 -2.382812 1.703125 -2.175781 1.671875 -1.90625 L 1.671875 0 L 0.46875 0 L 0.46875 -3.71875 Z M 1.671875 -3.71875 "/></g></g></g><g fill="#000000" fill-opacity="1"><g transform="translate(173.424236, 47.296909)"><g><path d="M 0.625 -5.234375 C 0.738281 -5.359375 0.890625 -5.421875 1.078125 -5.421875 C 1.265625 -5.421875 1.414062 -5.359375 1.53125 -5.234375 C 1.644531 -5.117188 1.703125 -4.96875 1.703125 -4.78125 C 1.703125 -4.601562 1.644531 -4.453125 1.53125 -4.328125 C 1.414062 -4.210938 1.265625 -4.15625 1.078125 -4.15625 C 0.890625 -4.15625 0.738281 -4.210938 0.625 -4.328125 C 0.507812 -4.453125 0.453125 -4.601562 0.453125 -4.78125 C 0.453125 -4.96875 0.507812 -5.117188 0.625 -5.234375 Z M 1.671875 0 L 0.46875 0 L 0.46875 -3.71875 L 1.671875 -3.71875 Z M 1.671875 0 "/></g></g></g><g fill="#000000" fill-opacity="1"><g transform="translate(175.573981, 47.296909)"><g><path d="M 2.203125 -3.765625 C 2.804688 -3.765625 3.296875 -3.585938 3.671875 -3.234375 C 4.046875 -2.890625 4.234375 -2.429688 4.234375 -1.859375 C 4.234375 -1.296875 4.046875 -0.835938 3.671875 -0.484375 C 3.296875 -0.128906 2.804688 0.046875 2.203125 0.046875 C 1.585938 0.046875 1.09375 -0.128906 0.71875 -0.484375 C 0.351562 -0.835938 0.171875 -1.296875 0.171875 -1.859375 C 0.171875 -2.429688 0.351562 -2.890625 0.71875 -3.234375 C 1.09375 -3.585938 1.585938 -3.765625 2.203125 -3.765625 Z M 2.203125 -2.8125 C 1.953125 -2.8125 1.75 -2.722656 1.59375 -2.546875 C 1.445312 -2.367188 1.375 -2.132812 1.375 -1.84375 C 1.375 -1.5625 1.445312 -1.332031 1.59375 -1.15625 C 1.75 -0.976562 1.953125 -0.890625 2.203125 -0.890625 C 2.441406 -0.890625 2.640625 -0.976562 2.796875 -1.15625 C 2.953125 -1.332031 3.03125 -1.5625 3.03125 -1.84375 C 3.03125 -2.132812 2.953125 -2.367188 2.796875 -2.546875 C 2.640625 -2.722656 2.441406 -2.8125 2.203125 -2.8125 Z M 2.203125 -2.8125 "/></g></g></g><g fill="#000000" fill-opacity="1"><g transform="translate(179.977156, 47.296909)"><g><path d="M 1.671875 -3.71875 L 1.671875 -3.09375 C 1.929688 -3.539062 2.332031 -3.769531 2.875 -3.78125 L 2.875 -2.703125 C 2.539062 -2.734375 2.265625 -2.675781 2.046875 -2.53125 C 1.828125 -2.382812 1.703125 -2.175781 1.671875 -1.90625 L 1.671875 0 L 0.46875 0 L 0.46875 -3.71875 Z M 1.671875 -3.71875 "/></g></g></g><g fill="#000000" fill-opacity="1"><g transform="translate(182.928738, 47.296909)"><g><path d="M 1.8125 -3.78125 C 2.351562 -3.78125 2.863281 -3.640625 3.34375 -3.359375 L 2.9375 -2.578125 C 2.476562 -2.828125 2.085938 -2.953125 1.765625 -2.953125 C 1.515625 -2.953125 1.390625 -2.867188 1.390625 -2.703125 C 1.390625 -2.609375 1.457031 -2.53125 1.59375 -2.46875 C 1.726562 -2.40625 1.890625 -2.347656 2.078125 -2.296875 C 2.273438 -2.242188 2.46875 -2.179688 2.65625 -2.109375 C 2.851562 -2.035156 3.015625 -1.914062 3.140625 -1.75 C 3.273438 -1.582031 3.34375 -1.378906 3.34375 -1.140625 C 3.34375 -0.765625 3.195312 -0.472656 2.90625 -0.265625 C 2.625 -0.0546875 2.25 0.046875 1.78125 0.046875 C 1.125 0.046875 0.566406 -0.125 0.109375 -0.46875 L 0.484375 -1.234375 C 0.921875 -0.929688 1.363281 -0.78125 1.8125 -0.78125 C 2.082031 -0.78125 2.21875 -0.863281 2.21875 -1.03125 C 2.21875 -1.125 2.148438 -1.203125 2.015625 -1.265625 C 1.890625 -1.335938 1.726562 -1.394531 1.53125 -1.4375 C 1.34375 -1.488281 1.15625 -1.550781 0.96875 -1.625 C 0.78125 -1.707031 0.617188 -1.828125 0.484375 -1.984375 C 0.359375 -2.148438 0.296875 -2.351562 0.296875 -2.59375 C 0.296875 -2.96875 0.4375 -3.257812 0.71875 -3.46875 C 1 -3.675781 1.363281 -3.78125 1.8125 -3.78125 Z M 1.8125 -3.78125 "/></g></g></g><g fill="#000000" fill-opacity="1"><g transform="translate(188.987628, 47.363858)"><g><path d="M 1.4375 -0.859375 L 3.140625 -0.859375 L 3.140625 0 L 0.40625 0 L 0.40625 -4.03125 L 1.4375 -4.03125 Z M 1.4375 -0.859375 "/></g></g></g><g fill="#000000" fill-opacity="1"><g transform="translate(192.217071, 47.363858)"><g><path d="M 1.4375 -0.859375 L 3.140625 -0.859375 L 3.140625 0 L 0.40625 0 L 0.40625 -4.03125 L 1.4375 -4.03125 Z M 1.4375 -0.859375 "/></g></g></g><g fill="#000000" fill-opacity="1"><g transform="translate(195.446514, 47.363858)"><g><path d="M 2.296875 -4.078125 C 2.597656 -4.078125 2.890625 -4.015625 3.171875 -3.890625 C 3.460938 -3.765625 3.710938 -3.597656 3.921875 -3.390625 L 3.328125 -2.6875 C 3.191406 -2.84375 3.03125 -2.96875 2.84375 -3.0625 C 2.664062 -3.164062 2.488281 -3.21875 2.3125 -3.21875 C 1.988281 -3.21875 1.71875 -3.101562 1.5 -2.875 C 1.289062 -2.644531 1.1875 -2.367188 1.1875 -2.046875 C 1.1875 -1.703125 1.289062 -1.414062 1.5 -1.1875 C 1.71875 -0.96875 1.988281 -0.859375 2.3125 -0.859375 C 2.476562 -0.859375 2.648438 -0.898438 2.828125 -0.984375 C 3.015625 -1.066406 3.179688 -1.179688 3.328125 -1.328125 L 3.921875 -0.6875 C 3.703125 -0.46875 3.441406 -0.289062 3.140625 -0.15625 C 2.847656 -0.0195312 2.554688 0.046875 2.265625 0.046875 C 1.648438 0.046875 1.140625 -0.148438 0.734375 -0.546875 C 0.335938 -0.941406 0.140625 -1.4375 0.140625 -2.03125 C 0.140625 -2.613281 0.34375 -3.097656 0.75 -3.484375 C 1.164062 -3.878906 1.679688 -4.078125 2.296875 -4.078125 Z M 2.296875 -4.078125 "/></g></g></g></svg>