<svg xmlns="http://www.w3.org/2000/svg" xmlns:xlink="http://www.w3.org/1999/xlink" width="300" zoomAndPan="magnify" viewBox="0 0 224.87999 56.249996" height="75" preserveAspectRatio="xMidYMid meet" version="1.0"><defs><g/><clipPath id="72a951ef9b"><path d="M 1.421875 0 L 223.339844 0 L 223.339844 55.511719 L 1.421875 55.511719 Z M 1.421875 0 " clip-rule="nonzero"/></clipPath><clipPath id="8f8a076987"><path d="M 167 2.027344 L 171 2.027344 L 171 5 L 167 5 Z M 167 2.027344 " clip-rule="nonzero"/></clipPath><clipPath id="3f41168e65"><path d="M 159.203125 10 L 162 10 L 162 13 L 159.203125 13 Z M 159.203125 10 " clip-rule="nonzero"/></clipPath><clipPath id="e9f1de3786"><path d="M 167 18 L 171 18 L 171 21.085938 L 167 21.085938 Z M 167 18 " clip-rule="nonzero"/></clipPath><clipPath id="5b63649534"><path d="M 176 10 L 178.261719 10 L 178.261719 13 L 176 13 Z M 176 10 " clip-rule="nonzero"/></clipPath><clipPath id="452cd29648"><path d="M 28.390625 14.039062 L 53.804688 14.039062 L 53.804688 39.453125 L 28.390625 39.453125 Z M 28.390625 14.039062 " clip-rule="nonzero"/></clipPath><clipPath id="34a7dd4e40"><path d="M 37 23 L 53.804688 23 L 53.804688 39 L 37 39 Z M 37 23 " clip-rule="nonzero"/></clipPath></defs><g clip-path="url(#72a951ef9b)"><path fill="#ffffff" d="M 1.421875 0 L 223.460938 0 L 223.460938 55.511719 L 1.421875 55.511719 Z M 1.421875 0 " fill-opacity="1" fill-rule="nonzero"/><path fill="#ffffff" d="M 1.421875 0 L 223.460938 0 L 223.460938 55.511719 L 1.421875 55.511719 Z M 1.421875 0 " fill-opacity="1" fill-rule="nonzero"/></g><g fill="#000000" fill-opacity="1"><g transform="translate(0.791257, 36.308147)"><g><path d="M 7.625 -21.078125 L 7.625 -12.015625 L 20.46875 -12.015625 L 20.46875 -21.078125 L 23.71875 -21.078125 L 23.71875 0 L 20.46875 0 L 20.46875 -8.875 L 7.625 -8.875 L 7.625 0 L 4.359375 0 L 4.359375 -21.078125 Z M 7.625 -21.078125 "/></g></g><g transform="translate(28.883998, 36.308147)"><g><path d="M 21.53125 -7.921875 C 21.53125 -6.316406 21.125 -4.894531 20.3125 -3.65625 C 19.5 -2.425781 18.390625 -1.457031 16.984375 -0.75 C 15.578125 -0.0507812 13.960938 0.296875 12.140625 0.296875 C 10.304688 0.296875 8.679688 -0.0507812 7.265625 -0.75 C 5.859375 -1.457031 4.742188 -2.425781 3.921875 -3.65625 C 3.109375 -4.894531 2.703125 -6.316406 2.703125 -7.921875 C 2.703125 -9.523438 3.109375 -10.941406 3.921875 -12.171875 C 4.742188 -13.410156 5.859375 -14.378906 7.265625 -15.078125 C 8.679688 -15.785156 10.304688 -16.140625 12.140625 -16.140625 C 13.960938 -16.140625 15.578125 -15.785156 16.984375 -15.078125 C 18.390625 -14.378906 19.5 -13.410156 20.3125 -12.171875 C 21.125 -10.941406 21.53125 -9.523438 21.53125 -7.921875 Z M 18.359375 -7.921875 C 18.378906 -8.984375 18.113281 -9.921875 17.5625 -10.734375 C 17.007812 -11.546875 16.257812 -12.175781 15.3125 -12.625 C 14.375 -13.082031 13.316406 -13.3125 12.140625 -13.3125 C 10.972656 -13.3125 9.90625 -13.082031 8.9375 -12.625 C 7.976562 -12.175781 7.222656 -11.546875 6.671875 -10.734375 C 6.117188 -9.921875 5.851562 -8.984375 5.875 -7.921875 C 5.851562 -6.878906 6.117188 -5.953125 6.671875 -5.140625 C 7.222656 -4.328125 7.976562 -3.6875 8.9375 -3.21875 C 9.90625 -2.757812 10.972656 -2.53125 12.140625 -2.53125 C 13.316406 -2.53125 14.378906 -2.757812 15.328125 -3.21875 C 16.285156 -3.6875 17.035156 -4.328125 17.578125 -5.140625 C 18.117188 -5.953125 18.378906 -6.878906 18.359375 -7.921875 Z M 18.359375 -7.921875 "/></g></g><g transform="translate(53.122643, 36.308147)"><g><path d="M 13.703125 -16.078125 C 15.066406 -16.078125 16.222656 -15.789062 17.171875 -15.21875 C 18.128906 -14.644531 18.800781 -13.804688 19.1875 -12.703125 C 19.5625 -13.179688 20.078125 -13.679688 20.734375 -14.203125 C 21.398438 -14.734375 22.164062 -15.175781 23.03125 -15.53125 C 23.894531 -15.894531 24.828125 -16.078125 25.828125 -16.078125 C 27.398438 -16.078125 28.628906 -15.769531 29.515625 -15.15625 C 30.410156 -14.539062 31.039062 -13.722656 31.40625 -12.703125 C 31.78125 -11.679688 31.96875 -10.546875 31.96875 -9.296875 L 31.96875 0 L 28.84375 0 L 28.84375 -8.96875 C 28.84375 -10.238281 28.5625 -11.265625 28 -12.046875 C 27.4375 -12.828125 26.472656 -13.21875 25.109375 -13.21875 C 24.066406 -13.21875 23.132812 -13 22.3125 -12.5625 C 21.488281 -12.132812 20.835938 -11.554688 20.359375 -10.828125 C 19.890625 -10.109375 19.65625 -9.3125 19.65625 -8.4375 L 19.65625 0 L 16.53125 0 L 16.53125 -9.03125 C 16.53125 -10.257812 16.207031 -11.265625 15.5625 -12.046875 C 14.925781 -12.828125 13.875 -13.21875 12.40625 -13.21875 C 11.4375 -13.21875 10.578125 -12.988281 9.828125 -12.53125 C 9.078125 -12.082031 8.488281 -11.519531 8.0625 -10.84375 C 7.644531 -10.175781 7.4375 -9.515625 7.4375 -8.859375 L 7.4375 0 L 4.3125 0 L 4.3125 -15.8125 L 7.4375 -15.8125 L 7.4375 -13.25 C 8.039062 -13.96875 8.882812 -14.617188 9.96875 -15.203125 C 11.050781 -15.785156 12.296875 -16.078125 13.703125 -16.078125 Z M 13.703125 -16.078125 "/></g></g></g><g fill="#000000" fill-opacity="1"><g transform="translate(89.345115, 36.308147)"><g><path d="M 19.78125 -2.078125 L 19.75 -2.078125 C 19.226562 -1.671875 18.570312 -1.28125 17.78125 -0.90625 C 16.988281 -0.539062 16.113281 -0.25 15.15625 -0.03125 C 14.207031 0.1875 13.238281 0.296875 12.25 0.296875 C 10.320312 0.296875 8.628906 -0.046875 7.171875 -0.734375 C 5.722656 -1.429688 4.59375 -2.382812 3.78125 -3.59375 C 2.96875 -4.8125 2.5625 -6.191406 2.5625 -7.734375 C 2.5625 -9.503906 2.992188 -11.015625 3.859375 -12.265625 C 4.722656 -13.523438 5.863281 -14.488281 7.28125 -15.15625 C 8.707031 -15.832031 10.273438 -16.171875 11.984375 -16.171875 C 13.546875 -16.171875 14.96875 -15.84375 16.25 -15.1875 C 17.539062 -14.539062 18.566406 -13.644531 19.328125 -12.5 C 20.085938 -11.351562 20.46875 -10.015625 20.46875 -8.484375 L 20.4375 -6.984375 L 5.71875 -6.984375 C 5.957031 -5.617188 6.707031 -4.539062 7.96875 -3.75 C 9.238281 -2.957031 10.816406 -2.5625 12.703125 -2.5625 C 14.109375 -2.5625 15.257812 -2.769531 16.15625 -3.1875 C 17.050781 -3.613281 17.78125 -4.015625 18.34375 -4.390625 Z M 11.984375 -13.3125 C 10.441406 -13.3125 9.101562 -13.019531 7.96875 -12.4375 C 6.832031 -11.851562 6.101562 -10.859375 5.78125 -9.453125 L 17.3125 -9.453125 L 17.3125 -9.84375 C 17.226562 -10.53125 16.925781 -11.132812 16.40625 -11.65625 C 15.882812 -12.175781 15.234375 -12.582031 14.453125 -12.875 C 13.671875 -13.164062 12.847656 -13.3125 11.984375 -13.3125 Z M 11.984375 -13.3125 "/></g></g></g><g fill="#000000" fill-opacity="1"><g transform="translate(112.800894, 36.308147)"><g><path d="M 4.9375 -6.4375 C 5.976562 -5.21875 7.066406 -4.273438 8.203125 -3.609375 C 9.335938 -2.953125 10.726562 -2.625 12.375 -2.625 C 13.257812 -2.625 14.109375 -2.738281 14.921875 -2.96875 C 15.734375 -3.195312 16.40625 -3.546875 16.9375 -4.015625 C 17.46875 -4.492188 17.734375 -5.082031 17.734375 -5.78125 C 17.734375 -6.78125 17.203125 -7.5 16.140625 -7.9375 C 15.078125 -8.382812 13.582031 -8.75 11.65625 -9.03125 C 9.28125 -9.394531 7.390625 -10.0625 5.984375 -11.03125 C 4.585938 -12.007812 3.890625 -13.429688 3.890625 -15.296875 C 3.890625 -16.554688 4.265625 -17.640625 5.015625 -18.546875 C 5.765625 -19.453125 6.78125 -20.148438 8.0625 -20.640625 C 9.351562 -21.128906 10.769531 -21.375 12.3125 -21.375 C 14.238281 -21.375 15.90625 -21.050781 17.3125 -20.40625 C 18.71875 -19.769531 19.820312 -18.859375 20.625 -17.671875 L 18.390625 -15.359375 C 17.734375 -16.273438 16.878906 -17.019531 15.828125 -17.59375 C 14.785156 -18.164062 13.582031 -18.453125 12.21875 -18.453125 C 10.8125 -18.453125 9.632812 -18.195312 8.6875 -17.6875 C 7.75 -17.175781 7.28125 -16.457031 7.28125 -15.53125 C 7.28125 -14.445312 7.785156 -13.679688 8.796875 -13.234375 C 9.816406 -12.785156 11.148438 -12.429688 12.796875 -12.171875 C 13.878906 -12.003906 14.914062 -11.789062 15.90625 -11.53125 C 16.90625 -11.269531 17.796875 -10.921875 18.578125 -10.484375 C 19.359375 -10.054688 19.976562 -9.507812 20.4375 -8.84375 C 20.90625 -8.1875 21.140625 -7.367188 21.140625 -6.390625 C 21.140625 -5.035156 20.773438 -3.859375 20.046875 -2.859375 C 19.328125 -1.859375 18.300781 -1.082031 16.96875 -0.53125 C 15.632812 0.0195312 14.050781 0.296875 12.21875 0.296875 C 10.269531 0.296875 8.515625 -0.0195312 6.953125 -0.65625 C 5.390625 -1.300781 4.015625 -2.347656 2.828125 -3.796875 Z M 4.9375 -6.4375 "/></g></g></g><g fill="#000000" fill-opacity="1"><g transform="translate(136.828762, 36.308147)"><g><path d="M 13.9375 -16.140625 C 15.46875 -16.140625 16.703125 -15.835938 17.640625 -15.234375 C 18.585938 -14.628906 19.28125 -13.820312 19.71875 -12.8125 C 20.164062 -11.800781 20.390625 -10.679688 20.390625 -9.453125 L 20.390625 0 L 17.28125 0 L 17.28125 -9.09375 C 17.28125 -10.332031 16.894531 -11.351562 16.125 -12.15625 C 15.351562 -12.96875 14.285156 -13.363281 12.921875 -13.34375 C 11.929688 -13.34375 11.046875 -13.109375 10.265625 -12.640625 C 9.484375 -12.179688 8.867188 -11.613281 8.421875 -10.9375 C 7.984375 -10.269531 7.765625 -9.59375 7.765625 -8.90625 L 7.765625 0 L 4.671875 0 L 4.671875 -22.28125 L 7.765625 -22.28125 L 7.765625 -13.21875 C 8.390625 -14 9.25 -14.679688 10.34375 -15.265625 C 11.4375 -15.847656 12.632812 -16.140625 13.9375 -16.140625 Z M 13.9375 -16.140625 "/></g></g></g><g fill="#000000" fill-opacity="1"><g transform="translate(161.820158, 36.308147)"><g><path d="M 6.40625 -19.234375 C 5.707031 -19.234375 5.1875 -19.414062 4.84375 -19.78125 C 4.5 -20.144531 4.328125 -20.617188 4.328125 -21.203125 C 4.328125 -21.703125 4.5 -22.148438 4.84375 -22.546875 C 5.1875 -22.953125 5.707031 -23.15625 6.40625 -23.15625 C 7.113281 -23.15625 7.632812 -22.972656 7.96875 -22.609375 C 8.3125 -22.253906 8.484375 -21.785156 8.484375 -21.203125 C 8.484375 -20.691406 8.3125 -20.234375 7.96875 -19.828125 C 7.632812 -19.429688 7.113281 -19.234375 6.40625 -19.234375 Z M 7.984375 0 L 4.875 0 L 4.875 -15.8125 L 7.984375 -15.8125 Z M 7.984375 0 "/></g></g></g><g fill="#000000" fill-opacity="1"><g transform="translate(174.586859, 36.308147)"><g><path d="M 13.796875 -16.140625 C 15.335938 -16.140625 16.59375 -15.835938 17.5625 -15.234375 C 18.539062 -14.628906 19.253906 -13.820312 19.703125 -12.8125 C 20.160156 -11.800781 20.390625 -10.679688 20.390625 -9.453125 L 20.390625 0 L 17.28125 0 L 17.28125 -9.09375 C 17.28125 -10.320312 16.894531 -11.335938 16.125 -12.140625 C 15.351562 -12.941406 14.285156 -13.320312 12.921875 -13.28125 C 11.929688 -13.28125 11.046875 -13.054688 10.265625 -12.609375 C 9.484375 -12.171875 8.867188 -11.613281 8.421875 -10.9375 C 7.984375 -10.269531 7.765625 -9.59375 7.765625 -8.90625 L 7.765625 0 L 4.671875 0 L 4.671875 -15.8125 L 7.765625 -15.8125 L 7.765625 -13.0625 C 8.410156 -13.882812 9.242188 -14.601562 10.265625 -15.21875 C 11.285156 -15.832031 12.460938 -16.140625 13.796875 -16.140625 Z M 13.796875 -16.140625 "/></g></g></g><g fill="#000000" fill-opacity="1"><g transform="translate(199.578247, 36.308147)"><g><path d="M 19.78125 -2.078125 L 19.75 -2.078125 C 19.226562 -1.671875 18.570312 -1.28125 17.78125 -0.90625 C 16.988281 -0.539062 16.113281 -0.25 15.15625 -0.03125 C 14.207031 0.1875 13.238281 0.296875 12.25 0.296875 C 10.320312 0.296875 8.628906 -0.046875 7.171875 -0.734375 C 5.722656 -1.429688 4.59375 -2.382812 3.78125 -3.59375 C 2.96875 -4.8125 2.5625 -6.191406 2.5625 -7.734375 C 2.5625 -9.503906 2.992188 -11.015625 3.859375 -12.265625 C 4.722656 -13.523438 5.863281 -14.488281 7.28125 -15.15625 C 8.707031 -15.832031 10.273438 -16.171875 11.984375 -16.171875 C 13.546875 -16.171875 14.96875 -15.84375 16.25 -15.1875 C 17.539062 -14.539062 18.566406 -13.644531 19.328125 -12.5 C 20.085938 -11.351562 20.46875 -10.015625 20.46875 -8.484375 L 20.4375 -6.984375 L 5.71875 -6.984375 C 5.957031 -5.617188 6.707031 -4.539062 7.96875 -3.75 C 9.238281 -2.957031 10.816406 -2.5625 12.703125 -2.5625 C 14.109375 -2.5625 15.257812 -2.769531 16.15625 -3.1875 C 17.050781 -3.613281 17.78125 -4.015625 18.34375 -4.390625 Z M 11.984375 -13.3125 C 10.441406 -13.3125 9.101562 -13.019531 7.96875 -12.4375 C 6.832031 -11.851562 6.101562 -10.859375 5.78125 -9.453125 L 17.3125 -9.453125 L 17.3125 -9.84375 C 17.226562 -10.53125 16.925781 -11.132812 16.40625 -11.65625 C 15.882812 -12.175781 15.234375 -12.582031 14.453125 -12.875 C 13.671875 -13.164062 12.847656 -13.3125 11.984375 -13.3125 Z M 11.984375 -13.3125 "/></g></g></g><path fill="#ffde59" d="M 175.222656 11.554688 C 175.222656 11.984375 175.179688 12.40625 175.097656 12.820312 C 175.011719 13.238281 174.890625 13.644531 174.726562 14.039062 C 174.5625 14.433594 174.363281 14.808594 174.128906 15.160156 C 173.890625 15.515625 173.621094 15.84375 173.320312 16.144531 C 173.019531 16.445312 172.691406 16.714844 172.335938 16.953125 C 171.984375 17.1875 171.609375 17.386719 171.214844 17.550781 C 170.820312 17.714844 170.417969 17.835938 170 17.921875 C 169.582031 18.003906 169.160156 18.046875 168.734375 18.046875 C 168.304688 18.046875 167.882812 18.003906 167.46875 17.921875 C 167.050781 17.835938 166.644531 17.714844 166.25 17.550781 C 165.855469 17.386719 165.480469 17.1875 165.128906 16.953125 C 164.773438 16.714844 164.445312 16.445312 164.144531 16.144531 C 163.84375 15.84375 163.574219 15.515625 163.335938 15.160156 C 163.101562 14.808594 162.902344 14.433594 162.738281 14.039062 C 162.574219 13.644531 162.453125 13.238281 162.367188 12.820312 C 162.285156 12.40625 162.242188 11.984375 162.242188 11.554688 C 162.242188 11.128906 162.285156 10.707031 162.367188 10.289062 C 162.453125 9.871094 162.574219 9.46875 162.738281 9.074219 C 162.902344 8.679688 163.101562 8.304688 163.335938 7.953125 C 163.574219 7.597656 163.84375 7.269531 164.144531 6.96875 C 164.445312 6.667969 164.773438 6.398438 165.128906 6.160156 C 165.480469 5.925781 165.855469 5.726562 166.25 5.5625 C 166.644531 5.398438 167.050781 5.277344 167.46875 5.191406 C 167.882812 5.109375 168.304688 5.066406 168.734375 5.066406 C 169.160156 5.066406 169.582031 5.109375 170 5.191406 C 170.417969 5.277344 170.820312 5.398438 171.214844 5.5625 C 171.609375 5.726562 171.984375 5.925781 172.335938 6.160156 C 172.691406 6.398438 173.019531 6.667969 173.320312 6.96875 C 173.621094 7.269531 173.890625 7.597656 174.128906 7.953125 C 174.363281 8.304688 174.5625 8.679688 174.726562 9.074219 C 174.890625 9.46875 175.011719 9.871094 175.097656 10.289062 C 175.179688 10.707031 175.222656 11.128906 175.222656 11.554688 Z M 175.222656 11.554688 " fill-opacity="1" fill-rule="nonzero"/><g clip-path="url(#8f8a076987)"><path fill="#ffde59" d="M 167.453125 4.246094 L 168.734375 2.027344 L 170.011719 4.246094 Z M 167.453125 4.246094 " fill-opacity="1" fill-rule="nonzero"/></g><path fill="#ffde59" d="M 163.96875 5.867188 L 163.96875 3.304688 L 166.1875 4.585938 Z M 163.96875 5.867188 " fill-opacity="1" fill-rule="nonzero"/><path fill="#ffde59" d="M 161.761719 9.011719 L 160.480469 6.792969 L 163.042969 6.792969 Z M 161.761719 9.011719 " fill-opacity="1" fill-rule="nonzero"/><g clip-path="url(#3f41168e65)"><path fill="#ffde59" d="M 161.421875 12.835938 L 159.203125 11.558594 L 161.421875 10.277344 Z M 161.421875 12.835938 " fill-opacity="1" fill-rule="nonzero"/></g><path fill="#ffde59" d="M 163.042969 16.320312 L 160.480469 16.320312 L 161.761719 14.101562 Z M 163.042969 16.320312 " fill-opacity="1" fill-rule="nonzero"/><path fill="#ffde59" d="M 166.1875 18.527344 L 163.96875 19.808594 L 163.96875 17.246094 Z M 166.1875 18.527344 " fill-opacity="1" fill-rule="nonzero"/><g clip-path="url(#e9f1de3786)"><path fill="#ffde59" d="M 170.011719 18.867188 L 168.734375 21.085938 L 167.453125 18.867188 Z M 170.011719 18.867188 " fill-opacity="1" fill-rule="nonzero"/></g><path fill="#ffde59" d="M 173.496094 17.246094 L 173.5 19.808594 L 171.277344 18.527344 Z M 173.496094 17.246094 " fill-opacity="1" fill-rule="nonzero"/><path fill="#ffde59" d="M 175.703125 14.101562 L 176.988281 16.320312 L 174.425781 16.320312 Z M 175.703125 14.101562 " fill-opacity="1" fill-rule="nonzero"/><g clip-path="url(#5b63649534)"><path fill="#ffde59" d="M 176.042969 10.277344 L 178.261719 11.554688 L 176.042969 12.835938 Z M 176.042969 10.277344 " fill-opacity="1" fill-rule="nonzero"/></g><path fill="#ffde59" d="M 174.425781 6.792969 L 176.984375 6.789062 L 175.703125 9.011719 Z M 174.425781 6.792969 " fill-opacity="1" fill-rule="nonzero"/><path fill="#ffde59" d="M 171.277344 4.585938 L 173.496094 3.300781 L 173.496094 5.867188 Z M 171.277344 4.585938 " fill-opacity="1" fill-rule="nonzero"/><g clip-path="url(#452cd29648)"><path fill="#32afcc" d="M 53.328125 30.203125 C 52.753906 32.226562 51.675781 34.140625 50.082031 35.730469 C 48.488281 37.324219 46.578125 38.40625 44.550781 38.976562 C 40.269531 40.183594 35.480469 39.101562 32.109375 35.730469 C 27.277344 30.898438 27.152344 23.136719 31.738281 18.152344 C 31.859375 18.019531 31.984375 17.890625 32.109375 17.761719 C 32.238281 17.632812 32.367188 17.511719 32.5 17.390625 C 37.484375 12.804688 45.246094 12.925781 50.082031 17.761719 C 53.449219 21.132812 54.53125 25.921875 53.328125 30.203125 " fill-opacity="1" fill-rule="nonzero"/></g><g clip-path="url(#34a7dd4e40)"><path fill="#5ad4ff" d="M 53.328125 30.203125 C 52.753906 32.226562 51.675781 34.140625 50.082031 35.730469 C 48.488281 37.324219 46.578125 38.40625 44.550781 38.976562 L 37.449219 29.78125 L 44.128906 23.097656 L 53.328125 30.203125 " fill-opacity="1" fill-rule="nonzero"/></g><path fill="#ffffff" d="M 36.820312 21.707031 L 36.054688 22.46875 L 31.738281 18.152344 C 31.859375 18.019531 31.984375 17.890625 32.109375 17.761719 C 32.238281 17.632812 32.367188 17.511719 32.5 17.390625 L 36.820312 21.707031 " fill-opacity="1" fill-rule="nonzero"/><path fill="#ffffff" d="M 41.886719 20.855469 L 44.128906 23.097656 L 37.449219 29.78125 L 35.203125 27.535156 L 41.886719 20.855469 " fill-opacity="1" fill-rule="nonzero"/><path fill="#ffffff" d="M 35.226562 22.265625 L 36.613281 20.878906 L 39.238281 23.503906 L 37.851562 24.886719 L 35.226562 22.265625 " fill-opacity="1" fill-rule="nonzero"/><path fill="#ffffff" d="M 49.109375 32.28125 L 48.40625 31.207031 L 47.136719 31.402344 L 48.214844 30.703125 L 48.015625 29.433594 L 48.71875 30.507812 L 49.988281 30.308594 L 48.910156 31.011719 L 49.109375 32.28125 " fill-opacity="1" fill-rule="nonzero"/><path fill="#ffffff" d="M 43.027344 31.683594 L 42.042969 31.550781 L 41.519531 32.394531 L 41.648438 31.410156 L 40.804688 30.886719 L 41.792969 31.019531 L 42.316406 30.175781 L 42.183594 31.160156 L 43.027344 31.683594 " fill-opacity="1" fill-rule="nonzero"/><path fill="#ffffff" d="M 45.199219 26 L 44.613281 25.921875 L 44.300781 26.425781 L 44.378906 25.835938 L 43.875 25.523438 L 44.464844 25.601562 L 44.777344 25.101562 L 44.699219 25.6875 L 45.199219 26 " fill-opacity="1" fill-rule="nonzero"/><path fill="#ffffff" d="M 45.917969 36.371094 L 45.332031 36.292969 L 45.019531 36.796875 L 45.097656 36.210938 L 44.59375 35.898438 L 45.179688 35.976562 L 45.496094 35.472656 L 45.414062 36.058594 L 45.917969 36.371094 " fill-opacity="1" fill-rule="nonzero"/><g fill="#000000" fill-opacity="1"><g transform="translate(70.30872, 52.947578)"><g><path d="M 2.796875 -3.65625 C 3.390625 -2.957031 4.003906 -2.421875 4.640625 -2.046875 C 5.285156 -1.671875 6.078125 -1.484375 7.015625 -1.484375 C 7.515625 -1.484375 7.992188 -1.546875 8.453125 -1.671875 C 8.910156 -1.804688 9.289062 -2.003906 9.59375 -2.265625 C 9.894531 -2.535156 10.046875 -2.875 10.046875 -3.28125 C 10.046875 -3.84375 9.742188 -4.25 9.140625 -4.5 C 8.535156 -4.75 7.691406 -4.957031 6.609375 -5.125 C 5.265625 -5.320312 4.191406 -5.695312 3.390625 -6.25 C 2.597656 -6.800781 2.203125 -7.609375 2.203125 -8.671875 C 2.203125 -9.390625 2.414062 -10.003906 2.84375 -10.515625 C 3.269531 -11.023438 3.847656 -11.414062 4.578125 -11.6875 C 5.304688 -11.96875 6.109375 -12.109375 6.984375 -12.109375 C 8.066406 -12.109375 9.003906 -11.925781 9.796875 -11.5625 C 10.597656 -11.195312 11.226562 -10.679688 11.6875 -10.015625 L 10.421875 -8.703125 C 10.046875 -9.222656 9.5625 -9.644531 8.96875 -9.96875 C 8.382812 -10.289062 7.703125 -10.453125 6.921875 -10.453125 C 6.128906 -10.453125 5.460938 -10.304688 4.921875 -10.015625 C 4.390625 -9.734375 4.125 -9.328125 4.125 -8.796875 C 4.125 -8.191406 4.410156 -7.757812 4.984375 -7.5 C 5.566406 -7.238281 6.320312 -7.035156 7.25 -6.890625 C 7.863281 -6.796875 8.453125 -6.675781 9.015625 -6.53125 C 9.578125 -6.382812 10.078125 -6.1875 10.515625 -5.9375 C 10.960938 -5.695312 11.316406 -5.390625 11.578125 -5.015625 C 11.847656 -4.640625 11.984375 -4.175781 11.984375 -3.625 C 11.984375 -2.851562 11.773438 -2.179688 11.359375 -1.609375 C 10.953125 -1.046875 10.367188 -0.609375 9.609375 -0.296875 C 8.859375 0.015625 7.960938 0.171875 6.921875 0.171875 C 5.816406 0.171875 4.820312 -0.0078125 3.9375 -0.375 C 3.050781 -0.738281 2.273438 -1.332031 1.609375 -2.15625 Z M 2.796875 -3.65625 "/></g></g></g><g fill="#000000" fill-opacity="1"><g transform="translate(83.924235, 52.947578)"><g><path d="M 12.203125 -4.484375 C 12.203125 -3.578125 11.96875 -2.773438 11.5 -2.078125 C 11.039062 -1.378906 10.410156 -0.828125 9.609375 -0.421875 C 8.816406 -0.0234375 7.90625 0.171875 6.875 0.171875 C 5.84375 0.171875 4.925781 -0.0234375 4.125 -0.421875 C 3.320312 -0.828125 2.6875 -1.378906 2.21875 -2.078125 C 1.757812 -2.773438 1.53125 -3.578125 1.53125 -4.484375 C 1.53125 -5.398438 1.757812 -6.207031 2.21875 -6.90625 C 2.6875 -7.601562 3.320312 -8.148438 4.125 -8.546875 C 4.925781 -8.941406 5.84375 -9.140625 6.875 -9.140625 C 7.90625 -9.140625 8.816406 -8.941406 9.609375 -8.546875 C 10.410156 -8.148438 11.039062 -7.601562 11.5 -6.90625 C 11.96875 -6.207031 12.203125 -5.398438 12.203125 -4.484375 Z M 10.40625 -4.484375 C 10.414062 -5.085938 10.265625 -5.617188 9.953125 -6.078125 C 9.640625 -6.546875 9.21875 -6.90625 8.6875 -7.15625 C 8.15625 -7.414062 7.550781 -7.546875 6.875 -7.546875 C 6.21875 -7.546875 5.613281 -7.414062 5.0625 -7.15625 C 4.519531 -6.90625 4.09375 -6.546875 3.78125 -6.078125 C 3.46875 -5.617188 3.316406 -5.085938 3.328125 -4.484375 C 3.316406 -3.890625 3.46875 -3.363281 3.78125 -2.90625 C 4.09375 -2.445312 4.519531 -2.085938 5.0625 -1.828125 C 5.613281 -1.566406 6.21875 -1.4375 6.875 -1.4375 C 7.550781 -1.4375 8.15625 -1.566406 8.6875 -1.828125 C 9.226562 -2.085938 9.648438 -2.445312 9.953125 -2.90625 C 10.265625 -3.363281 10.414062 -3.890625 10.40625 -4.484375 Z M 10.40625 -4.484375 "/></g></g></g><g fill="#000000" fill-opacity="1"><g transform="translate(97.659184, 52.947578)"><g><path d="M 2.546875 0 L 2.546875 -12.625 L 4.296875 -12.625 L 4.296875 0 Z M 2.546875 0 "/></g></g></g><g fill="#000000" fill-opacity="1"><g transform="translate(104.535189, 52.947578)"><g><path d="M 9.703125 -4.234375 L 9.703125 -8.953125 L 11.46875 -8.953125 L 11.46875 0 L 9.703125 0 L 9.703125 -1.515625 C 9.398438 -1.085938 8.9375 -0.695312 8.3125 -0.34375 C 7.695312 0 6.953125 0.171875 6.078125 0.171875 C 4.992188 0.171875 4.117188 -0.195312 3.453125 -0.9375 C 2.785156 -1.675781 2.453125 -2.703125 2.453125 -4.015625 L 2.453125 -8.953125 L 4.21875 -8.953125 L 4.21875 -4.578125 C 4.21875 -3.617188 4.414062 -2.863281 4.8125 -2.3125 C 5.21875 -1.757812 5.878906 -1.484375 6.796875 -1.484375 C 7.316406 -1.484375 7.796875 -1.59375 8.234375 -1.8125 C 8.679688 -2.039062 9.035156 -2.359375 9.296875 -2.765625 C 9.566406 -3.171875 9.703125 -3.660156 9.703125 -4.234375 Z M 9.703125 -4.234375 "/></g></g></g><g fill="#000000" fill-opacity="1"><g transform="translate(118.45782, 52.947578)"><g><path d="M 5.59375 0 L 3.84375 0 L 3.84375 -7.25 L 1.40625 -7.25 L 1.40625 -8.953125 L 3.84375 -8.953125 L 3.84375 -11.53125 L 5.59375 -11.53125 L 5.59375 -8.953125 L 8.453125 -8.953125 L 8.453125 -7.25 L 5.59375 -7.25 Z M 5.59375 0 "/></g></g></g><g fill="#000000" fill-opacity="1"><g transform="translate(128.490305, 52.947578)"><g><path d="M 3.640625 -10.890625 C 3.242188 -10.890625 2.945312 -10.992188 2.75 -11.203125 C 2.5625 -11.410156 2.46875 -11.675781 2.46875 -12 C 2.46875 -12.289062 2.5625 -12.546875 2.75 -12.765625 C 2.945312 -12.992188 3.242188 -13.109375 3.640625 -13.109375 C 4.035156 -13.109375 4.328125 -13.003906 4.515625 -12.796875 C 4.710938 -12.597656 4.8125 -12.332031 4.8125 -12 C 4.8125 -11.71875 4.710938 -11.460938 4.515625 -11.234375 C 4.328125 -11.003906 4.035156 -10.890625 3.640625 -10.890625 Z M 4.53125 0 L 2.765625 0 L 2.765625 -8.953125 L 4.53125 -8.953125 Z M 4.53125 0 "/></g></g></g><g fill="#000000" fill-opacity="1"><g transform="translate(135.724613, 52.947578)"><g><path d="M 12.203125 -4.484375 C 12.203125 -3.578125 11.96875 -2.773438 11.5 -2.078125 C 11.039062 -1.378906 10.410156 -0.828125 9.609375 -0.421875 C 8.816406 -0.0234375 7.90625 0.171875 6.875 0.171875 C 5.84375 0.171875 4.925781 -0.0234375 4.125 -0.421875 C 3.320312 -0.828125 2.6875 -1.378906 2.21875 -2.078125 C 1.757812 -2.773438 1.53125 -3.578125 1.53125 -4.484375 C 1.53125 -5.398438 1.757812 -6.207031 2.21875 -6.90625 C 2.6875 -7.601562 3.320312 -8.148438 4.125 -8.546875 C 4.925781 -8.941406 5.84375 -9.140625 6.875 -9.140625 C 7.90625 -9.140625 8.816406 -8.941406 9.609375 -8.546875 C 10.410156 -8.148438 11.039062 -7.601562 11.5 -6.90625 C 11.96875 -6.207031 12.203125 -5.398438 12.203125 -4.484375 Z M 10.40625 -4.484375 C 10.414062 -5.085938 10.265625 -5.617188 9.953125 -6.078125 C 9.640625 -6.546875 9.21875 -6.90625 8.6875 -7.15625 C 8.15625 -7.414062 7.550781 -7.546875 6.875 -7.546875 C 6.21875 -7.546875 5.613281 -7.414062 5.0625 -7.15625 C 4.519531 -6.90625 4.09375 -6.546875 3.78125 -6.078125 C 3.46875 -5.617188 3.316406 -5.085938 3.328125 -4.484375 C 3.316406 -3.890625 3.46875 -3.363281 3.78125 -2.90625 C 4.09375 -2.445312 4.519531 -2.085938 5.0625 -1.828125 C 5.613281 -1.566406 6.21875 -1.4375 6.875 -1.4375 C 7.550781 -1.4375 8.15625 -1.566406 8.6875 -1.828125 C 9.226562 -2.085938 9.648438 -2.445312 9.953125 -2.90625 C 10.265625 -3.363281 10.414062 -3.890625 10.40625 -4.484375 Z M 10.40625 -4.484375 "/></g></g></g><g fill="#000000" fill-opacity="1"><g transform="translate(149.459562, 52.947578)"><g><path d="M 7.8125 -9.140625 C 8.6875 -9.140625 9.398438 -8.96875 9.953125 -8.625 C 10.503906 -8.289062 10.90625 -7.832031 11.15625 -7.25 C 11.414062 -6.675781 11.546875 -6.046875 11.546875 -5.359375 L 11.546875 0 L 9.796875 0 L 9.796875 -5.15625 C 9.796875 -5.84375 9.578125 -6.414062 9.140625 -6.875 C 8.703125 -7.332031 8.09375 -7.550781 7.3125 -7.53125 C 6.757812 -7.53125 6.257812 -7.40625 5.8125 -7.15625 C 5.375 -6.90625 5.03125 -6.585938 4.78125 -6.203125 C 4.53125 -5.816406 4.40625 -5.429688 4.40625 -5.046875 L 4.40625 0 L 2.640625 0 L 2.640625 -8.953125 L 4.40625 -8.953125 L 4.40625 -7.40625 C 4.769531 -7.875 5.238281 -8.28125 5.8125 -8.625 C 6.394531 -8.96875 7.0625 -9.140625 7.8125 -9.140625 Z M 7.8125 -9.140625 "/></g></g></g><g fill="#000000" fill-opacity="1"><g transform="translate(163.621062, 52.947578)"><g><path d="M 8.734375 -6.546875 C 8.328125 -6.878906 7.835938 -7.148438 7.265625 -7.359375 C 6.703125 -7.578125 6.171875 -7.6875 5.671875 -7.6875 C 5.347656 -7.6875 5.007812 -7.660156 4.65625 -7.609375 C 4.3125 -7.554688 4.015625 -7.453125 3.765625 -7.296875 C 3.523438 -7.140625 3.40625 -6.914062 3.40625 -6.625 C 3.414062 -6.363281 3.535156 -6.144531 3.765625 -5.96875 C 4.003906 -5.800781 4.316406 -5.660156 4.703125 -5.546875 C 5.097656 -5.441406 5.523438 -5.34375 5.984375 -5.25 C 6.441406 -5.175781 6.894531 -5.078125 7.34375 -4.953125 C 7.789062 -4.828125 8.191406 -4.671875 8.546875 -4.484375 C 8.910156 -4.296875 9.203125 -4.050781 9.421875 -3.75 C 9.640625 -3.445312 9.75 -3.070312 9.75 -2.625 C 9.75 -2.019531 9.566406 -1.507812 9.203125 -1.09375 C 8.847656 -0.6875 8.375 -0.375 7.78125 -0.15625 C 7.1875 0.0625 6.546875 0.171875 5.859375 0.171875 C 4.972656 0.171875 4.144531 0.0507812 3.375 -0.1875 C 2.613281 -0.4375 1.972656 -0.867188 1.453125 -1.484375 L 2.640625 -2.546875 C 3.023438 -2.160156 3.476562 -1.851562 4 -1.625 C 4.53125 -1.40625 5.128906 -1.296875 5.796875 -1.296875 C 6.109375 -1.296875 6.4375 -1.328125 6.78125 -1.390625 C 7.125 -1.453125 7.414062 -1.566406 7.65625 -1.734375 C 7.894531 -1.898438 8.015625 -2.128906 8.015625 -2.421875 C 8.015625 -2.679688 7.894531 -2.890625 7.65625 -3.046875 C 7.414062 -3.210938 7.097656 -3.34375 6.703125 -3.4375 C 6.304688 -3.53125 5.878906 -3.617188 5.421875 -3.703125 C 4.765625 -3.835938 4.148438 -4 3.578125 -4.1875 C 3.003906 -4.375 2.539062 -4.648438 2.1875 -5.015625 C 1.832031 -5.378906 1.65625 -5.890625 1.65625 -6.546875 C 1.65625 -7.085938 1.832031 -7.550781 2.1875 -7.9375 C 2.550781 -8.320312 3.03125 -8.617188 3.625 -8.828125 C 4.21875 -9.035156 4.878906 -9.140625 5.609375 -9.140625 C 6.066406 -9.140625 6.546875 -9.09375 7.046875 -9 C 7.554688 -8.90625 8.046875 -8.75 8.515625 -8.53125 C 8.984375 -8.320312 9.375 -8.050781 9.6875 -7.71875 Z M 8.734375 -6.546875 "/></g></g></g><g fill="#000000" fill-opacity="1"><g transform="translate(177.919117, 53.265902)"><g><path d="M 1.53125 -0.921875 L 3.375 -0.921875 L 3.375 0 L 0.4375 0 L 0.4375 -4.328125 L 1.53125 -4.328125 Z M 1.53125 -0.921875 "/></g></g></g><g fill="#000000" fill-opacity="1"><g transform="translate(181.384308, 53.265902)"><g><path d="M 1.53125 -0.921875 L 3.375 -0.921875 L 3.375 0 L 0.4375 0 L 0.4375 -4.328125 L 1.53125 -4.328125 Z M 1.53125 -0.921875 "/></g></g></g><g fill="#000000" fill-opacity="1"><g transform="translate(184.849499, 53.265902)"><g><path d="M 2.46875 -4.375 C 2.78125 -4.375 3.09375 -4.304688 3.40625 -4.171875 C 3.71875 -4.035156 3.984375 -3.859375 4.203125 -3.640625 L 3.5625 -2.890625 C 3.425781 -3.054688 3.257812 -3.191406 3.0625 -3.296875 C 2.863281 -3.398438 2.671875 -3.453125 2.484375 -3.453125 C 2.140625 -3.453125 1.851562 -3.328125 1.625 -3.078125 C 1.394531 -2.835938 1.28125 -2.539062 1.28125 -2.1875 C 1.28125 -1.820312 1.394531 -1.519531 1.625 -1.28125 C 1.851562 -1.039062 2.140625 -0.921875 2.484375 -0.921875 C 2.660156 -0.921875 2.847656 -0.960938 3.046875 -1.046875 C 3.242188 -1.140625 3.414062 -1.265625 3.5625 -1.421875 L 4.21875 -0.75 C 3.976562 -0.507812 3.695312 -0.316406 3.375 -0.171875 C 3.0625 -0.0234375 2.742188 0.046875 2.421875 0.046875 C 1.773438 0.046875 1.234375 -0.160156 0.796875 -0.578125 C 0.367188 -1.003906 0.15625 -1.535156 0.15625 -2.171875 C 0.15625 -2.796875 0.375 -3.316406 0.8125 -3.734375 C 1.25 -4.160156 1.800781 -4.375 2.46875 -4.375 Z M 2.46875 -4.375 "/></g></g></g></svg>