<svg xmlns="http://www.w3.org/2000/svg" xmlns:xlink="http://www.w3.org/1999/xlink" width="325" zoomAndPan="magnify" viewBox="0 0 243.75 56.249996" height="75" preserveAspectRatio="xMidYMid meet" version="1.0"><defs><g/><clipPath id="06ea68150c"><path d="M 1.480469 0 L 242.023438 0 L 242.023438 55.511719 L 1.480469 55.511719 Z M 1.480469 0 " clip-rule="nonzero"/></clipPath><clipPath id="819affe3be"><path d="M 167 7.796875 L 171 7.796875 L 171 10 L 167 10 Z M 167 7.796875 " clip-rule="nonzero"/></clipPath><clipPath id="b1a3ed7640"><path d="M 159.613281 15 L 162 15 L 162 19 L 159.613281 19 Z M 159.613281 15 " clip-rule="nonzero"/></clipPath><clipPath id="09de049d44"><path d="M 167 24 L 171 24 L 171 26.246094 L 167 26.246094 Z M 167 24 " clip-rule="nonzero"/></clipPath><clipPath id="971e1cf99a"><path d="M 175 15 L 178.0625 15 L 178.0625 19 L 175 19 Z M 175 15 " clip-rule="nonzero"/></clipPath><clipPath id="a2cddb255b"><path d="M 33.25 19.761719 L 57.847656 19.761719 L 57.847656 44.363281 L 33.25 44.363281 Z M 33.25 19.761719 " clip-rule="nonzero"/></clipPath><clipPath id="29803051e2"><path d="M 42 28 L 57.847656 28 L 57.847656 44 L 42 44 Z M 42 28 " clip-rule="nonzero"/></clipPath></defs><g clip-path="url(#06ea68150c)"><path fill="#ffffff" d="M 1.480469 0 L 242.269531 0 L 242.269531 62.976562 L 1.480469 62.976562 Z M 1.480469 0 " fill-opacity="1" fill-rule="nonzero"/><path fill="#ffffff" d="M 1.480469 0 L 242.269531 0 L 242.269531 55.566406 L 1.480469 55.566406 Z M 1.480469 0 " fill-opacity="1" fill-rule="nonzero"/><path fill="#ffffff" d="M 1.480469 0 L 242.269531 0 L 242.269531 55.566406 L 1.480469 55.566406 Z M 1.480469 0 " fill-opacity="1" fill-rule="nonzero"/></g><g fill="#000000" fill-opacity="1"><g transform="translate(6.543516, 41.317813)"><g><path d="M 7.375 -20.40625 L 7.375 -11.625 L 19.8125 -11.625 L 19.8125 -20.40625 L 22.96875 -20.40625 L 22.96875 0 L 19.8125 0 L 19.8125 -8.59375 L 7.375 -8.59375 L 7.375 0 L 4.21875 0 L 4.21875 -20.40625 Z M 7.375 -20.40625 "/></g></g><g transform="translate(33.736158, 41.317813)"><g><path d="M 20.828125 -7.65625 C 20.828125 -6.101562 20.429688 -4.726562 19.640625 -3.53125 C 18.859375 -2.34375 17.785156 -1.40625 16.421875 -0.71875 C 15.066406 -0.0390625 13.507812 0.296875 11.75 0.296875 C 9.976562 0.296875 8.40625 -0.0390625 7.03125 -0.71875 C 5.664062 -1.40625 4.585938 -2.34375 3.796875 -3.53125 C 3.015625 -4.726562 2.625 -6.101562 2.625 -7.65625 C 2.625 -9.21875 3.015625 -10.59375 3.796875 -11.78125 C 4.585938 -12.976562 5.664062 -13.914062 7.03125 -14.59375 C 8.40625 -15.28125 9.976562 -15.625 11.75 -15.625 C 13.507812 -15.625 15.066406 -15.28125 16.421875 -14.59375 C 17.785156 -13.914062 18.859375 -12.976562 19.640625 -11.78125 C 20.429688 -10.59375 20.828125 -9.21875 20.828125 -7.65625 Z M 17.78125 -7.65625 C 17.800781 -8.6875 17.539062 -9.59375 17 -10.375 C 16.46875 -11.164062 15.742188 -11.78125 14.828125 -12.21875 C 13.921875 -12.65625 12.894531 -12.875 11.75 -12.875 C 10.613281 -12.875 9.578125 -12.65625 8.640625 -12.21875 C 7.710938 -11.78125 6.984375 -11.164062 6.453125 -10.375 C 5.921875 -9.59375 5.664062 -8.6875 5.6875 -7.65625 C 5.664062 -6.65625 5.921875 -5.757812 6.453125 -4.96875 C 6.984375 -4.175781 7.710938 -3.554688 8.640625 -3.109375 C 9.578125 -2.671875 10.613281 -2.453125 11.75 -2.453125 C 12.894531 -2.453125 13.925781 -2.671875 14.84375 -3.109375 C 15.769531 -3.554688 16.492188 -4.175781 17.015625 -4.96875 C 17.546875 -5.757812 17.800781 -6.65625 17.78125 -7.65625 Z M 17.78125 -7.65625 "/></g></g><g transform="translate(57.19819, 41.317813)"><g><path d="M 13.265625 -15.5625 C 14.578125 -15.5625 15.695312 -15.285156 16.625 -14.734375 C 17.550781 -14.179688 18.195312 -13.367188 18.5625 -12.296875 C 18.925781 -12.765625 19.429688 -13.25 20.078125 -13.75 C 20.722656 -14.257812 21.460938 -14.6875 22.296875 -15.03125 C 23.128906 -15.382812 24.03125 -15.5625 25 -15.5625 C 26.519531 -15.5625 27.710938 -15.265625 28.578125 -14.671875 C 29.441406 -14.078125 30.050781 -13.285156 30.40625 -12.296875 C 30.769531 -11.304688 30.953125 -10.207031 30.953125 -9 L 30.953125 0 L 27.921875 0 L 27.921875 -8.6875 C 27.921875 -9.90625 27.644531 -10.894531 27.09375 -11.65625 C 26.550781 -12.414062 25.617188 -12.796875 24.296875 -12.796875 C 23.285156 -12.796875 22.382812 -12.585938 21.59375 -12.171875 C 20.800781 -11.753906 20.175781 -11.191406 19.71875 -10.484375 C 19.257812 -9.785156 19.03125 -9.007812 19.03125 -8.15625 L 19.03125 0 L 16 0 L 16 -8.75 C 16 -9.925781 15.6875 -10.894531 15.0625 -11.65625 C 14.445312 -12.414062 13.425781 -12.796875 12 -12.796875 C 11.070312 -12.796875 10.242188 -12.578125 9.515625 -12.140625 C 8.785156 -11.703125 8.21875 -11.15625 7.8125 -10.5 C 7.40625 -9.851562 7.203125 -9.207031 7.203125 -8.5625 L 7.203125 0 L 4.171875 0 L 4.171875 -15.296875 L 7.203125 -15.296875 L 7.203125 -12.828125 C 7.785156 -13.523438 8.597656 -14.15625 9.640625 -14.71875 C 10.691406 -15.28125 11.898438 -15.5625 13.265625 -15.5625 Z M 13.265625 -15.5625 "/></g></g></g><g fill="#000000" fill-opacity="1"><g transform="translate(92.260084, 41.317813)"><g><path d="M 19.140625 -2.015625 L 19.109375 -2.015625 C 18.609375 -1.617188 17.972656 -1.238281 17.203125 -0.875 C 16.441406 -0.519531 15.597656 -0.234375 14.671875 -0.015625 C 13.742188 0.191406 12.804688 0.296875 11.859375 0.296875 C 9.992188 0.296875 8.359375 -0.0351562 6.953125 -0.703125 C 5.546875 -1.378906 4.445312 -2.304688 3.65625 -3.484375 C 2.875 -4.660156 2.484375 -5.992188 2.484375 -7.484375 C 2.484375 -9.191406 2.898438 -10.65625 3.734375 -11.875 C 4.566406 -13.09375 5.671875 -14.023438 7.046875 -14.671875 C 8.429688 -15.328125 9.945312 -15.65625 11.59375 -15.65625 C 13.113281 -15.65625 14.492188 -15.335938 15.734375 -14.703125 C 16.972656 -14.066406 17.960938 -13.195312 18.703125 -12.09375 C 19.441406 -10.988281 19.8125 -9.695312 19.8125 -8.21875 L 19.78125 -6.765625 L 5.53125 -6.765625 C 5.769531 -5.441406 6.5 -4.394531 7.71875 -3.625 C 8.945312 -2.863281 10.472656 -2.484375 12.296875 -2.484375 C 13.660156 -2.484375 14.773438 -2.6875 15.640625 -3.09375 C 16.503906 -3.5 17.207031 -3.882812 17.75 -4.25 Z M 11.59375 -12.875 C 10.101562 -12.875 8.804688 -12.59375 7.703125 -12.03125 C 6.609375 -11.46875 5.90625 -10.507812 5.59375 -9.15625 L 16.75 -9.15625 L 16.75 -9.53125 C 16.675781 -10.1875 16.382812 -10.765625 15.875 -11.265625 C 15.375 -11.773438 14.742188 -12.171875 13.984375 -12.453125 C 13.222656 -12.734375 12.425781 -12.875 11.59375 -12.875 Z M 11.59375 -12.875 "/></g></g></g><g fill="#000000" fill-opacity="1"><g transform="translate(114.964333, 41.317813)"><g><path d="M 4.78125 -6.234375 C 5.789062 -5.046875 6.84375 -4.128906 7.9375 -3.484375 C 9.039062 -2.847656 10.390625 -2.53125 11.984375 -2.53125 C 12.835938 -2.53125 13.65625 -2.640625 14.4375 -2.859375 C 15.226562 -3.085938 15.878906 -3.429688 16.390625 -3.890625 C 16.898438 -4.347656 17.15625 -4.914062 17.15625 -5.59375 C 17.15625 -6.5625 16.640625 -7.257812 15.609375 -7.6875 C 14.585938 -8.113281 13.144531 -8.46875 11.28125 -8.75 C 8.988281 -9.09375 7.160156 -9.734375 5.796875 -10.671875 C 4.441406 -11.617188 3.765625 -12.992188 3.765625 -14.796875 C 3.765625 -16.023438 4.125 -17.078125 4.84375 -17.953125 C 5.570312 -18.828125 6.554688 -19.5 7.796875 -19.96875 C 9.046875 -20.445312 10.421875 -20.6875 11.921875 -20.6875 C 13.785156 -20.6875 15.394531 -20.375 16.75 -19.75 C 18.113281 -19.132812 19.1875 -18.253906 19.96875 -17.109375 L 17.8125 -14.859375 C 17.164062 -15.753906 16.335938 -16.476562 15.328125 -17.03125 C 14.316406 -17.582031 13.148438 -17.859375 11.828125 -17.859375 C 10.472656 -17.859375 9.335938 -17.609375 8.421875 -17.109375 C 7.503906 -16.617188 7.046875 -15.925781 7.046875 -15.03125 C 7.046875 -13.988281 7.535156 -13.25 8.515625 -12.8125 C 9.503906 -12.375 10.796875 -12.023438 12.390625 -11.765625 C 13.429688 -11.617188 14.429688 -11.414062 15.390625 -11.15625 C 16.359375 -10.90625 17.21875 -10.570312 17.96875 -10.15625 C 18.726562 -9.738281 19.332031 -9.207031 19.78125 -8.5625 C 20.226562 -7.925781 20.453125 -7.128906 20.453125 -6.171875 C 20.453125 -4.867188 20.101562 -3.734375 19.40625 -2.765625 C 18.707031 -1.796875 17.710938 -1.039062 16.421875 -0.5 C 15.128906 0.03125 13.597656 0.296875 11.828125 0.296875 C 9.941406 0.296875 8.238281 -0.015625 6.71875 -0.640625 C 5.207031 -1.265625 3.878906 -2.273438 2.734375 -3.671875 Z M 4.78125 -6.234375 "/></g></g></g><g fill="#000000" fill-opacity="1"><g transform="translate(138.222341, 41.317813)"><g><path d="M 13.484375 -15.625 C 14.960938 -15.625 16.160156 -15.332031 17.078125 -14.75 C 17.992188 -14.164062 18.664062 -13.378906 19.09375 -12.390625 C 19.519531 -11.410156 19.734375 -10.332031 19.734375 -9.15625 L 19.734375 0 L 16.734375 0 L 16.734375 -8.796875 C 16.734375 -10.003906 16.359375 -10.992188 15.609375 -11.765625 C 14.859375 -12.546875 13.820312 -12.925781 12.5 -12.90625 C 11.550781 -12.90625 10.695312 -12.679688 9.9375 -12.234375 C 9.175781 -11.785156 8.582031 -11.234375 8.15625 -10.578125 C 7.726562 -9.929688 7.515625 -9.28125 7.515625 -8.625 L 7.515625 0 L 4.515625 0 L 4.515625 -21.5625 L 7.515625 -21.5625 L 7.515625 -12.796875 C 8.117188 -13.546875 8.945312 -14.203125 10 -14.765625 C 11.0625 -15.335938 12.222656 -15.625 13.484375 -15.625 Z M 13.484375 -15.625 "/></g></g></g><g fill="#000000" fill-opacity="1"><g transform="translate(162.413006, 41.317813)"><g><path d="M 6.203125 -18.625 C 5.523438 -18.625 5.019531 -18.796875 4.6875 -19.140625 C 4.351562 -19.492188 4.1875 -19.953125 4.1875 -20.515625 C 4.1875 -20.992188 4.351562 -21.425781 4.6875 -21.8125 C 5.019531 -22.207031 5.523438 -22.40625 6.203125 -22.40625 C 6.878906 -22.40625 7.382812 -22.226562 7.71875 -21.875 C 8.050781 -21.53125 8.21875 -21.078125 8.21875 -20.515625 C 8.21875 -20.023438 8.050781 -19.585938 7.71875 -19.203125 C 7.382812 -18.816406 6.878906 -18.625 6.203125 -18.625 Z M 7.734375 0 L 4.734375 0 L 4.734375 -15.296875 L 7.734375 -15.296875 Z M 7.734375 0 "/></g></g></g><g fill="#000000" fill-opacity="1"><g transform="translate(174.770658, 41.317813)"><g><path d="M 13.34375 -15.625 C 14.84375 -15.625 16.0625 -15.332031 17 -14.75 C 17.945312 -14.164062 18.640625 -13.378906 19.078125 -12.390625 C 19.515625 -11.410156 19.734375 -10.332031 19.734375 -9.15625 L 19.734375 0 L 16.734375 0 L 16.734375 -8.796875 C 16.734375 -9.984375 16.359375 -10.960938 15.609375 -11.734375 C 14.859375 -12.515625 13.820312 -12.882812 12.5 -12.84375 C 11.550781 -12.84375 10.695312 -12.628906 9.9375 -12.203125 C 9.175781 -11.773438 8.582031 -11.234375 8.15625 -10.578125 C 7.726562 -9.929688 7.515625 -9.28125 7.515625 -8.625 L 7.515625 0 L 4.515625 0 L 4.515625 -15.296875 L 7.515625 -15.296875 L 7.515625 -12.640625 C 8.140625 -13.441406 8.945312 -14.140625 9.9375 -14.734375 C 10.925781 -15.328125 12.0625 -15.625 13.34375 -15.625 Z M 13.34375 -15.625 "/></g></g></g><g fill="#000000" fill-opacity="1"><g transform="translate(198.961314, 41.317813)"><g><path d="M 19.140625 -2.015625 L 19.109375 -2.015625 C 18.609375 -1.617188 17.972656 -1.238281 17.203125 -0.875 C 16.441406 -0.519531 15.597656 -0.234375 14.671875 -0.015625 C 13.742188 0.191406 12.804688 0.296875 11.859375 0.296875 C 9.992188 0.296875 8.359375 -0.0351562 6.953125 -0.703125 C 5.546875 -1.378906 4.445312 -2.304688 3.65625 -3.484375 C 2.875 -4.660156 2.484375 -5.992188 2.484375 -7.484375 C 2.484375 -9.191406 2.898438 -10.65625 3.734375 -11.875 C 4.566406 -13.09375 5.671875 -14.023438 7.046875 -14.671875 C 8.429688 -15.328125 9.945312 -15.65625 11.59375 -15.65625 C 13.113281 -15.65625 14.492188 -15.335938 15.734375 -14.703125 C 16.972656 -14.066406 17.960938 -13.195312 18.703125 -12.09375 C 19.441406 -10.988281 19.8125 -9.695312 19.8125 -8.21875 L 19.78125 -6.765625 L 5.53125 -6.765625 C 5.769531 -5.441406 6.5 -4.394531 7.71875 -3.625 C 8.945312 -2.863281 10.472656 -2.484375 12.296875 -2.484375 C 13.660156 -2.484375 14.773438 -2.6875 15.640625 -3.09375 C 16.503906 -3.5 17.207031 -3.882812 17.75 -4.25 Z M 11.59375 -12.875 C 10.101562 -12.875 8.804688 -12.59375 7.703125 -12.03125 C 6.609375 -11.46875 5.90625 -10.507812 5.59375 -9.15625 L 16.75 -9.15625 L 16.75 -9.53125 C 16.675781 -10.1875 16.382812 -10.765625 15.875 -11.265625 C 15.375 -11.773438 14.742188 -12.171875 13.984375 -12.453125 C 13.222656 -12.734375 12.425781 -12.875 11.59375 -12.875 Z M 11.59375 -12.875 "/></g></g></g><path fill="#ffde59" d="M 175.121094 17.019531 C 175.121094 17.433594 175.078125 17.839844 175 18.246094 C 174.917969 18.648438 174.800781 19.042969 174.640625 19.425781 C 174.484375 19.804688 174.289062 20.167969 174.0625 20.511719 C 173.832031 20.851562 173.570312 21.167969 173.28125 21.460938 C 172.988281 21.753906 172.671875 22.011719 172.328125 22.242188 C 171.984375 22.472656 171.621094 22.664062 171.242188 22.824219 C 170.859375 22.980469 170.46875 23.101562 170.0625 23.179688 C 169.660156 23.261719 169.25 23.300781 168.839844 23.300781 C 168.425781 23.300781 168.019531 23.261719 167.613281 23.179688 C 167.207031 23.101562 166.816406 22.980469 166.433594 22.824219 C 166.054688 22.664062 165.691406 22.472656 165.347656 22.242188 C 165.007812 22.011719 164.6875 21.753906 164.398438 21.460938 C 164.105469 21.167969 163.84375 20.851562 163.617188 20.511719 C 163.386719 20.167969 163.195312 19.804688 163.035156 19.425781 C 162.878906 19.042969 162.757812 18.648438 162.679688 18.246094 C 162.597656 17.839844 162.558594 17.433594 162.558594 17.019531 C 162.558594 16.609375 162.597656 16.199219 162.679688 15.796875 C 162.757812 15.390625 162.878906 14.996094 163.035156 14.617188 C 163.195312 14.234375 163.386719 13.875 163.617188 13.53125 C 163.84375 13.1875 164.105469 12.871094 164.398438 12.578125 C 164.6875 12.289062 165.007812 12.027344 165.347656 11.796875 C 165.691406 11.570312 166.054688 11.375 166.433594 11.21875 C 166.816406 11.058594 167.207031 10.941406 167.613281 10.859375 C 168.019531 10.78125 168.425781 10.738281 168.839844 10.738281 C 169.25 10.738281 169.660156 10.78125 170.0625 10.859375 C 170.46875 10.941406 170.859375 11.058594 171.242188 11.21875 C 171.621094 11.375 171.984375 11.570312 172.328125 11.796875 C 172.671875 12.027344 172.988281 12.289062 173.28125 12.578125 C 173.570312 12.871094 173.832031 13.1875 174.0625 13.53125 C 174.289062 13.875 174.484375 14.234375 174.640625 14.617188 C 174.800781 14.996094 174.917969 15.390625 175 15.796875 C 175.078125 16.199219 175.121094 16.609375 175.121094 17.019531 Z M 175.121094 17.019531 " fill-opacity="1" fill-rule="nonzero"/><g clip-path="url(#819affe3be)"><path fill="#ffde59" d="M 167.597656 9.945312 L 168.839844 7.796875 L 170.078125 9.945312 Z M 167.597656 9.945312 " fill-opacity="1" fill-rule="nonzero"/></g><path fill="#ffde59" d="M 164.226562 11.511719 L 164.226562 9.03125 L 166.375 10.273438 Z M 164.226562 11.511719 " fill-opacity="1" fill-rule="nonzero"/><path fill="#ffde59" d="M 162.089844 14.554688 L 160.847656 12.40625 L 163.328125 12.410156 Z M 162.089844 14.554688 " fill-opacity="1" fill-rule="nonzero"/><g clip-path="url(#b1a3ed7640)"><path fill="#ffde59" d="M 161.761719 18.261719 L 159.613281 17.019531 L 161.761719 15.78125 Z M 161.761719 18.261719 " fill-opacity="1" fill-rule="nonzero"/></g><path fill="#ffde59" d="M 163.328125 21.632812 L 160.847656 21.632812 L 162.089844 19.484375 Z M 163.328125 21.632812 " fill-opacity="1" fill-rule="nonzero"/><path fill="#ffde59" d="M 166.375 23.769531 L 164.226562 25.011719 L 164.226562 22.53125 Z M 166.375 23.769531 " fill-opacity="1" fill-rule="nonzero"/><g clip-path="url(#09de049d44)"><path fill="#ffde59" d="M 170.078125 24.097656 L 168.839844 26.246094 L 167.597656 24.097656 Z M 170.078125 24.097656 " fill-opacity="1" fill-rule="nonzero"/></g><path fill="#ffde59" d="M 173.449219 22.53125 L 173.453125 25.007812 L 171.304688 23.769531 Z M 173.449219 22.53125 " fill-opacity="1" fill-rule="nonzero"/><path fill="#ffde59" d="M 175.585938 19.484375 L 176.828125 21.632812 L 174.347656 21.632812 Z M 175.585938 19.484375 " fill-opacity="1" fill-rule="nonzero"/><g clip-path="url(#971e1cf99a)"><path fill="#ffde59" d="M 175.914062 15.78125 L 178.0625 17.019531 L 175.914062 18.261719 Z M 175.914062 15.78125 " fill-opacity="1" fill-rule="nonzero"/></g><path fill="#ffde59" d="M 174.347656 12.410156 L 176.828125 12.40625 L 175.585938 14.554688 Z M 174.347656 12.410156 " fill-opacity="1" fill-rule="nonzero"/><path fill="#ffde59" d="M 171.304688 10.273438 L 173.449219 9.03125 L 173.449219 11.511719 Z M 171.304688 10.273438 " fill-opacity="1" fill-rule="nonzero"/><g clip-path="url(#a2cddb255b)"><path fill="#32afcc" d="M 57.386719 35.410156 C 56.835938 37.367188 55.789062 39.21875 54.246094 40.761719 C 52.703125 42.300781 50.855469 43.347656 48.894531 43.902344 C 44.75 45.066406 40.113281 44.019531 36.851562 40.761719 C 32.171875 36.082031 32.050781 28.566406 36.492188 23.742188 C 36.609375 23.617188 36.726562 23.488281 36.851562 23.367188 C 36.976562 23.242188 37.101562 23.121094 37.230469 23.003906 C 42.054688 18.566406 49.566406 18.6875 54.246094 23.367188 C 57.507812 26.628906 58.554688 31.265625 57.386719 35.410156 " fill-opacity="1" fill-rule="nonzero"/></g><g clip-path="url(#29803051e2)"><path fill="#5ad4ff" d="M 57.386719 35.410156 C 56.835938 37.367188 55.789062 39.21875 54.246094 40.761719 C 52.703125 42.300781 50.855469 43.347656 48.894531 43.902344 L 42.015625 35 L 48.484375 28.53125 L 57.386719 35.410156 " fill-opacity="1" fill-rule="nonzero"/></g><path fill="#ffffff" d="M 41.410156 27.183594 L 40.671875 27.921875 L 36.492188 23.742188 C 36.609375 23.617188 36.726562 23.488281 36.851562 23.367188 C 36.976562 23.242188 37.101562 23.121094 37.230469 23.003906 L 41.410156 27.183594 " fill-opacity="1" fill-rule="nonzero"/><path fill="#ffffff" d="M 46.3125 26.359375 L 48.484375 28.53125 L 42.015625 35 L 39.84375 32.828125 L 46.3125 26.359375 " fill-opacity="1" fill-rule="nonzero"/><path fill="#ffffff" d="M 39.867188 27.722656 L 41.210938 26.382812 L 43.75 28.921875 L 42.410156 30.261719 L 39.867188 27.722656 " fill-opacity="1" fill-rule="nonzero"/><path fill="#ffffff" d="M 53.304688 37.421875 L 52.625 36.378906 L 51.398438 36.570312 L 52.4375 35.890625 L 52.246094 34.664062 L 52.925781 35.703125 L 54.15625 35.511719 L 53.113281 36.191406 L 53.304688 37.421875 " fill-opacity="1" fill-rule="nonzero"/><path fill="#ffffff" d="M 47.417969 36.84375 L 46.464844 36.714844 L 45.957031 37.53125 L 46.085938 36.578125 L 45.269531 36.070312 L 46.222656 36.199219 L 46.730469 35.378906 L 46.601562 36.335938 L 47.417969 36.84375 " fill-opacity="1" fill-rule="nonzero"/><path fill="#ffffff" d="M 49.523438 31.339844 L 48.953125 31.261719 L 48.652344 31.75 L 48.726562 31.183594 L 48.238281 30.878906 L 48.808594 30.957031 L 49.113281 30.46875 L 49.035156 31.035156 L 49.523438 31.339844 " fill-opacity="1" fill-rule="nonzero"/><path fill="#ffffff" d="M 50.21875 41.378906 L 49.648438 41.304688 L 49.347656 41.792969 L 49.421875 41.222656 L 48.933594 40.917969 L 49.503906 40.996094 L 49.804688 40.507812 L 49.730469 41.078125 L 50.21875 41.378906 " fill-opacity="1" fill-rule="nonzero"/><g fill="#000000" fill-opacity="1"><g transform="translate(223.072323, 40.51615)"><g><path d="M 1.78125 -1.0625 L 3.90625 -1.0625 L 3.90625 0 L 0.5 0 L 0.5 -5.015625 L 1.78125 -5.015625 Z M 1.78125 -1.0625 "/></g></g></g><g fill="#000000" fill-opacity="1"><g transform="translate(227.090158, 40.51615)"><g><path d="M 1.78125 -1.0625 L 3.90625 -1.0625 L 3.90625 0 L 0.5 0 L 0.5 -5.015625 L 1.78125 -5.015625 Z M 1.78125 -1.0625 "/></g></g></g><g fill="#000000" fill-opacity="1"><g transform="translate(231.107993, 40.51615)"><g><path d="M 2.859375 -5.0625 C 3.222656 -5.0625 3.585938 -4.984375 3.953125 -4.828125 C 4.316406 -4.679688 4.625 -4.476562 4.875 -4.21875 L 4.140625 -3.34375 C 3.972656 -3.539062 3.773438 -3.695312 3.546875 -3.8125 C 3.328125 -3.9375 3.101562 -4 2.875 -4 C 2.476562 -4 2.144531 -3.859375 1.875 -3.578125 C 1.613281 -3.296875 1.484375 -2.945312 1.484375 -2.53125 C 1.484375 -2.113281 1.613281 -1.765625 1.875 -1.484375 C 2.144531 -1.203125 2.476562 -1.0625 2.875 -1.0625 C 3.082031 -1.0625 3.300781 -1.113281 3.53125 -1.21875 C 3.757812 -1.320312 3.960938 -1.46875 4.140625 -1.65625 L 4.890625 -0.859375 C 4.609375 -0.578125 4.28125 -0.351562 3.90625 -0.1875 C 3.539062 -0.0195312 3.175781 0.0625 2.8125 0.0625 C 2.050781 0.0625 1.421875 -0.179688 0.921875 -0.671875 C 0.421875 -1.171875 0.171875 -1.789062 0.171875 -2.53125 C 0.171875 -3.25 0.425781 -3.847656 0.9375 -4.328125 C 1.445312 -4.816406 2.085938 -5.0625 2.859375 -5.0625 Z M 2.859375 -5.0625 "/></g></g></g></svg>