<svg xmlns="http://www.w3.org/2000/svg" xmlns:xlink="http://www.w3.org/1999/xlink" width="500" zoomAndPan="magnify" viewBox="0 0 375 299.999988" height="400" preserveAspectRatio="xMidYMid meet" version="1.0"><defs><clipPath id="c9cf67a010"><path d="M 32.4375 15.21875 L 85.652344 15.21875 L 85.652344 76.417969 L 32.4375 76.417969 Z M 32.4375 15.21875 " clip-rule="nonzero"/></clipPath><clipPath id="ae01879fbc"><path d="M 6.25 107 L 54 107 L 54 155 L 6.25 155 Z M 6.25 107 " clip-rule="nonzero"/></clipPath></defs><rect x="-37.5" width="450" fill="#ffffff" y="-29.999999" height="359.999986" fill-opacity="1"/><rect x="-37.5" width="450" fill="#ffffff" y="-29.999999" height="359.999986" fill-opacity="1"/><rect x="-37.5" width="450" fill="#ffffff" y="-29.999999" height="359.999986" fill-opacity="1"/><g clip-path="url(#c9cf67a010)"><path fill="#11aad4" d="M 59.304688 19.476562 C 62.21875 18.796875 62.773438 18.238281 63.457031 15.324219 C 64.136719 18.238281 64.699219 18.789062 67.609375 19.476562 C 64.699219 20.152344 64.140625 20.714844 63.457031 23.625 C 62.773438 20.714844 62.21875 20.160156 59.304688 19.476562 Z M 73.558594 47.804688 C 75.027344 38.367188 76.214844 37.179688 85.648438 35.714844 C 76.214844 34.246094 75.023438 33.0625 73.558594 23.625 C 72.09375 33.0625 70.90625 34.25 61.472656 35.714844 C 70.90625 37.179688 72.09375 38.367188 73.558594 47.804688 Z M 56.253906 28.6875 C 55.183594 50.566406 54.320312 51.433594 32.4375 52.5 C 54.320312 53.566406 55.183594 54.429688 56.253906 76.3125 C 57.316406 54.429688 58.183594 53.566406 80.066406 52.5 C 58.183594 51.433594 57.316406 50.566406 56.253906 28.6875 Z M 56.253906 28.6875 " fill-opacity="1" fill-rule="nonzero"/></g><path fill="#48e5ff" d="M 315.613281 70.480469 C 315.613281 71.152344 315.578125 71.824219 315.511719 72.496094 C 315.449219 73.164062 315.347656 73.828125 315.21875 74.488281 C 315.085938 75.148438 314.921875 75.800781 314.726562 76.441406 C 314.53125 77.085938 314.304688 77.71875 314.046875 78.339844 C 313.789062 78.960938 313.5 79.570312 313.183594 80.164062 C 312.863281 80.757812 312.519531 81.332031 312.144531 81.890625 C 311.769531 82.453125 311.367188 82.992188 310.941406 83.511719 C 310.511719 84.03125 310.058594 84.527344 309.582031 85.003906 C 309.105469 85.480469 308.605469 85.929688 308.085938 86.359375 C 307.566406 86.785156 307.023438 87.183594 306.464844 87.558594 C 305.902344 87.933594 305.324219 88.277344 304.730469 88.59375 C 304.136719 88.914062 303.527344 89.199219 302.902344 89.457031 C 302.28125 89.714844 301.648438 89.941406 301 90.136719 C 300.355469 90.332031 299.703125 90.496094 299.042969 90.625 C 298.378906 90.757812 297.714844 90.855469 297.042969 90.921875 C 296.371094 90.988281 295.699219 91.019531 295.027344 91.019531 C 294.351562 91.019531 293.679688 90.988281 293.007812 90.921875 C 292.335938 90.855469 291.671875 90.757812 291.007812 90.625 C 290.347656 90.496094 289.695312 90.332031 289.050781 90.136719 C 288.402344 89.941406 287.769531 89.714844 287.148438 89.457031 C 286.523438 89.199219 285.914062 88.914062 285.320312 88.59375 C 284.726562 88.277344 284.148438 87.933594 283.589844 87.558594 C 283.027344 87.183594 282.488281 86.785156 281.964844 86.359375 C 281.445312 85.929688 280.945312 85.480469 280.46875 85.003906 C 279.992188 84.527344 279.539062 84.03125 279.113281 83.511719 C 278.683594 82.992188 278.28125 82.453125 277.90625 81.890625 C 277.535156 81.332031 277.1875 80.757812 276.871094 80.164062 C 276.550781 79.570312 276.261719 78.960938 276.003906 78.339844 C 275.746094 77.71875 275.519531 77.085938 275.324219 76.441406 C 275.128906 75.800781 274.964844 75.148438 274.835938 74.488281 C 274.703125 73.828125 274.605469 73.164062 274.539062 72.496094 C 274.472656 71.824219 274.4375 71.152344 274.4375 70.480469 C 274.4375 69.808594 274.472656 69.136719 274.539062 68.46875 C 274.605469 67.796875 274.703125 67.132812 274.835938 66.472656 C 274.964844 65.8125 275.128906 65.164062 275.324219 64.519531 C 275.519531 63.875 275.746094 63.242188 276.003906 62.621094 C 276.261719 62 276.550781 61.390625 276.871094 60.800781 C 277.1875 60.207031 277.535156 59.628906 277.90625 59.070312 C 278.28125 58.511719 278.683594 57.972656 279.113281 57.449219 C 279.539062 56.929688 279.992188 56.433594 280.46875 55.957031 C 280.945312 55.480469 281.445312 55.03125 281.964844 54.605469 C 282.488281 54.175781 283.027344 53.777344 283.589844 53.402344 C 284.148438 53.03125 284.726562 52.683594 285.320312 52.367188 C 285.914062 52.050781 286.523438 51.761719 287.148438 51.503906 C 287.769531 51.246094 288.402344 51.023438 289.050781 50.828125 C 289.695312 50.632812 290.347656 50.46875 291.007812 50.335938 C 291.671875 50.207031 292.335938 50.105469 293.007812 50.039062 C 293.679688 49.976562 294.351562 49.941406 295.027344 49.941406 C 295.699219 49.941406 296.371094 49.976562 297.042969 50.039062 C 297.714844 50.105469 298.378906 50.207031 299.042969 50.335938 C 299.703125 50.46875 300.355469 50.632812 301 50.828125 C 301.648438 51.023438 302.28125 51.246094 302.902344 51.503906 C 303.527344 51.761719 304.136719 52.050781 304.730469 52.367188 C 305.324219 52.683594 305.902344 53.03125 306.464844 53.402344 C 307.023438 53.777344 307.566406 54.175781 308.085938 54.605469 C 308.605469 55.03125 309.105469 55.480469 309.582031 55.957031 C 310.058594 56.433594 310.511719 56.929688 310.941406 57.449219 C 311.367188 57.972656 311.769531 58.511719 312.144531 59.070312 C 312.519531 59.628906 312.863281 60.207031 313.183594 60.800781 C 313.5 61.390625 313.789062 62 314.046875 62.621094 C 314.304688 63.242188 314.53125 63.875 314.726562 64.519531 C 314.921875 65.164062 315.085938 65.8125 315.21875 66.472656 C 315.347656 67.132812 315.449219 67.796875 315.511719 68.46875 C 315.578125 69.136719 315.613281 69.808594 315.613281 70.480469 Z M 315.613281 70.480469 " fill-opacity="1" fill-rule="nonzero"/><path fill="#007eb1" d="M 328.90625 135.558594 C 329.058594 133.945312 329.195312 132.324219 329.195312 130.613281 C 329.195312 128.285156 329.058594 125.996094 328.8125 123.734375 C 334.632812 122.433594 338.988281 117.269531 338.988281 111.070312 C 338.988281 103.894531 333.15625 98.074219 325.964844 98.074219 C 324.148438 98.074219 322.429688 98.449219 320.859375 99.113281 C 310.53125 80.917969 291.542969 68.308594 269.472656 66.796875 C 266.566406 45.78125 248.539062 29.574219 226.671875 29.574219 C 209.53125 29.574219 194.765625 39.550781 187.765625 53.964844 C 177.171875 44.488281 163.210938 38.675781 147.859375 38.675781 C 136.402344 38.675781 125.738281 41.929688 116.652344 47.503906 C 112.792969 44.296875 107.832031 42.355469 102.417969 42.355469 C 90.136719 42.355469 80.175781 52.285156 80.175781 64.546875 C 80.175781 72.246094 84.109375 79.027344 90.082031 83.007812 C 90.015625 83.253906 89.929688 83.484375 89.863281 83.730469 C 85.476562 81.371094 80.457031 80.03125 75.125 80.03125 C 57.941406 80.03125 44.011719 93.925781 44.011719 111.070312 C 44.011719 113.023438 44.214844 114.925781 44.5625 116.78125 C 32.878906 126.257812 25.414062 140.695312 25.414062 156.886719 C 25.414062 183.160156 45.082031 204.808594 70.519531 208.097656 L 70.171875 208.582031 L 77.097656 208.574219 C 77.140625 208.574219 77.183594 208.582031 77.226562 208.582031 C 77.269531 208.582031 77.3125 208.574219 77.359375 208.574219 L 313.539062 208.355469 C 314.867188 208.5 316.210938 208.582031 317.578125 208.582031 C 338.273438 208.582031 355.050781 191.839844 355.050781 171.195312 C 355.039062 154.492188 344.058594 140.355469 328.90625 135.558594 Z M 328.90625 135.558594 " fill-opacity="1" fill-rule="nonzero"/><path fill="#11aad4" d="M 314.644531 282.449219 C 309.621094 283.265625 308.960938 283.921875 308.144531 288.933594 C 307.328125 283.921875 306.671875 283.265625 301.648438 282.449219 C 306.671875 281.636719 307.328125 280.980469 308.144531 275.96875 C 308.960938 280.972656 309.621094 281.636719 314.644531 282.449219 Z M 314.644531 282.449219 " fill-opacity="1" fill-rule="nonzero"/><path fill="#48e5ff" d="M 303.265625 110.152344 C 303.265625 110.515625 303.230469 110.875 303.160156 111.230469 C 303.089844 111.585938 302.984375 111.929688 302.84375 112.265625 C 302.707031 112.597656 302.535156 112.917969 302.335938 113.21875 C 302.132812 113.519531 301.902344 113.796875 301.648438 114.054688 C 301.390625 114.3125 301.109375 114.539062 300.808594 114.742188 C 300.507812 114.941406 300.1875 115.113281 299.851562 115.25 C 299.515625 115.390625 299.171875 115.492188 298.816406 115.5625 C 298.460938 115.636719 298.097656 115.671875 297.738281 115.671875 C 297.375 115.671875 297.011719 115.636719 296.65625 115.5625 C 296.300781 115.492188 295.957031 115.390625 295.621094 115.25 C 295.285156 115.113281 294.964844 114.941406 294.664062 114.742188 C 294.363281 114.539062 294.082031 114.3125 293.824219 114.054688 C 293.570312 113.796875 293.339844 113.519531 293.136719 113.21875 C 292.9375 112.917969 292.765625 112.597656 292.628906 112.265625 C 292.488281 111.929688 292.382812 111.585938 292.3125 111.230469 C 292.242188 110.875 292.207031 110.515625 292.207031 110.152344 C 292.207031 109.792969 292.242188 109.433594 292.3125 109.078125 C 292.382812 108.722656 292.488281 108.375 292.628906 108.042969 C 292.765625 107.707031 292.9375 107.390625 293.136719 107.089844 C 293.339844 106.785156 293.570312 106.507812 293.824219 106.253906 C 294.082031 105.996094 294.363281 105.765625 294.664062 105.566406 C 294.964844 105.363281 295.285156 105.195312 295.621094 105.054688 C 295.957031 104.917969 296.300781 104.8125 296.65625 104.742188 C 297.011719 104.671875 297.375 104.636719 297.738281 104.636719 C 298.097656 104.636719 298.460938 104.671875 298.816406 104.742188 C 299.171875 104.8125 299.515625 104.917969 299.851562 105.054688 C 300.1875 105.195312 300.507812 105.363281 300.808594 105.566406 C 301.109375 105.765625 301.390625 105.996094 301.648438 106.253906 C 301.902344 106.507812 302.132812 106.785156 302.335938 107.089844 C 302.535156 107.390625 302.707031 107.707031 302.84375 108.042969 C 302.984375 108.375 303.089844 108.722656 303.160156 109.078125 C 303.230469 109.433594 303.265625 109.792969 303.265625 110.152344 Z M 303.265625 110.152344 " fill-opacity="0.7176" fill-rule="nonzero"/><path fill="#11aad4" d="M 207.328125 46.429688 C 207.328125 47.351562 207.238281 48.261719 207.058594 49.167969 C 206.878906 50.070312 206.609375 50.945312 206.257812 51.796875 C 205.90625 52.648438 205.472656 53.457031 204.957031 54.222656 C 204.445312 54.988281 203.863281 55.695312 203.210938 56.347656 C 202.558594 57 201.847656 57.582031 201.078125 58.09375 C 200.3125 58.605469 199.5 59.035156 198.648438 59.390625 C 197.796875 59.742188 196.917969 60.007812 196.011719 60.1875 C 195.105469 60.367188 194.191406 60.457031 193.269531 60.457031 C 192.34375 60.457031 191.429688 60.367188 190.527344 60.1875 C 189.621094 60.007812 188.742188 59.742188 187.886719 59.390625 C 187.035156 59.035156 186.226562 58.605469 185.457031 58.09375 C 184.691406 57.582031 183.980469 57 183.328125 56.347656 C 182.675781 55.695312 182.089844 54.988281 181.578125 54.222656 C 181.066406 53.457031 180.632812 52.648438 180.277344 51.796875 C 179.925781 50.945312 179.660156 50.070312 179.480469 49.167969 C 179.300781 48.261719 179.207031 47.351562 179.207031 46.429688 C 179.207031 45.507812 179.300781 44.597656 179.480469 43.691406 C 179.660156 42.789062 179.925781 41.914062 180.277344 41.0625 C 180.632812 40.210938 181.066406 39.402344 181.578125 38.636719 C 182.089844 37.871094 182.675781 37.164062 183.328125 36.511719 C 183.980469 35.859375 184.691406 35.277344 185.457031 34.765625 C 186.226562 34.253906 187.035156 33.824219 187.886719 33.46875 C 188.742188 33.117188 189.621094 32.851562 190.527344 32.671875 C 191.429688 32.492188 192.34375 32.402344 193.269531 32.402344 C 194.191406 32.402344 195.105469 32.492188 196.011719 32.671875 C 196.917969 32.851562 197.796875 33.117188 198.648438 33.46875 C 199.5 33.824219 200.3125 34.253906 201.078125 34.765625 C 201.847656 35.277344 202.558594 35.859375 203.210938 36.511719 C 203.863281 37.164062 204.445312 37.871094 204.957031 38.636719 C 205.472656 39.402344 205.90625 40.210938 206.257812 41.0625 C 206.609375 41.914062 206.878906 42.789062 207.058594 43.691406 C 207.238281 44.597656 207.328125 45.507812 207.328125 46.429688 Z M 207.328125 46.429688 " fill-opacity="1" fill-rule="nonzero"/><path fill="#007eb1" d="M 210.683594 13.644531 C 205.660156 14.460938 205 15.117188 204.183594 20.128906 C 203.367188 15.117188 202.710938 14.460938 197.683594 13.644531 C 202.710938 12.828125 203.367188 12.171875 204.183594 7.160156 C 204.992188 12.171875 205.660156 12.835938 210.683594 13.644531 Z M 210.683594 13.644531 " fill-opacity="1" fill-rule="nonzero"/><g clip-path="url(#ae01879fbc)"><path fill="#11aad4" d="M 53.539062 131.355469 C 53.539062 144.324219 43 154.835938 30.003906 154.835938 C 17.007812 154.835938 6.472656 144.324219 6.472656 131.355469 C 6.472656 118.390625 17.011719 107.875 30.011719 107.875 C 43.007812 107.875 53.539062 118.390625 53.539062 131.355469 Z M 53.539062 131.355469 " fill-opacity="1" fill-rule="nonzero"/></g><path fill="#11aad4" d="M 292.003906 70.480469 C 292.003906 83.449219 281.464844 93.960938 268.46875 93.960938 C 255.46875 93.960938 244.929688 83.449219 244.929688 70.480469 C 244.929688 57.515625 255.46875 47 268.46875 47 C 281.464844 47.007812 292.003906 57.515625 292.003906 70.480469 Z M 292.003906 70.480469 " fill-opacity="1" fill-rule="nonzero"/><path fill="#48e5ff" d="M 188.265625 17.035156 C 175.449219 19.386719 173.535156 21.296875 171.179688 34.082031 C 168.820312 21.296875 166.90625 19.386719 154.089844 17.035156 C 166.90625 14.683594 168.820312 12.773438 171.179688 -0.015625 C 173.542969 12.773438 175.457031 14.683594 188.265625 17.035156 Z M 154.097656 60.421875 C 152.355469 69.867188 150.9375 71.28125 141.46875 73.019531 C 150.9375 74.757812 152.355469 76.171875 154.097656 85.617188 C 155.839844 76.171875 157.253906 74.757812 166.726562 73.019531 C 157.25 71.28125 155.839844 69.867188 154.097656 60.421875 Z M 237.867188 38.5625 C 236.460938 46.21875 235.308594 47.359375 227.632812 48.773438 C 235.308594 50.179688 236.453125 51.328125 237.867188 58.984375 C 239.277344 51.328125 240.429688 50.1875 248.105469 48.773438 C 240.421875 47.367188 239.277344 46.21875 237.867188 38.5625 Z M 313.804688 127.035156 C 313.023438 131.269531 312.390625 131.902344 308.144531 132.683594 C 312.390625 133.460938 313.023438 134.097656 313.804688 138.328125 C 314.585938 134.097656 315.222656 133.460938 319.464844 132.683594 C 315.214844 131.898438 314.585938 131.269531 313.804688 127.035156 Z M 313.804688 127.035156 " fill-opacity="1" fill-rule="nonzero"/><path fill="#007eb1" d="M 120.402344 210.015625 C 120.402344 211.269531 120.34375 212.519531 120.21875 213.765625 C 120.097656 215.015625 119.910156 216.253906 119.667969 217.484375 C 119.421875 218.714844 119.117188 219.929688 118.753906 221.128906 C 118.386719 222.328125 117.964844 223.507812 117.484375 224.664062 C 117.003906 225.824219 116.464844 226.953125 115.875 228.058594 C 115.28125 229.167969 114.636719 230.242188 113.9375 231.28125 C 113.238281 232.324219 112.492188 233.332031 111.695312 234.300781 C 110.898438 235.269531 110.054688 236.195312 109.164062 237.082031 C 108.277344 237.96875 107.347656 238.8125 106.375 239.605469 C 105.40625 240.402344 104.398438 241.148438 103.351562 241.84375 C 102.308594 242.539062 101.230469 243.183594 100.121094 243.777344 C 99.015625 244.367188 97.878906 244.902344 96.71875 245.382812 C 95.558594 245.863281 94.375 246.285156 93.171875 246.648438 C 91.96875 247.011719 90.753906 247.316406 89.519531 247.558594 C 88.289062 247.804688 87.046875 247.988281 85.796875 248.109375 C 84.546875 248.234375 83.292969 248.296875 82.035156 248.296875 C 80.777344 248.296875 79.523438 248.234375 78.273438 248.113281 C 77.023438 247.988281 75.78125 247.804688 74.550781 247.558594 C 73.316406 247.316406 72.097656 247.011719 70.898438 246.648438 C 69.695312 246.285156 68.511719 245.863281 67.351562 245.382812 C 66.191406 244.902344 65.054688 244.367188 63.949219 243.777344 C 62.839844 243.183594 61.761719 242.539062 60.71875 241.84375 C 59.671875 241.148438 58.664062 240.402344 57.695312 239.605469 C 56.722656 238.8125 55.792969 237.96875 54.902344 237.082031 C 54.015625 236.195312 53.171875 235.269531 52.375 234.300781 C 51.578125 233.332031 50.828125 232.324219 50.132812 231.28125 C 49.433594 230.242188 48.789062 229.167969 48.195312 228.058594 C 47.601562 226.953125 47.066406 225.824219 46.585938 224.664062 C 46.105469 223.507812 45.683594 222.328125 45.316406 221.128906 C 44.953125 219.929688 44.648438 218.714844 44.402344 217.484375 C 44.15625 216.253906 43.972656 215.015625 43.851562 213.765625 C 43.726562 212.519531 43.664062 211.269531 43.664062 210.015625 C 43.664062 208.761719 43.726562 207.511719 43.851562 206.261719 C 43.972656 205.015625 44.15625 203.777344 44.402344 202.546875 C 44.648438 201.316406 44.953125 200.101562 45.316406 198.902344 C 45.683594 197.703125 46.105469 196.523438 46.585938 195.367188 C 47.066406 194.207031 47.601562 193.074219 48.195312 191.96875 C 48.789062 190.863281 49.433594 189.789062 50.132812 188.746094 C 50.828125 187.707031 51.578125 186.699219 52.375 185.730469 C 53.171875 184.761719 54.015625 183.832031 54.902344 182.945312 C 55.792969 182.058594 56.722656 181.21875 57.695312 180.425781 C 58.664062 179.628906 59.671875 178.882812 60.71875 178.1875 C 61.761719 177.488281 62.839844 176.847656 63.949219 176.253906 C 65.054688 175.664062 66.191406 175.128906 67.351562 174.648438 C 68.511719 174.167969 69.695312 173.746094 70.898438 173.382812 C 72.097656 173.019531 73.316406 172.714844 74.550781 172.46875 C 75.78125 172.226562 77.023438 172.042969 78.273438 171.917969 C 79.523438 171.796875 80.777344 171.734375 82.035156 171.734375 C 83.292969 171.734375 84.546875 171.796875 85.796875 171.917969 C 87.046875 172.042969 88.289062 172.226562 89.519531 172.46875 C 90.753906 172.714844 91.96875 173.019531 93.171875 173.382812 C 94.375 173.746094 95.558594 174.167969 96.71875 174.648438 C 97.878906 175.128906 99.015625 175.664062 100.121094 176.253906 C 101.230469 176.847656 102.308594 177.488281 103.351562 178.1875 C 104.398438 178.882812 105.40625 179.628906 106.375 180.425781 C 107.347656 181.21875 108.277344 182.058594 109.164062 182.945312 C 110.054688 183.832031 110.898438 184.761719 111.695312 185.730469 C 112.492188 186.699219 113.238281 187.707031 113.9375 188.746094 C 114.636719 189.789062 115.28125 190.863281 115.875 191.96875 C 116.464844 193.074219 117.003906 194.207031 117.484375 195.367188 C 117.964844 196.523438 118.386719 197.703125 118.753906 198.902344 C 119.117188 200.101562 119.421875 201.316406 119.667969 202.546875 C 119.910156 203.777344 120.097656 205.015625 120.21875 206.261719 C 120.34375 207.511719 120.402344 208.761719 120.402344 210.015625 Z M 120.402344 210.015625 " fill-opacity="1" fill-rule="nonzero"/><path fill="#007eb1" d="M 244.929688 216.988281 C 244.929688 218.195312 244.871094 219.394531 244.753906 220.59375 C 244.636719 221.792969 244.457031 222.984375 244.222656 224.164062 C 243.988281 225.347656 243.695312 226.515625 243.34375 227.667969 C 242.992188 228.820312 242.585938 229.953125 242.125 231.066406 C 241.664062 232.179688 241.148438 233.269531 240.578125 234.332031 C 240.007812 235.394531 239.386719 236.425781 238.71875 237.425781 C 238.046875 238.429688 237.328125 239.394531 236.5625 240.328125 C 235.796875 241.257812 234.984375 242.148438 234.132812 243 C 233.277344 243.855469 232.382812 244.660156 231.449219 245.425781 C 230.515625 246.191406 229.546875 246.90625 228.542969 247.578125 C 227.539062 248.246094 226.503906 248.863281 225.441406 249.433594 C 224.375 250 223.285156 250.515625 222.167969 250.976562 C 221.054688 251.4375 219.917969 251.84375 218.761719 252.191406 C 217.605469 252.542969 216.4375 252.835938 215.25 253.070312 C 214.066406 253.304688 212.875 253.480469 211.671875 253.597656 C 210.46875 253.71875 209.265625 253.777344 208.058594 253.777344 C 206.851562 253.777344 205.644531 253.71875 204.445312 253.597656 C 203.242188 253.480469 202.050781 253.304688 200.863281 253.070312 C 199.679688 252.835938 198.511719 252.542969 197.355469 252.191406 C 196.199219 251.84375 195.0625 251.4375 193.949219 250.976562 C 192.832031 250.515625 191.742188 250 190.675781 249.433594 C 189.613281 248.863281 188.578125 248.246094 187.574219 247.578125 C 186.570312 246.90625 185.601562 246.191406 184.667969 245.425781 C 183.734375 244.660156 182.839844 243.855469 181.984375 243 C 181.132812 242.148438 180.320312 241.257812 179.554688 240.328125 C 178.789062 239.394531 178.070312 238.429688 177.398438 237.425781 C 176.726562 236.425781 176.109375 235.394531 175.539062 234.332031 C 174.96875 233.269531 174.453125 232.179688 173.992188 231.066406 C 173.53125 229.953125 173.125 228.820312 172.773438 227.667969 C 172.421875 226.515625 172.128906 225.347656 171.894531 224.164062 C 171.65625 222.984375 171.480469 221.792969 171.363281 220.59375 C 171.246094 219.394531 171.183594 218.195312 171.183594 216.988281 C 171.183594 215.785156 171.246094 214.582031 171.363281 213.382812 C 171.480469 212.183594 171.65625 210.992188 171.894531 209.8125 C 172.128906 208.628906 172.421875 207.464844 172.773438 206.308594 C 173.125 205.15625 173.53125 204.023438 173.992188 202.910156 C 174.453125 201.796875 174.96875 200.710938 175.539062 199.648438 C 176.109375 198.585938 176.726562 197.554688 177.398438 196.550781 C 178.070312 195.550781 178.789062 194.582031 179.554688 193.652344 C 180.320312 192.71875 181.132812 191.828125 181.984375 190.976562 C 182.839844 190.125 183.734375 189.316406 184.667969 188.550781 C 185.601562 187.789062 186.570312 187.070312 187.574219 186.402344 C 188.578125 185.730469 189.609375 185.113281 190.675781 184.546875 C 191.742188 183.976562 192.832031 183.464844 193.949219 183 C 195.0625 182.539062 196.199219 182.136719 197.355469 181.785156 C 198.511719 181.4375 199.679688 181.144531 200.863281 180.910156 C 202.050781 180.671875 203.242188 180.496094 204.445312 180.378906 C 205.644531 180.261719 206.851562 180.203125 208.058594 180.203125 C 209.265625 180.203125 210.46875 180.261719 211.671875 180.378906 C 212.875 180.496094 214.066406 180.671875 215.25 180.910156 C 216.4375 181.144531 217.605469 181.4375 218.761719 181.785156 C 219.917969 182.136719 221.054688 182.539062 222.167969 183 C 223.285156 183.464844 224.375 183.976562 225.441406 184.546875 C 226.503906 185.113281 227.539062 185.730469 228.542969 186.402344 C 229.546875 187.070312 230.515625 187.789062 231.449219 188.550781 C 232.382812 189.316406 233.277344 190.125 234.132812 190.976562 C 234.984375 191.828125 235.796875 192.71875 236.5625 193.652344 C 237.328125 194.582031 238.046875 195.550781 238.71875 196.550781 C 239.386719 197.554688 240.007812 198.585938 240.578125 199.648438 C 241.148438 200.710938 241.664062 201.796875 242.125 202.910156 C 242.585938 204.023438 242.992188 205.15625 243.34375 206.308594 C 243.695312 207.464844 243.988281 208.628906 244.222656 209.8125 C 244.457031 210.992188 244.636719 212.183594 244.753906 213.382812 C 244.871094 214.582031 244.929688 215.785156 244.929688 216.988281 Z M 244.929688 216.988281 " fill-opacity="1" fill-rule="nonzero"/><path fill="#007eb1" d="M 193.269531 221.929688 C 193.269531 222.839844 193.222656 223.75 193.132812 224.65625 C 193.042969 225.5625 192.910156 226.460938 192.734375 227.355469 C 192.554688 228.246094 192.332031 229.128906 192.066406 230 C 191.804688 230.875 191.496094 231.730469 191.148438 232.570312 C 190.796875 233.414062 190.40625 234.234375 189.976562 235.039062 C 189.546875 235.839844 189.078125 236.621094 188.570312 237.378906 C 188.0625 238.136719 187.519531 238.867188 186.941406 239.570312 C 186.363281 240.273438 185.75 240.949219 185.105469 241.59375 C 184.460938 242.238281 183.785156 242.847656 183.078125 243.425781 C 182.371094 244.003906 181.640625 244.546875 180.878906 245.050781 C 180.121094 245.558594 179.339844 246.023438 178.535156 246.453125 C 177.730469 246.882812 176.90625 247.273438 176.0625 247.621094 C 175.21875 247.96875 174.359375 248.277344 173.484375 248.539062 C 172.613281 248.804688 171.726562 249.027344 170.832031 249.203125 C 169.9375 249.382812 169.035156 249.515625 168.128906 249.605469 C 167.21875 249.695312 166.308594 249.738281 165.394531 249.738281 C 164.480469 249.738281 163.570312 249.695312 162.664062 249.605469 C 161.753906 249.515625 160.851562 249.382812 159.957031 249.203125 C 159.0625 249.027344 158.175781 248.804688 157.304688 248.539062 C 156.429688 248.277344 155.570312 247.96875 154.726562 247.621094 C 153.886719 247.273438 153.0625 246.882812 152.253906 246.453125 C 151.449219 246.023438 150.667969 245.558594 149.910156 245.050781 C 149.148438 244.546875 148.417969 244.003906 147.710938 243.425781 C 147.007812 242.847656 146.332031 242.238281 145.683594 241.59375 C 145.039062 240.949219 144.425781 240.273438 143.847656 239.570312 C 143.269531 238.867188 142.726562 238.136719 142.21875 237.378906 C 141.710938 236.621094 141.242188 235.839844 140.8125 235.039062 C 140.382812 234.234375 139.992188 233.414062 139.644531 232.570312 C 139.292969 231.730469 138.988281 230.875 138.722656 230 C 138.457031 229.128906 138.234375 228.246094 138.058594 227.355469 C 137.878906 226.460938 137.746094 225.5625 137.65625 224.65625 C 137.566406 223.75 137.523438 222.839844 137.523438 221.929688 C 137.523438 221.019531 137.566406 220.109375 137.65625 219.203125 C 137.746094 218.296875 137.878906 217.398438 138.058594 216.503906 C 138.234375 215.609375 138.457031 214.726562 138.722656 213.855469 C 138.988281 212.984375 139.292969 212.128906 139.644531 211.289062 C 139.992188 210.445312 140.382812 209.625 140.8125 208.820312 C 141.242188 208.015625 141.710938 207.238281 142.21875 206.480469 C 142.726562 205.722656 143.269531 204.992188 143.847656 204.289062 C 144.425781 203.582031 145.039062 202.910156 145.683594 202.265625 C 146.332031 201.621094 147.007812 201.011719 147.710938 200.433594 C 148.417969 199.855469 149.148438 199.3125 149.910156 198.808594 C 150.667969 198.300781 151.449219 197.832031 152.253906 197.402344 C 153.0625 196.976562 153.886719 196.585938 154.726562 196.238281 C 155.570312 195.890625 156.429688 195.582031 157.304688 195.316406 C 158.175781 195.054688 159.0625 194.832031 159.957031 194.65625 C 160.851562 194.476562 161.753906 194.34375 162.664062 194.253906 C 163.570312 194.164062 164.480469 194.121094 165.394531 194.121094 C 166.308594 194.121094 167.21875 194.164062 168.128906 194.253906 C 169.035156 194.34375 169.9375 194.476562 170.832031 194.65625 C 171.726562 194.832031 172.613281 195.054688 173.484375 195.316406 C 174.359375 195.582031 175.21875 195.890625 176.0625 196.238281 C 176.90625 196.585938 177.730469 196.976562 178.535156 197.402344 C 179.339844 197.832031 180.121094 198.300781 180.878906 198.808594 C 181.640625 199.3125 182.371094 199.855469 183.078125 200.433594 C 183.785156 201.011719 184.460938 201.621094 185.105469 202.265625 C 185.75 202.910156 186.363281 203.582031 186.941406 204.289062 C 187.519531 204.992188 188.0625 205.722656 188.570312 206.480469 C 189.078125 207.238281 189.546875 208.015625 189.976562 208.820312 C 190.40625 209.625 190.796875 210.445312 191.148438 211.289062 C 191.496094 212.128906 191.804688 212.984375 192.066406 213.855469 C 192.332031 214.726562 192.554688 215.609375 192.734375 216.503906 C 192.910156 217.398438 193.042969 218.296875 193.132812 219.203125 C 193.222656 220.109375 193.269531 221.019531 193.269531 221.929688 Z M 193.269531 221.929688 " fill-opacity="1" fill-rule="nonzero"/><path fill="#007eb1" d="M 149.398438 209.71875 C 149.398438 210.519531 149.359375 211.3125 149.28125 212.109375 C 149.203125 212.902344 149.085938 213.691406 148.929688 214.472656 C 148.773438 215.257812 148.578125 216.03125 148.347656 216.792969 C 148.113281 217.558594 147.84375 218.308594 147.539062 219.046875 C 147.234375 219.78125 146.890625 220.503906 146.515625 221.207031 C 146.136719 221.910156 145.726562 222.59375 145.28125 223.257812 C 144.835938 223.921875 144.359375 224.5625 143.855469 225.179688 C 143.347656 225.796875 142.808594 226.386719 142.242188 226.949219 C 141.679688 227.515625 141.085938 228.050781 140.46875 228.558594 C 139.847656 229.0625 139.207031 229.539062 138.542969 229.980469 C 137.878906 230.425781 137.191406 230.835938 136.488281 231.210938 C 135.78125 231.585938 135.058594 231.929688 134.320312 232.234375 C 133.582031 232.539062 132.828125 232.808594 132.0625 233.039062 C 131.296875 233.269531 130.523438 233.464844 129.738281 233.621094 C 128.953125 233.777344 128.164062 233.894531 127.367188 233.972656 C 126.570312 234.050781 125.773438 234.089844 124.972656 234.089844 C 124.171875 234.089844 123.375 234.050781 122.578125 233.972656 C 121.78125 233.894531 120.992188 233.777344 120.207031 233.621094 C 119.421875 233.464844 118.648438 233.269531 117.882812 233.039062 C 117.117188 232.808594 116.363281 232.539062 115.625 232.234375 C 114.886719 231.929688 114.164062 231.585938 113.457031 231.210938 C 112.753906 230.835938 112.066406 230.425781 111.402344 229.980469 C 110.738281 229.539062 110.09375 229.0625 109.476562 228.558594 C 108.859375 228.050781 108.265625 227.515625 107.703125 226.949219 C 107.136719 226.386719 106.597656 225.796875 106.089844 225.179688 C 105.585938 224.5625 105.109375 223.921875 104.664062 223.257812 C 104.21875 222.59375 103.808594 221.910156 103.429688 221.207031 C 103.054688 220.503906 102.710938 219.78125 102.40625 219.046875 C 102.101562 218.308594 101.832031 217.558594 101.597656 216.792969 C 101.367188 216.03125 101.171875 215.257812 101.015625 214.472656 C 100.859375 213.691406 100.742188 212.902344 100.664062 212.109375 C 100.585938 211.3125 100.546875 210.519531 100.546875 209.71875 C 100.546875 208.921875 100.585938 208.125 100.664062 207.332031 C 100.742188 206.535156 100.859375 205.75 101.015625 204.964844 C 101.171875 204.183594 101.367188 203.410156 101.597656 202.644531 C 101.832031 201.882812 102.101562 201.132812 102.40625 200.394531 C 102.710938 199.65625 103.054688 198.9375 103.429688 198.230469 C 103.808594 197.527344 104.21875 196.84375 104.664062 196.179688 C 105.109375 195.515625 105.585938 194.878906 106.089844 194.261719 C 106.597656 193.644531 107.136719 193.050781 107.703125 192.488281 C 108.265625 191.925781 108.859375 191.390625 109.476562 190.882812 C 110.09375 190.375 110.738281 189.902344 111.402344 189.457031 C 112.066406 189.015625 112.753906 188.605469 113.457031 188.226562 C 114.164062 187.851562 114.886719 187.511719 115.625 187.207031 C 116.363281 186.902344 117.117188 186.632812 117.882812 186.398438 C 118.648438 186.167969 119.421875 185.976562 120.207031 185.820312 C 120.992188 185.664062 121.78125 185.546875 122.578125 185.46875 C 123.375 185.390625 124.171875 185.351562 124.972656 185.351562 C 125.773438 185.351562 126.570312 185.390625 127.367188 185.46875 C 128.164062 185.546875 128.953125 185.664062 129.738281 185.820312 C 130.523438 185.976562 131.296875 186.167969 132.0625 186.398438 C 132.828125 186.632812 133.582031 186.902344 134.320312 187.207031 C 135.058594 187.511719 135.78125 187.851562 136.488281 188.226562 C 137.191406 188.605469 137.878906 189.015625 138.542969 189.457031 C 139.207031 189.902344 139.847656 190.375 140.46875 190.882812 C 141.085938 191.386719 141.679688 191.925781 142.242188 192.488281 C 142.808594 193.050781 143.347656 193.644531 143.855469 194.261719 C 144.359375 194.878906 144.835938 195.515625 145.28125 196.179688 C 145.726562 196.84375 146.136719 197.527344 146.515625 198.230469 C 146.890625 198.9375 147.234375 199.65625 147.539062 200.394531 C 147.84375 201.132812 148.113281 201.882812 148.347656 202.644531 C 148.578125 203.410156 148.773438 204.183594 148.929688 204.964844 C 149.085938 205.75 149.203125 206.535156 149.28125 207.332031 C 149.359375 208.125 149.398438 208.921875 149.398438 209.71875 Z M 149.398438 209.71875 " fill-opacity="1" fill-rule="nonzero"/><path fill="#007eb1" d="M 39.683594 203.453125 C 39.683594 211.320312 33.292969 217.695312 25.40625 217.695312 C 17.519531 217.695312 11.128906 211.320312 11.128906 203.453125 C 11.128906 195.585938 17.519531 189.210938 25.40625 189.210938 C 33.292969 189.210938 39.683594 195.589844 39.683594 203.453125 Z M 39.683594 203.453125 " fill-opacity="1" fill-rule="nonzero"/><path fill="#007eb1" d="M 295.914062 273.21875 C 296.824219 275.09375 297.351562 277.199219 297.351562 279.429688 C 297.351562 287.289062 290.964844 293.664062 283.078125 293.664062 C 282.542969 293.664062 282.019531 293.636719 281.5 293.578125 C 278.039062 293.195312 274.960938 291.574219 272.6875 289.179688 C 264.527344 299.371094 251.964844 305.910156 237.867188 305.910156 C 226.6875 305.910156 216.480469 301.792969 208.660156 295.015625 C 197.742188 301.972656 184.769531 306.003906 170.851562 306.003906 C 146.320312 306.003906 124.71875 293.464844 112.140625 274.453125 C 107.609375 279.898438 100.769531 283.375 93.125 283.375 C 90.253906 283.375 87.507812 282.890625 84.949219 281.996094 C 75.320312 278.628906 68.421875 269.484375 68.421875 258.730469 C 68.421875 247.742188 75.628906 238.429688 85.589844 235.25 C 87.960938 234.5 90.492188 234.089844 93.125 234.089844 C 95.710938 234.089844 98.210938 234.484375 100.5625 235.226562 C 100.902344 196.78125 132.246094 165.71875 170.851562 165.71875 C 192.335938 165.71875 211.5625 175.339844 224.460938 190.484375 C 232.511719 176.691406 246.117188 166.511719 262.230469 163.039062 C 266.199219 162.179688 270.316406 161.726562 274.539062 161.726562 C 306.527344 161.726562 332.460938 187.59375 332.460938 219.511719 C 332.460938 243.894531 317.320312 264.730469 295.914062 273.21875 Z M 295.914062 273.21875 " fill-opacity="1" fill-rule="nonzero"/><path fill="#11aad4" d="M 343.191406 173.652344 C 343.191406 182.371094 336.105469 189.441406 327.367188 189.441406 C 318.628906 189.441406 311.542969 182.371094 311.542969 173.652344 C 311.542969 164.933594 318.628906 157.867188 327.367188 157.867188 C 336.105469 157.867188 343.191406 164.933594 343.191406 173.652344 Z M 343.191406 173.652344 " fill-opacity="1" fill-rule="nonzero"/><path fill="#ffffff" d="M 339.121094 173.855469 C 338.367188 173.855469 337.761719 173.25 337.761719 172.5 C 337.761719 167.308594 333.53125 163.089844 328.328125 163.089844 C 327.574219 163.089844 326.96875 162.480469 326.96875 161.730469 C 326.96875 160.980469 327.574219 160.375 328.328125 160.375 C 335.035156 160.375 340.488281 165.8125 340.488281 172.507812 C 340.480469 173.25 339.871094 173.855469 339.121094 173.855469 Z M 339.121094 173.855469 " fill-opacity="1" fill-rule="nonzero"/><path fill="#48e5ff" d="M 48.53125 133.511719 C 47.335938 133.511719 46.367188 132.546875 46.367188 131.355469 C 46.367188 123.132812 39.660156 116.441406 31.421875 116.441406 C 30.226562 116.441406 29.257812 115.476562 29.257812 114.285156 C 29.257812 113.09375 30.226562 112.128906 31.421875 112.128906 C 42.046875 112.128906 50.691406 120.753906 50.691406 131.355469 C 50.691406 132.546875 49.722656 133.511719 48.53125 133.511719 Z M 48.53125 133.511719 " fill-opacity="1" fill-rule="nonzero"/><path fill="#11aad4" d="M 59.964844 253.777344 C 59.964844 260.078125 54.847656 265.1875 48.53125 265.1875 C 42.210938 265.1875 37.09375 260.078125 37.09375 253.777344 C 37.09375 247.472656 42.210938 242.367188 48.53125 242.367188 C 54.847656 242.367188 59.964844 247.472656 59.964844 253.777344 Z M 59.964844 253.777344 " fill-opacity="1" fill-rule="nonzero"/><path fill="#11aad4" d="M 362.1875 216.988281 C 362.1875 223.292969 357.070312 228.398438 350.75 228.398438 C 344.433594 228.398438 339.316406 223.292969 339.316406 216.988281 C 339.316406 210.6875 344.433594 205.578125 350.75 205.578125 C 357.070312 205.578125 362.1875 210.6875 362.1875 216.988281 Z M 362.1875 216.988281 " fill-opacity="1" fill-rule="nonzero"/><path fill="#007eb1" d="M 65.683594 277.300781 C 65.683594 280.453125 63.125 283.007812 59.964844 283.007812 C 56.808594 283.007812 54.246094 280.453125 54.246094 277.300781 C 54.246094 274.148438 56.808594 271.597656 59.964844 271.597656 C 63.117188 271.597656 65.683594 274.148438 65.683594 277.300781 Z M 65.683594 277.300781 " fill-opacity="1" fill-rule="nonzero"/><path fill="#007eb1" d="M 367.90625 191.617188 C 367.90625 194.769531 365.34375 197.324219 362.1875 197.324219 C 359.027344 197.324219 356.46875 194.769531 356.46875 191.617188 C 356.46875 188.464844 359.027344 185.914062 362.1875 185.914062 C 365.34375 185.914062 367.90625 188.464844 367.90625 191.617188 Z M 367.90625 191.617188 " fill-opacity="1" fill-rule="nonzero"/><path fill="#007eb1" d="M 288.152344 38.5625 C 288.152344 41.714844 285.59375 44.265625 282.433594 44.265625 C 279.273438 44.265625 276.714844 41.714844 276.714844 38.5625 C 276.714844 35.410156 279.273438 32.855469 282.433594 32.855469 C 285.59375 32.855469 288.152344 35.417969 288.152344 38.5625 Z M 288.152344 38.5625 " fill-opacity="1" fill-rule="nonzero"/><path fill="#007eb1" d="M 42.8125 98.800781 C 42.8125 101.953125 40.253906 104.507812 37.09375 104.507812 C 33.9375 104.507812 31.375 101.953125 31.375 98.800781 C 31.375 95.648438 33.9375 93.097656 37.09375 93.097656 C 40.253906 93.097656 42.8125 95.65625 42.8125 98.800781 Z M 42.8125 98.800781 " fill-opacity="1" fill-rule="nonzero"/><path fill="#ffffff" d="M 285.5 76.421875 C 285.355469 76.421875 285.210938 76.402344 285.066406 76.359375 C 284.210938 76.121094 283.710938 75.234375 283.953125 74.375 C 284.820312 71.289062 284.761719 68.050781 283.777344 64.992188 C 282.121094 59.816406 278.003906 55.8125 272.769531 54.285156 C 271.914062 54.03125 271.425781 53.144531 271.675781 52.292969 C 271.929688 51.441406 272.804688 50.953125 273.671875 51.203125 C 279.941406 53.035156 284.863281 57.824219 286.84375 64.019531 C 288.019531 67.683594 288.085938 71.5625 287.046875 75.253906 C 286.851562 75.960938 286.199219 76.421875 285.5 76.421875 Z M 285.5 76.421875 " fill-opacity="1" fill-rule="nonzero"/><path fill="#ffffff" d="M 283.078125 178.464844 L 281.5 293.578125 C 278.039062 293.195312 274.960938 291.574219 272.6875 289.179688 C 264.527344 299.371094 251.964844 305.910156 237.867188 305.910156 C 226.6875 305.910156 216.480469 301.792969 208.660156 295.015625 C 197.742188 301.972656 184.769531 306.003906 170.851562 306.003906 C 146.320312 306.003906 124.71875 293.464844 112.140625 274.453125 C 107.609375 279.898438 100.769531 283.375 93.125 283.375 C 90.253906 283.375 87.507812 282.890625 84.949219 281.996094 L 85.589844 235.25 L 86.371094 178.464844 L 182.792969 104.253906 L 262.230469 163.039062 Z M 283.078125 178.464844 " fill-opacity="1" fill-rule="nonzero"/><path fill="#0071af" d="M 160.863281 180.613281 L 183.761719 180.613281 L 183.761719 203.460938 L 160.863281 203.460938 Z M 160.863281 180.613281 " fill-opacity="1" fill-rule="nonzero"/><path fill="#0071af" d="M 186.8125 180.613281 L 209.714844 180.613281 L 209.714844 203.460938 L 186.8125 203.460938 Z M 186.8125 180.613281 " fill-opacity="1" fill-rule="nonzero"/><path fill="#0071af" d="M 160.863281 206.503906 L 183.761719 206.503906 L 183.761719 229.351562 L 160.863281 229.351562 Z M 160.863281 206.503906 " fill-opacity="1" fill-rule="nonzero"/><path fill="#0071af" d="M 186.8125 206.503906 L 209.714844 206.503906 L 209.714844 229.351562 L 186.8125 229.351562 Z M 186.8125 206.503906 " fill-opacity="1" fill-rule="nonzero"/><path fill="#ffffff" d="M 293.976562 176.335938 C 292.460938 176.335938 290.933594 175.867188 289.625 174.902344 L 182.75 96.140625 L 77.949219 174.863281 C 74.71875 177.296875 70.121094 176.644531 67.6875 173.421875 C 65.25 170.191406 65.902344 165.613281 69.132812 163.183594 L 178.296875 81.175781 C 180.894531 79.230469 184.457031 79.207031 187.058594 81.140625 L 298.328125 163.144531 C 301.582031 165.546875 302.277344 170.125 299.867188 173.371094 C 298.4375 175.3125 296.21875 176.335938 293.976562 176.335938 Z M 293.976562 176.335938 " fill-opacity="1" fill-rule="nonzero"/></svg>