<svg xmlns="http://www.w3.org/2000/svg" xmlns:xlink="http://www.w3.org/1999/xlink" width="400" zoomAndPan="magnify" viewBox="0 0 300 56.249996" height="75" preserveAspectRatio="xMidYMid meet" version="1.0"><defs><g/><clipPath id="40816ac2fe"><path d="M 221 2.683594 L 225 2.683594 L 225 6 L 221 6 Z M 221 2.683594 " clip-rule="nonzero"/></clipPath><clipPath id="33b5555284"><path d="M 210.996094 13 L 214 13 L 214 17 L 210.996094 17 Z M 210.996094 13 " clip-rule="nonzero"/></clipPath><clipPath id="47504c7c08"><path d="M 221 24 L 225 24 L 225 26.933594 L 221 26.933594 Z M 221 24 " clip-rule="nonzero"/></clipPath><clipPath id="471260badc"><path d="M 232 13 L 235.25 13 L 235.25 17 L 232 17 Z M 232 13 " clip-rule="nonzero"/></clipPath><clipPath id="8594cc4d4a"><path d="M 42.242188 18.183594 L 74.808594 18.183594 L 74.808594 50.746094 L 42.242188 50.746094 Z M 42.242188 18.183594 " clip-rule="nonzero"/></clipPath><clipPath id="61d7f71b02"><path d="M 53 29 L 74.808594 29 L 74.808594 50.746094 L 53 50.746094 Z M 53 29 " clip-rule="nonzero"/></clipPath></defs><g fill="#000000" fill-opacity="1"><g transform="translate(6.649509, 46.908756)"><g><path d="M 9.828125 -27.1875 L 9.828125 -15.5 L 26.40625 -15.5 L 26.40625 -27.1875 L 30.609375 -27.1875 L 30.609375 0 L 26.40625 0 L 26.40625 -11.453125 L 9.828125 -11.453125 L 9.828125 0 L 5.625 0 L 5.625 -27.1875 Z M 9.828125 -27.1875 "/></g></g><g transform="translate(42.890685, 46.908756)"><g><path d="M 27.765625 -10.21875 C 27.765625 -8.144531 27.238281 -6.3125 26.1875 -4.71875 C 25.144531 -3.125 23.71875 -1.875 21.90625 -0.96875 C 20.09375 -0.0625 18.007812 0.390625 15.65625 0.390625 C 13.300781 0.390625 11.207031 -0.0625 9.375 -0.96875 C 7.550781 -1.875 6.113281 -3.125 5.0625 -4.71875 C 4.019531 -6.3125 3.5 -8.144531 3.5 -10.21875 C 3.5 -12.289062 4.019531 -14.117188 5.0625 -15.703125 C 6.113281 -17.296875 7.550781 -18.546875 9.375 -19.453125 C 11.207031 -20.359375 13.300781 -20.8125 15.65625 -20.8125 C 18.007812 -20.8125 20.09375 -20.359375 21.90625 -19.453125 C 23.71875 -18.546875 25.144531 -17.296875 26.1875 -15.703125 C 27.238281 -14.117188 27.765625 -12.289062 27.765625 -10.21875 Z M 23.6875 -10.21875 C 23.71875 -11.59375 23.375 -12.800781 22.65625 -13.84375 C 21.945312 -14.894531 20.984375 -15.710938 19.765625 -16.296875 C 18.554688 -16.878906 17.1875 -17.171875 15.65625 -17.171875 C 14.15625 -17.171875 12.78125 -16.878906 11.53125 -16.296875 C 10.289062 -15.710938 9.3125 -14.894531 8.59375 -13.84375 C 7.882812 -12.800781 7.546875 -11.59375 7.578125 -10.21875 C 7.546875 -8.875 7.882812 -7.675781 8.59375 -6.625 C 9.3125 -5.570312 10.289062 -4.75 11.53125 -4.15625 C 12.78125 -3.5625 14.15625 -3.265625 15.65625 -3.265625 C 17.1875 -3.265625 18.566406 -3.5625 19.796875 -4.15625 C 21.023438 -4.75 21.988281 -5.570312 22.6875 -6.625 C 23.382812 -7.675781 23.71875 -8.875 23.6875 -10.21875 Z M 23.6875 -10.21875 "/></g></g><g transform="translate(74.159867, 46.908756)"><g><path d="M 17.671875 -20.75 C 19.429688 -20.75 20.925781 -20.378906 22.15625 -19.640625 C 23.382812 -18.898438 24.25 -17.816406 24.75 -16.390625 C 25.238281 -17.015625 25.910156 -17.660156 26.765625 -18.328125 C 27.617188 -19.003906 28.601562 -19.578125 29.71875 -20.046875 C 30.832031 -20.515625 32.035156 -20.75 33.328125 -20.75 C 35.347656 -20.75 36.929688 -20.351562 38.078125 -19.5625 C 39.234375 -18.769531 40.050781 -17.710938 40.53125 -16.390625 C 41.007812 -15.066406 41.25 -13.601562 41.25 -12 L 41.25 0 L 37.21875 0 L 37.21875 -11.578125 C 37.21875 -13.203125 36.851562 -14.519531 36.125 -15.53125 C 35.394531 -16.539062 34.148438 -17.046875 32.390625 -17.046875 C 31.046875 -17.046875 29.84375 -16.765625 28.78125 -16.203125 C 27.71875 -15.648438 26.878906 -14.90625 26.265625 -13.96875 C 25.660156 -13.039062 25.359375 -12.007812 25.359375 -10.875 L 25.359375 0 L 21.328125 0 L 21.328125 -11.65625 C 21.328125 -13.226562 20.910156 -14.519531 20.078125 -15.53125 C 19.253906 -16.539062 17.894531 -17.046875 16 -17.046875 C 14.757812 -17.046875 13.648438 -16.753906 12.671875 -16.171875 C 11.703125 -15.585938 10.945312 -14.863281 10.40625 -14 C 9.863281 -13.132812 9.59375 -12.273438 9.59375 -11.421875 L 9.59375 0 L 5.546875 0 L 5.546875 -20.390625 L 9.59375 -20.390625 L 9.59375 -17.09375 C 10.375 -18.019531 11.460938 -18.859375 12.859375 -19.609375 C 14.253906 -20.367188 15.859375 -20.75 17.671875 -20.75 Z M 17.671875 -20.75 "/></g></g></g><g fill="#000000" fill-opacity="1"><g transform="translate(120.888842, 46.908756)"><g><path d="M 25.515625 -2.6875 L 25.484375 -2.6875 C 24.804688 -2.164062 23.957031 -1.664062 22.9375 -1.1875 C 21.914062 -0.707031 20.789062 -0.320312 19.5625 -0.03125 C 18.332031 0.25 17.082031 0.390625 15.8125 0.390625 C 13.320312 0.390625 11.140625 -0.0546875 9.265625 -0.953125 C 7.390625 -1.847656 5.925781 -3.078125 4.875 -4.640625 C 3.820312 -6.203125 3.296875 -7.984375 3.296875 -9.984375 C 3.296875 -12.265625 3.851562 -14.210938 4.96875 -15.828125 C 6.082031 -17.441406 7.554688 -18.679688 9.390625 -19.546875 C 11.234375 -20.421875 13.253906 -20.859375 15.453125 -20.859375 C 17.472656 -20.859375 19.3125 -20.4375 20.96875 -19.59375 C 22.632812 -18.75 23.957031 -17.585938 24.9375 -16.109375 C 25.914062 -14.640625 26.40625 -12.921875 26.40625 -10.953125 L 26.375 -9.015625 L 7.375 -9.015625 C 7.6875 -7.253906 8.65625 -5.859375 10.28125 -4.828125 C 11.914062 -3.804688 13.953125 -3.296875 16.390625 -3.296875 C 18.203125 -3.296875 19.679688 -3.566406 20.828125 -4.109375 C 21.984375 -4.660156 22.925781 -5.179688 23.65625 -5.671875 Z M 15.453125 -17.171875 C 13.460938 -17.171875 11.734375 -16.796875 10.265625 -16.046875 C 8.804688 -15.296875 7.867188 -14.015625 7.453125 -12.203125 L 22.328125 -12.203125 L 22.328125 -12.703125 C 22.234375 -13.578125 21.847656 -14.351562 21.171875 -15.03125 C 20.492188 -15.707031 19.648438 -16.234375 18.640625 -16.609375 C 17.628906 -16.984375 16.566406 -17.171875 15.453125 -17.171875 Z M 15.453125 -17.171875 "/></g></g></g><g fill="#000000" fill-opacity="1"><g transform="translate(151.148083, 46.908756)"><g><path d="M 6.375 -8.3125 C 7.71875 -6.726562 9.117188 -5.507812 10.578125 -4.65625 C 12.046875 -3.800781 13.84375 -3.375 15.96875 -3.375 C 17.101562 -3.375 18.191406 -3.519531 19.234375 -3.8125 C 20.285156 -4.113281 21.15625 -4.566406 21.84375 -5.171875 C 22.53125 -5.785156 22.875 -6.546875 22.875 -7.453125 C 22.875 -8.753906 22.1875 -9.6875 20.8125 -10.25 C 19.445312 -10.820312 17.519531 -11.289062 15.03125 -11.65625 C 11.976562 -12.125 9.546875 -12.984375 7.734375 -14.234375 C 5.921875 -15.492188 5.015625 -17.328125 5.015625 -19.734375 C 5.015625 -21.367188 5.5 -22.765625 6.46875 -23.921875 C 7.4375 -25.085938 8.75 -25.988281 10.40625 -26.625 C 12.0625 -27.257812 13.890625 -27.578125 15.890625 -27.578125 C 18.367188 -27.578125 20.515625 -27.160156 22.328125 -26.328125 C 24.140625 -25.503906 25.566406 -24.328125 26.609375 -22.796875 L 23.734375 -19.8125 C 22.878906 -21 21.773438 -21.960938 20.421875 -22.703125 C 19.078125 -23.441406 17.523438 -23.8125 15.765625 -23.8125 C 13.953125 -23.8125 12.4375 -23.476562 11.21875 -22.8125 C 10.007812 -22.15625 9.40625 -21.234375 9.40625 -20.046875 C 9.40625 -18.648438 10.054688 -17.660156 11.359375 -17.078125 C 12.671875 -16.492188 14.390625 -16.03125 16.515625 -15.6875 C 17.910156 -15.476562 19.25 -15.207031 20.53125 -14.875 C 21.8125 -14.539062 22.957031 -14.09375 23.96875 -13.53125 C 24.976562 -12.976562 25.78125 -12.273438 26.375 -11.421875 C 26.96875 -10.566406 27.265625 -9.503906 27.265625 -8.234375 C 27.265625 -6.492188 26.796875 -4.976562 25.859375 -3.6875 C 24.929688 -2.394531 23.609375 -1.390625 21.890625 -0.671875 C 20.171875 0.0351562 18.128906 0.390625 15.765625 0.390625 C 13.253906 0.390625 10.988281 -0.0195312 8.96875 -0.84375 C 6.945312 -1.675781 5.175781 -3.023438 3.65625 -4.890625 Z M 6.375 -8.3125 "/></g></g></g><g fill="#000000" fill-opacity="1"><g transform="translate(182.145351, 46.908756)"><g><path d="M 17.984375 -20.8125 C 19.953125 -20.8125 21.546875 -20.421875 22.765625 -19.640625 C 23.984375 -18.867188 24.875 -17.828125 25.4375 -16.515625 C 26.007812 -15.210938 26.296875 -13.773438 26.296875 -12.203125 L 26.296875 0 L 22.296875 0 L 22.296875 -11.734375 C 22.296875 -13.335938 21.796875 -14.65625 20.796875 -15.6875 C 19.804688 -16.726562 18.425781 -17.234375 16.65625 -17.203125 C 15.394531 -17.203125 14.257812 -16.90625 13.25 -16.3125 C 12.238281 -15.71875 11.445312 -14.984375 10.875 -14.109375 C 10.300781 -13.242188 10.015625 -12.375 10.015625 -11.5 L 10.015625 0 L 6.015625 0 L 6.015625 -28.75 L 10.015625 -28.75 L 10.015625 -17.046875 C 10.816406 -18.054688 11.921875 -18.9375 13.328125 -19.6875 C 14.742188 -20.4375 16.296875 -20.8125 17.984375 -20.8125 Z M 17.984375 -20.8125 "/></g></g></g><g fill="#000000" fill-opacity="1"><g transform="translate(214.385622, 46.908756)"><g><path d="M 8.28125 -24.828125 C 7.375 -24.828125 6.695312 -25.054688 6.25 -25.515625 C 5.8125 -25.984375 5.59375 -26.59375 5.59375 -27.34375 C 5.59375 -27.988281 5.8125 -28.570312 6.25 -29.09375 C 6.695312 -29.613281 7.375 -29.875 8.28125 -29.875 C 9.1875 -29.875 9.859375 -29.640625 10.296875 -29.171875 C 10.734375 -28.703125 10.953125 -28.09375 10.953125 -27.34375 C 10.953125 -26.695312 10.734375 -26.113281 10.296875 -25.59375 C 9.859375 -25.082031 9.1875 -24.828125 8.28125 -24.828125 Z M 10.296875 0 L 6.296875 0 L 6.296875 -20.390625 L 10.296875 -20.390625 Z M 10.296875 0 "/></g></g></g><g fill="#000000" fill-opacity="1"><g transform="translate(230.855366, 46.908756)"><g><path d="M 17.796875 -20.8125 C 19.785156 -20.8125 21.40625 -20.421875 22.65625 -19.640625 C 23.914062 -18.867188 24.835938 -17.828125 25.421875 -16.515625 C 26.003906 -15.210938 26.296875 -13.773438 26.296875 -12.203125 L 26.296875 0 L 22.296875 0 L 22.296875 -11.734375 C 22.296875 -13.304688 21.796875 -14.609375 20.796875 -15.640625 C 19.804688 -16.679688 18.425781 -17.175781 16.65625 -17.125 C 15.394531 -17.125 14.257812 -16.835938 13.25 -16.265625 C 12.238281 -15.703125 11.445312 -14.984375 10.875 -14.109375 C 10.300781 -13.242188 10.015625 -12.375 10.015625 -11.5 L 10.015625 0 L 6.015625 0 L 6.015625 -20.390625 L 10.015625 -20.390625 L 10.015625 -16.859375 C 10.847656 -17.921875 11.925781 -18.84375 13.25 -19.625 C 14.570312 -20.414062 16.085938 -20.8125 17.796875 -20.8125 Z M 17.796875 -20.8125 "/></g></g></g><g fill="#000000" fill-opacity="1"><g transform="translate(263.095627, 46.908756)"><g><path d="M 25.515625 -2.6875 L 25.484375 -2.6875 C 24.804688 -2.164062 23.957031 -1.664062 22.9375 -1.1875 C 21.914062 -0.707031 20.789062 -0.320312 19.5625 -0.03125 C 18.332031 0.25 17.082031 0.390625 15.8125 0.390625 C 13.320312 0.390625 11.140625 -0.0546875 9.265625 -0.953125 C 7.390625 -1.847656 5.925781 -3.078125 4.875 -4.640625 C 3.820312 -6.203125 3.296875 -7.984375 3.296875 -9.984375 C 3.296875 -12.265625 3.851562 -14.210938 4.96875 -15.828125 C 6.082031 -17.441406 7.554688 -18.679688 9.390625 -19.546875 C 11.234375 -20.421875 13.253906 -20.859375 15.453125 -20.859375 C 17.472656 -20.859375 19.3125 -20.4375 20.96875 -19.59375 C 22.632812 -18.75 23.957031 -17.585938 24.9375 -16.109375 C 25.914062 -14.640625 26.40625 -12.921875 26.40625 -10.953125 L 26.375 -9.015625 L 7.375 -9.015625 C 7.6875 -7.253906 8.65625 -5.859375 10.28125 -4.828125 C 11.914062 -3.804688 13.953125 -3.296875 16.390625 -3.296875 C 18.203125 -3.296875 19.679688 -3.566406 20.828125 -4.109375 C 21.984375 -4.660156 22.925781 -5.179688 23.65625 -5.671875 Z M 15.453125 -17.171875 C 13.460938 -17.171875 11.734375 -16.796875 10.265625 -16.046875 C 8.804688 -15.296875 7.867188 -14.015625 7.453125 -12.203125 L 22.328125 -12.203125 L 22.328125 -12.703125 C 22.234375 -13.578125 21.847656 -14.351562 21.171875 -15.03125 C 20.492188 -15.707031 19.648438 -16.234375 18.640625 -16.609375 C 17.628906 -16.984375 16.566406 -17.171875 15.453125 -17.171875 Z M 15.453125 -17.171875 "/></g></g></g><path fill="#ffde59" d="M 231.378906 14.808594 C 231.378906 15.351562 231.328125 15.886719 231.21875 16.417969 C 231.113281 16.953125 230.957031 17.46875 230.75 17.96875 C 230.542969 18.46875 230.289062 18.945312 229.988281 19.394531 C 229.6875 19.847656 229.34375 20.261719 228.960938 20.648438 C 228.578125 21.03125 228.160156 21.371094 227.710938 21.671875 C 227.257812 21.972656 226.785156 22.230469 226.28125 22.4375 C 225.78125 22.644531 225.265625 22.800781 224.734375 22.90625 C 224.203125 23.011719 223.664062 23.066406 223.125 23.066406 C 222.582031 23.066406 222.042969 23.011719 221.511719 22.90625 C 220.980469 22.800781 220.464844 22.644531 219.964844 22.4375 C 219.464844 22.230469 218.988281 21.972656 218.535156 21.671875 C 218.085938 21.371094 217.667969 21.03125 217.285156 20.648438 C 216.902344 20.261719 216.558594 19.847656 216.257812 19.394531 C 215.957031 18.945312 215.703125 18.46875 215.496094 17.96875 C 215.289062 17.46875 215.132812 16.953125 215.027344 16.417969 C 214.921875 15.886719 214.867188 15.351562 214.867188 14.808594 C 214.867188 14.265625 214.921875 13.730469 215.027344 13.199219 C 215.132812 12.667969 215.289062 12.152344 215.496094 11.648438 C 215.703125 11.148438 215.957031 10.671875 216.257812 10.222656 C 216.558594 9.773438 216.902344 9.355469 217.285156 8.972656 C 217.667969 8.589844 218.085938 8.246094 218.535156 7.945312 C 218.988281 7.644531 219.464844 7.390625 219.964844 7.183594 C 220.464844 6.972656 220.980469 6.816406 221.511719 6.710938 C 222.042969 6.605469 222.582031 6.554688 223.125 6.554688 C 223.664062 6.554688 224.203125 6.605469 224.734375 6.710938 C 225.265625 6.816406 225.78125 6.972656 226.28125 7.183594 C 226.785156 7.390625 227.257812 7.644531 227.710938 7.945312 C 228.160156 8.246094 228.578125 8.589844 228.960938 8.972656 C 229.34375 9.355469 229.6875 9.773438 229.988281 10.222656 C 230.289062 10.671875 230.542969 11.148438 230.75 11.648438 C 230.957031 12.152344 231.113281 12.667969 231.21875 13.199219 C 231.328125 13.730469 231.378906 14.265625 231.378906 14.808594 Z M 231.378906 14.808594 " fill-opacity="1" fill-rule="nonzero"/><g clip-path="url(#40816ac2fe)"><path fill="#ffde59" d="M 221.492188 5.507812 L 223.125 2.683594 L 224.753906 5.507812 Z M 221.492188 5.507812 " fill-opacity="1" fill-rule="nonzero"/></g><path fill="#ffde59" d="M 217.0625 7.566406 L 217.058594 4.308594 L 219.882812 5.9375 Z M 217.0625 7.566406 " fill-opacity="1" fill-rule="nonzero"/><path fill="#ffde59" d="M 214.253906 11.570312 L 212.621094 8.746094 L 215.882812 8.746094 Z M 214.253906 11.570312 " fill-opacity="1" fill-rule="nonzero"/><g clip-path="url(#33b5555284)"><path fill="#ffde59" d="M 213.820312 16.4375 L 210.996094 14.808594 L 213.820312 13.179688 Z M 213.820312 16.4375 " fill-opacity="1" fill-rule="nonzero"/></g><path fill="#ffde59" d="M 215.882812 20.871094 L 212.621094 20.871094 L 214.253906 18.050781 Z M 215.882812 20.871094 " fill-opacity="1" fill-rule="nonzero"/><path fill="#ffde59" d="M 219.882812 23.679688 L 217.0625 25.3125 L 217.0625 22.050781 Z M 219.882812 23.679688 " fill-opacity="1" fill-rule="nonzero"/><g clip-path="url(#47504c7c08)"><path fill="#ffde59" d="M 224.753906 24.113281 L 223.125 26.933594 L 221.492188 24.113281 Z M 224.753906 24.113281 " fill-opacity="1" fill-rule="nonzero"/></g><path fill="#ffde59" d="M 229.1875 22.050781 L 229.1875 25.3125 L 226.363281 23.679688 Z M 229.1875 22.050781 " fill-opacity="1" fill-rule="nonzero"/><path fill="#ffde59" d="M 231.996094 18.050781 L 233.625 20.871094 L 230.363281 20.871094 Z M 231.996094 18.050781 " fill-opacity="1" fill-rule="nonzero"/><g clip-path="url(#471260badc)"><path fill="#ffde59" d="M 232.425781 13.179688 L 235.25 14.808594 L 232.425781 16.4375 Z M 232.425781 13.179688 " fill-opacity="1" fill-rule="nonzero"/></g><path fill="#ffde59" d="M 230.363281 8.746094 L 233.625 8.746094 L 231.996094 11.570312 Z M 230.363281 8.746094 " fill-opacity="1" fill-rule="nonzero"/><path fill="#ffde59" d="M 226.363281 5.9375 L 229.1875 4.308594 L 229.1875 7.566406 Z M 226.363281 5.9375 " fill-opacity="1" fill-rule="nonzero"/><g clip-path="url(#8594cc4d4a)"><path fill="#32afcc" d="M 74.195312 38.894531 C 73.464844 41.488281 72.078125 43.9375 70.039062 45.980469 C 67.996094 48.019531 65.546875 49.40625 62.953125 50.136719 C 57.46875 51.683594 51.328125 50.296875 47.011719 45.980469 C 40.816406 39.785156 40.65625 29.839844 46.535156 23.449219 C 46.6875 23.28125 46.847656 23.113281 47.011719 22.953125 C 47.175781 22.789062 47.339844 22.628906 47.511719 22.472656 C 53.898438 16.597656 63.84375 16.757812 70.039062 22.953125 C 74.355469 27.269531 75.742188 33.40625 74.195312 38.894531 " fill-opacity="1" fill-rule="nonzero"/></g><g clip-path="url(#61d7f71b02)"><path fill="#5ad4ff" d="M 74.195312 38.894531 C 73.464844 41.488281 72.078125 43.9375 70.039062 45.980469 C 67.996094 48.019531 65.546875 49.40625 62.953125 50.136719 L 53.847656 38.351562 L 62.414062 29.789062 L 74.195312 38.894531 " fill-opacity="1" fill-rule="nonzero"/></g><path fill="#ffffff" d="M 53.042969 28.007812 L 52.066406 28.984375 L 46.535156 23.449219 C 46.6875 23.28125 46.847656 23.113281 47.011719 22.953125 C 47.175781 22.789062 47.339844 22.628906 47.511719 22.472656 L 53.042969 28.007812 " fill-opacity="1" fill-rule="nonzero"/><path fill="#ffffff" d="M 59.535156 26.914062 L 62.414062 29.789062 L 53.847656 38.351562 L 50.972656 35.476562 L 59.535156 26.914062 " fill-opacity="1" fill-rule="nonzero"/><path fill="#ffffff" d="M 51.003906 28.71875 L 52.78125 26.945312 L 56.140625 30.308594 L 54.367188 32.082031 L 51.003906 28.71875 " fill-opacity="1" fill-rule="nonzero"/><path fill="#ffffff" d="M 68.792969 41.558594 L 67.894531 40.179688 L 66.265625 40.433594 L 67.644531 39.53125 L 67.390625 37.90625 L 68.292969 39.285156 L 69.917969 39.03125 L 68.539062 39.929688 L 68.792969 41.558594 " fill-opacity="1" fill-rule="nonzero"/><path fill="#ffffff" d="M 61 40.792969 L 59.738281 40.621094 L 59.066406 41.703125 L 59.234375 40.441406 L 58.152344 39.769531 L 59.414062 39.9375 L 60.089844 38.855469 L 59.917969 40.117188 L 61 40.792969 " fill-opacity="1" fill-rule="nonzero"/><path fill="#ffffff" d="M 63.785156 33.507812 L 63.03125 33.40625 L 62.632812 34.050781 L 62.730469 33.296875 L 62.085938 32.898438 L 62.839844 33 L 63.242188 32.355469 L 63.140625 33.105469 L 63.785156 33.507812 " fill-opacity="1" fill-rule="nonzero"/><path fill="#ffffff" d="M 64.703125 46.800781 L 63.953125 46.699219 L 63.550781 47.34375 L 63.652344 46.589844 L 63.007812 46.191406 L 63.761719 46.289062 L 64.160156 45.644531 L 64.058594 46.398438 L 64.703125 46.800781 " fill-opacity="1" fill-rule="nonzero"/></svg>