<?xml version="1.0" standalone="no"?>
<!DOCTYPE svg PUBLIC "-//W3C//DTD SVG 20010904//EN"
 "http://www.w3.org/TR/2001/REC-SVG-20010904/DTD/svg10.dtd">
<svg version="1.0" xmlns="http://www.w3.org/2000/svg"
 width="1000.000000pt" height="1000.000000pt" viewBox="0 0 1000.000000 1000.000000"
 preserveAspectRatio="xMidYMid meet">
<metadata>
Created by potrace 1.14, written by Peter Selinger 2001-2017
</metadata>
<g transform="translate(0.000000,1000.000000) scale(0.100000,-0.100000)"
fill="#000000" stroke="none">
<path d="M4556 8968 c-38 -173 -60 -230 -111 -287 -44 -49 -114 -83 -215 -106
-123 -28 -124 -29 -20 -53 212 -49 283 -118 326 -312 27 -123 28 -124 52 -20
51 218 113 281 331 331 95 22 100 31 26 43 -22 4 -75 18 -117 32 -137 45 -197
121 -239 304 -11 49 -23 90 -25 90 -2 0 -6 -10 -8 -22z"/>
<path d="M5437 8793 c-2 -5 -7 -24 -11 -44 -8 -47 -48 -87 -95 -95 -64 -12
-65 -20 -3 -37 68 -19 81 -31 97 -93 6 -25 15 -45 20 -45 5 0 14 20 20 45 16
62 29 74 97 93 62 17 61 25 -3 37 -51 9 -87 46 -95 96 -6 39 -18 58 -27 43z"/>
<path d="M1674 8553 c-12 -24 -31 -43 -51 -52 -18 -8 -33 -17 -33 -20 0 -3 15
-13 33 -21 19 -9 39 -30 50 -53 l19 -37 21 42 c16 32 31 46 55 53 17 5 32 12
32 15 0 3 -16 12 -36 19 -27 10 -40 23 -54 53 l-18 40 -18 -39z"/>
<path d="M1938 8279 c-29 -141 -79 -187 -225 -212 -34 -6 -63 -14 -63 -18 0
-4 17 -10 38 -14 168 -30 224 -79 251 -220 19 -95 22 -95 45 0 35 145 64 173
209 210 96 24 97 28 7 44 -141 25 -191 77 -220 229 -7 34 -15 62 -19 62 -4 0
-14 -37 -23 -81z"/>
<path d="M5915 8210 c-147 -18 -275 -58 -416 -131 l-79 -41 -38 25 c-82 57
-130 72 -232 72 -85 0 -101 -3 -155 -29 -114 -56 -194 -163 -214 -286 -6 -35
-12 -64 -13 -66 -2 -1 -51 21 -109 49 -127 63 -258 109 -394 139 -86 19 -131
22 -320 23 -195 0 -232 -3 -323 -23 -145 -33 -289 -84 -411 -147 l-103 -54
-32 24 c-58 44 -164 87 -256 102 -81 14 -99 14 -182 0 -268 -45 -462 -245
-499 -515 -26 -189 48 -388 192 -515 32 -28 57 -53 55 -55 -2 -2 -22 6 -44 17
-112 57 -311 84 -462 62 -209 -31 -409 -147 -536 -312 -100 -130 -161 -288
-171 -445 l-6 -92 -36 22 c-156 99 -355 120 -535 58 -185 -64 -333 -213 -398
-401 -20 -56 -23 -86 -22 -196 0 -109 4 -141 23 -195 65 -187 221 -342 399
-399 l70 -23 6 -121 c16 -277 93 -502 247 -728 60 -87 182 -220 253 -277 37
-29 38 -31 27 -64 -21 -65 -41 -203 -41 -289 0 -321 155 -629 414 -821 81 -60
235 -140 293 -153 32 -6 32 -7 19 -33 -45 -90 -61 -166 -61 -292 0 -111 3
-134 29 -208 32 -96 104 -210 171 -271 80 -74 224 -156 241 -138 3 3 12 511
20 1129 8 617 18 1237 22 1377 l7 254 1025 789 c564 434 1137 875 1274 981
137 105 252 193 256 195 5 2 208 -145 452 -325 243 -181 614 -455 823 -610
209 -155 607 -449 885 -655 l505 -374 -2 -489 c-2 -468 -15 -1478 -29 -2232
l-6 -352 24 -6 c40 -10 148 14 211 47 71 38 130 102 165 176 34 73 43 216 18
276 -9 21 -16 40 -16 42 0 2 42 23 94 48 366 176 656 501 790 885 65 187 80
280 79 506 0 142 -4 222 -15 275 -9 41 -15 75 -15 76 1 1 43 22 93 48 245 126
428 348 510 621 25 83 28 104 28 265 0 140 -3 188 -18 240 -64 231 -177 408
-349 545 -74 60 -210 137 -284 163 l-33 11 0 154 0 153 55 23 c73 31 139 96
177 177 28 61 30 71 26 157 -5 107 -24 152 -95 228 -67 72 -139 103 -238 104
-44 0 -96 -4 -115 -8 -34 -8 -36 -7 -58 32 -37 65 -140 201 -205 268 l-59 62
29 38 c76 97 123 228 123 343 0 72 -32 197 -67 263 -41 77 -155 187 -233 225
-165 80 -341 82 -491 7 l-47 -24 -39 30 c-46 37 -128 80 -203 105 -58 19 -250
27 -320 12 -32 -7 -37 -5 -60 29 -71 104 -246 250 -385 320 -203 103 -448 149
-660 123z m1473 -617 c77 -38 181 -141 221 -220 57 -113 73 -236 48 -348 -10
-41 -16 -51 -36 -53 -36 -6 -51 20 -39 66 6 20 8 76 6 123 -4 76 -9 97 -41
162 -26 53 -54 91 -96 129 -56 52 -80 67 -163 102 -30 11 -38 21 -38 40 0 44
44 44 138 -1z m-2437 -746 c24 -12 508 -364 1074 -781 567 -418 1226 -904
1465 -1079 239 -176 450 -334 469 -351 41 -38 71 -99 71 -146 0 -119 -126
-212 -240 -177 -32 10 -432 299 -1435 1038 -764 563 -1411 1039 -1437 1058
l-46 33 -1408 -1057 c-1058 -796 -1418 -1061 -1453 -1072 -137 -41 -269 87
-232 225 7 23 24 55 38 73 15 17 297 234 627 482 331 248 990 743 1465 1101
476 357 881 655 900 662 53 19 92 17 142 -9z m3945 -2163 c99 -47 178 -167
172 -261 -2 -37 -7 -49 -22 -51 -23 -5 -36 14 -36 53 -1 39 -34 113 -68 148
-42 44 -84 66 -148 78 -65 12 -78 23 -62 52 9 17 17 18 61 13 28 -4 74 -18
103 -32z"/>
<path d="M1486 8093 c-17 -277 -58 -379 -175 -429 -51 -22 -171 -42 -298 -50
-122 -7 -173 -23 -78 -24 91 -1 242 -18 318 -36 163 -39 214 -137 233 -447 4
-65 10 -117 14 -117 4 0 10 52 14 117 19 310 70 408 233 447 76 18 227 35 318
36 95 1 44 17 -78 24 -150 9 -254 29 -314 60 -107 54 -143 148 -159 422 -4 63
-10 114 -14 114 -4 0 -10 -52 -14 -117z"/>
<path d="M7458 8110 c-99 -54 -113 -177 -28 -254 36 -33 46 -36 98 -36 75 0
117 25 144 87 33 75 14 145 -54 196 -39 29 -114 32 -160 7z"/>
<path d="M910 6498 c-55 -38 -75 -73 -75 -133 0 -39 6 -61 21 -82 73 -98 195
-98 268 0 28 38 28 126 0 164 -35 48 -82 73 -134 73 -32 0 -57 -7 -80 -22z"/>
<path d="M4285 4178 c-3 -7 -4 -146 -3 -308 l3 -295 310 0 310 0 0 305 0 305
-308 3 c-242 2 -309 0 -312 -10z"/>
<path d="M4975 4177 c-3 -7 -4 -145 -3 -307 l3 -295 313 -3 312 -2 0 310 0
310 -310 0 c-241 0 -312 -3 -315 -13z"/>
<path d="M9594 4031 c-60 -28 -89 -73 -89 -141 0 -68 29 -114 89 -141 53 -24
80 -24 132 2 80 38 112 125 74 203 -38 80 -128 114 -206 77z"/>
<path d="M575 3947 c-117 -39 -198 -110 -248 -215 -28 -60 -32 -77 -32 -157 0
-80 4 -97 32 -157 142 -301 560 -301 701 0 24 50 27 69 27 157 0 93 -2 105
-33 167 -41 84 -120 158 -200 189 -70 27 -190 34 -247 16z"/>
<path d="M9241 3502 c-24 -9 -66 -36 -92 -60 -135 -121 -139 -319 -11 -445 88
-87 204 -113 322 -73 75 26 160 111 185 185 39 118 2 260 -89 337 -81 69 -216
93 -315 56z"/>
<path d="M4285 3488 c-3 -7 -4 -146 -3 -308 l3 -295 310 0 310 0 0 305 0 305
-308 3 c-242 2 -309 0 -312 -10z"/>
<path d="M4975 3487 c-3 -7 -4 -145 -3 -307 l3 -295 313 -3 312 -2 0 310 0
310 -310 0 c-241 0 -312 -3 -315 -13z"/>
<path d="M1199 2527 c-222 -83 -285 -346 -122 -511 58 -59 130 -88 217 -88 97
0 161 28 225 98 141 154 96 389 -92 486 -53 27 -175 35 -228 15z"/>
<path d="M1520 1738 c-55 -38 -75 -73 -75 -133 0 -60 19 -95 76 -133 28 -20
43 -23 87 -20 56 5 91 25 125 70 28 37 27 129 0 166 -34 47 -81 72 -133 72
-32 0 -57 -7 -80 -22z"/>
<path d="M2939 1633 l-34 -38 38 34 c20 19 37 36 37 38 0 8 -8 0 -41 -34z"/>
<path d="M8205 1602 c-10 -64 -38 -100 -87 -112 -74 -19 -75 -21 -23 -37 63
-18 90 -45 108 -108 8 -28 17 -43 20 -35 3 8 10 34 16 58 14 49 50 77 113 87
47 8 42 21 -12 30 -58 10 -87 38 -106 101 -8 30 -17 54 -19 54 -2 0 -6 -17
-10 -38z"/>
<path d="M3230 1385 c13 -14 26 -25 28 -25 3 0 -5 11 -18 25 -13 14 -26 25
-28 25 -3 0 5 -11 18 -25z"/>
<path d="M7285 1270 c10 -11 20 -20 23 -20 3 0 -3 9 -13 20 -10 11 -20 20 -23
20 -3 0 3 -9 13 -20z"/>
<path d="M7175 1188 l-50 -53 53 50 c48 46 57 55 49 55 -1 0 -25 -24 -52 -52z"/>
</g>
</svg>
